<svg width="289" height="293" viewBox="0 0 289 293" xmlns="http://www.w3.org/2000/svg" xmlns:xlink="http://www.w3.org/1999/xlink" overflow="hidden"><g id="face/Explaining" fill="none" fill-rule="evenodd"><path d="M89.2809 215.29C101.527 201.06 122.152 200.069 139.237 203.627 150.201 205.911 160.876 209.715 172.012 211.125 177.213 211.784 182.47 211.981 187.709 211.884 192.855 211.789 198.009 210.752 203.137 210.945 203.925 210.974 204.223 212.009 203.54 212.43 196.505 216.751 187.028 218.137 178.718 218.982 178.744 219.597 178.781 220.197 178.866 220.706 179.093 222.063 179.3 223.411 179.467 224.777 179.844 227.858 180.266 230.929 180.687 234.004 181.517 240.055 181.778 246.298 183.237 252.245L183.492 253.234C183.83 254.484 183.907 255.611 183.794 256.627L184.132 256.474 185.199 255.957 185.899 255.626C188.453 254.442 190.89 253.58 193.893 253.868 196.179 254.086 198.098 255.645 198.112 258.086 198.169 269.041 183.405 272.564 174.96 274.661L172.483 275.271C161.734 277.893 150.758 280.191 139.703 280.741 121.961 281.622 102.024 276.728 90.4179 262.337 79.5889 248.91 77.6039 228.858 89.2809 215.29ZM169.852 261.318C167.99 244.824 147.722 243.917 141.891 254.377 139.304 239.798 101.028 253.117 104.021 256.015 115.365 267.001 132.58 267.99 147.379 265.958 154.916 264.923 162.459 263.238 169.852 261.318ZM147.358 218.088 142.262 217.355 140.255 217.078C127.623 215.387 113.416 214.513 103.03 222.612 99.2379 225.568 97.1039 229.424 96.3069 233.566 106.134 232.109 115.998 230.998 125.891 230.073L128.59 229.825C134.78 229.267 140.967 228.679 147.151 228.062L151.546 227.617 155.939 227.161C157.485 226.999 167.904 226.466 169.863 226.824 170.072 225.064 170.345 221.255 170.787 219.542 163.385 219.793 156.015 219.243 148.656 218.265L147.358 218.088ZM170.814 144.367C178.366 148.957 189.872 159.66 181.748 171.04 172.186 181.073 158.419 169.569 151.634 164.366 145.343 160.334 138.275 170.705 144.112 175.413 193.136 211.708 213.031 145.567 174.634 138.97 170.406 138.243 168.836 142.947 170.814 144.367ZM184.328 163.704 184.691 163.507 184.814 163.432C185.026 163.295 184.891 163.31 184.408 163.477L184.046 163.607 184.046 163.863C184.139 163.806 184.238 163.763 184.328 163.704ZM87.6173 122.924 87.616 122.699C87.63 116.322 91.344 101.762 100.524 101.762 106.259 101.762 109.741 111.671 110.344 121.886L110.365 122.302C110.631 128.653 108.888 142.534 100.524 142.534 92.0716 142.534 87.7042 129.387 87.6173 122.924L87.6173 122.924ZM222.773 120.924 222.774 120.699C222.76 114.322 219.046 99.7622 209.866 99.7622 204.274 99.7622 200.824 109.182 200.097 119.12L200.046 119.886C199.684 126.022 201.314 140.534 209.866 140.534 218.318 140.534 222.686 127.387 222.773 120.924L222.773 120.924ZM92.8551 58.2848C100.347 57.1458 110.268 59.3098 113.761 66.9278 115.317 70.3218 113.474 74.0748 109.551 74.2628 100.07 74.7168 91.5671 72.6068 83.2451 78.7718 79.6636 81.4254 76.6526 85.0996 74.1258 88.7644L73.1697 90.1591 72.3779 91.3082C70.6621 93.8307 69.0374 96.5713 69.2911 99.6148 69.3661 100.516 68.4451 101.371 67.5701 101.335 62.1161 101.111 61.5291 94.2728 62.2461 90.1658 63.5801 82.5438 67.2691 75.3888 72.3821 69.6258 77.7521 63.5738 84.8411 59.5038 92.8551 58.2848ZM196.044 67.5353C201.21 64.2143 207.818 62.9383 213.87 63.4273 225.803 64.3883 245.822 74.5323 243.187 89.1073 242.374 93.6023 236.122 95.9743 232.438 93.4803 228.477 90.7993 227.513 86.6323 224.565 83.1283 222.213 80.3293 219.232 78.3043 216.04 76.5793 212.894 74.8778 209.254 73.8468 205.684 73.4709L205.089 73.4143C202.94 73.2313 192.088 73.2803 193.681 77.3313 193.993 78.1243 192.813 78.7523 192.271 78.1523 188.944 74.4723 192.712 69.6773 196.044 67.5353Z" id="🖍-Ink" fill="#000000"/></g></svg>