<svg width="473" height="567" viewBox="0 0 473 567" xmlns="http://www.w3.org/2000/svg" xmlns:xlink="http://www.w3.org/1999/xlink" overflow="hidden"><g id="head/mono/Gray-Bun" fill="none" fill-rule="evenodd"><path d="M428.872 194.624C409.167 75.447 258.707 53.96 160.663 79.044 158.856 56.12 144.414 35.864 126.392 22.54 49.8357-32.549-40.7983 60.981-22.6533 141.589-19.3983 166.008 0.1217 193.873 27.4327 189.694-6.8963 254.661-20.3113 385.664 55.3257 426.16 62.6227 431.353 63.8337 441.9 69.4497 448.663 78.5667 459.57 117.518 473.463 138.59 462.329 145.211 468.413 152.85 474.333 161.781 476.438 207.919 513.37 275.346 521.703 331.528 506.464 366.142 500.59 402.024 484.976 419.832 453.075 434.921 428.796 427.968 400.349 421.049 374.652 418.06 360.516 416.114 346.267 414.916 331.898 417.37 329.033 417.507 325.055 418.119 321.432 420.776 308.591 426.582 296.674 429.486 283.87 435.983 254.804 434.855 223.75 428.872 194.624" id="🎨-Background" fill="#FFFFFF"/><path d="M427.294 255.319C426.156 269.689 420.065 282.619 414.966 296.011 415.523 288.087 415.261 279.841 415.816 271.613 409.886 220.09 339.819 206.554 312.619 167.595 313.649 165.395 314.02 145.724 309.964 151.256 294.231 220.101 200.72 254.64 136.698 254.773 131.856 250.783 122.253 254.998 124.067 262.952 133.641 304.923 135.737 348.828 129.589 391.475 126.692 406.534 126.203 424.654 117.168 437.63 107.578 446.751 119.107 447.483 125.452 445.424 127.221 447.911 129.088 450.326 130.962 452.732 121.848 459.028 108.55 455.594 99.1166 451.403 88.6236 445.849 82.6256 435.086 75.0226 426.459 70.8716 418.104 64.5756 413.302 56.4816 408.777 11.4526 378.173 12.6156 311.039 19.0796 262.518 37.9156 118.132 198.172 48.4653 326.783 98.6253 396.24 116.386 428.782 188.198 427.294 255.319M8.3886 173.576C-19.0784 146.222-13.5494 98.4023 3.7166 66.8683 38.3146 0.9813 136.584 3.1223 148.351 82.9843 98.2376 100.151 55.9516 136.962 30.7756 183.443 22.5786 182.567 14.6546 178.916 8.3886 173.576M428.872 194.646C409.167 75.4693 258.708 53.9823 160.663 79.0673 158.857 56.1423 144.415 35.8863 126.392 22.5613 49.8356-32.5267-40.7984 61.0033-22.6534 141.611-19.3984 166.03 0.1216 193.895 27.4326 189.716-6.8964 254.683-20.3104 385.686 55.3256 426.182 62.6226 431.376 63.8336 441.923 69.4496 448.684 78.5666 459.592 117.518 473.486 138.59 462.351 143.6 468.498 172.037 487.192 169.964 468.867 167.872 463.93 161.408 462.642 157.104 460.202 148.058 455.208 140.199 448.17 134.024 439.903 153.419 385.215 151.941 324.322 141.076 268.012 206.006 264.746 282.408 236.286 311.047 173.791 330.407 219.271 390.445 225.124 405.611 275.973 406.526 302.68 400.799 328.991 404.952 355.711 406.171 381.883 420.006 407.881 412.007 433.881 389.661 490.579 309.218 498.899 256.071 496.529 243.447 495.487 232.97 488.665 222.592 482.188 216.372 479.236 208.968 485.411 212.779 492.002 227.33 512.307 257.259 514.082 280.241 513.35 339.884 509.814 426.08 492.193 429.176 418.545 427.209 389.35 415.753 361.41 414.917 331.92 417.37 329.055 417.507 325.077 418.119 321.454 420.776 308.612 426.583 296.696 429.486 283.892 435.983 254.826 434.856 223.773 428.872 194.646" id="🖍-Ink" fill="#000000"/></g></svg>