<svg width="473" height="567" viewBox="0 0 473 567" xmlns="http://www.w3.org/2000/svg" xmlns:xlink="http://www.w3.org/1999/xlink" overflow="hidden"><g id="head/mono/Long" fill="none" fill-rule="evenodd"><path d="M431.901 270.053C428.111 207.851 407.927 137.33 348.523 106.79 217.564 54.232 45.3796 186.588 36.2636 321.8 33.0856 368.084 58.7836 418.659 105.745 431.527 116.186 445.36 131.976 453.808 147.561 461.14 333.188 557.447 453.095 479.16 431.901 270.053L431.901 270.053Z" id="🎨-Background" fill="#FFFFFF"/><path d="M474.189 231.36C467.629 213.14 460.699 195.06 453.409 177.12 446.309 159.66 439.896 141.823 431.079 125.19 378.419 25.8501 282.659 25.8501 233.159 38.8301 207.489 27.7701 159.408 30.8898 132.679 40.8701 89.4071 57.0271 36.6581 120.585 18.6231 149.141-21.1959 212.19-46.0459 296.107-19.5959 368.963-16.1389 378.485-11.7299 387.304-6.7659 395.803-9.8929 400.041-13.4919 404.055-17.4789 407.999-29.3269 419.721-41.1749 431.057-51.4099 444.278-61.5809 457.417-70.0129 471.389-76.2899 486.794-88.1259 515.846-88.6959 548.742-73.0479 576.463-59.4339 600.583-35.3169 618.544-8.1459 620.257-6.7509 620.451-5.3539 620.629-3.9509 620.77-0.3509 626.7 4.0391 632.16 9.0491 636.92 24.3991 651.52 60.9891 659.01 81.8591 659.49 82.9291 660.35 84.0091 661.21 85.0891 662.06 97.8591 672.11 111.259 682.25 125.919 689.4 135.849 694.25 148.869 698.3 159.229 694.8 163.929 697.94 171.639 697.28 176.299 694.71 183.959 690.49 190.189 682.89 193.979 675.11 203.169 656.22 200.959 635.55 198.599 615.37 195.999 593.08 193.499 570.78 190.959 548.49 188.969 531.06 186.889 513.34 181.589 496.55 178.849 487.85 175.259 479.49 170.619 471.63 170.739 470.97 170.719 470.31 170.529 469.69 169.009 464.75 165.869 462.16 162.149 458.8 161.669 458.37 161.189 457.93 160.719 457.48 158.859 455.36 156.869 453.39 154.739 451.72 153.919 450.89 153.109 450.05 152.299 449.21 145.569 442.16 139.209 434.75 133.559 426.81 128.079 419.11 123.129 411.07 118.419 402.88 113.629 394.55 110.459 385.36 105.679 377.09 105.269 376.38 104.229 376.24 103.649 376.83 102.169 378.36 101.219 380.06 101.399 381.85L100.659 381.96C100.379 379.26 97.8891 377.06 94.5091 377.65 89.4491 378.53 85.2891 378.86 80.9091 377.18 81.6791 372.07 82.3891 366.95 83.0891 361.82 84.3691 352.38 85.5591 342.91 86.5791 333.44 89.0491 334.03 91.4991 334.88 93.8991 335.96 97.3191 337.49 100.549 339.55 103.309 342.08 106.029 344.58 107.909 347.95 111.229 349.69 115.049 351.68 119.659 348.39 118.539 344.07 116.269 335.34 103.419 330.34 95.4691 328.69 92.7391 328.12 89.9491 327.88 87.1591 327.94 87.7891 321.86 88.3491 315.78 88.8091 309.69 89.0291 306.81 89.2291 303.93 89.4191 301.04 95.5991 299.17 102.219 298.61 108.649 299.49 110.769 301.18 112.889 302.85 114.939 304.54 121.449 309.92 127.929 315.33 134.329 320.84 134.909 321.33 135.479 321.82 136.059 322.32 139.859 325.59 144.599 322.35 143.959 317.72 138.739 279.78 161.979 249.6 189.189 226.22 219.309 200.33 274.069 197.315 309.889 152.47 326.386 155.828 363.219 165.8 378.419 190.02 399.699 223.96 396.919 254.37 398.539 292.87 400.159 331.4 404.279 371.59 395.529 409.58 387.459 444.61 365.609 474.54 331.709 488.3 330.869 488.64 330.019 488.97 329.169 489.29 311.639 495.9 292.509 497.77 274.069 494.29 253.659 490.43 236.619 481.09 219.639 469.6 218.659 468.95 217.229 470.29 217.969 471.27 240.349 500.93 284.309 510.84 319.179 503.01 320.809 502.64 322.429 502.24 324.039 501.8 316.239 524.23 317.809 548.85 327.969 570.69 334.079 583.83 343.399 595.2 354.749 604.17 367.259 614.05 382.779 622.03 391.459 635.9 399.409 648.61 397.049 662.89 383.439 670.23 380.009 672.09 378.689 678.1 382.089 680.74 383.389 681.74 384.689 682.76 386.019 683.76 393.639 689.51 414.569 700.31 417.959 700.71 448.059 704.28 468.299 682.18 481.269 656.11 496.499 625.51 492.539 588.22 475.759 559.08 462.299 535.7 435.789 512.66 446.329 483.07 450.089 472.5 457.779 463.49 465.249 455.35 473.769 446.08 482.929 437.4 491.099 427.8 499.219 418.27 506.419 407.9 510.439 395.94 516.309 378.46 513.389 359.56 508.979 342.11 499.529 304.65 487.259 267.69 474.189 231.36Z" id="🖍-Ink" fill="#000000"/></g></svg>