<svg width="289" height="293" viewBox="0 0 289 293" xmlns="http://www.w3.org/2000/svg" xmlns:xlink="http://www.w3.org/1999/xlink" overflow="hidden"><g id="face/Calm" fill="none" fill-rule="evenodd"><path d="M171.042 240.159C163.675 242.292 155.768 242.483 148.259 240.28 141.448 238.281 134.455 233.882 129.442 228.062 124.989 222.892 122.105 216.608 122.219 209.901 122.232 209.135 122.506 208.496 122.927 207.999 123.38 207.465 124.014 207.098 124.693 206.939 125.391 206.775 126.129 206.833 126.757 207.119 127.326 207.377 127.813 207.816 128.118 208.457 128.888 209.469 129.655 210.466 130.426 211.435 136.62 219.084 142.618 224.799 151.932 226.85 156.985 227.962 162.032 227.469 166.663 225.771 171.62 223.954 176.102 220.76 179.613 216.671 181.2 214.824 183.074 214.07 184.906 214.057 186.982 214.043 189.034 215.007 190.579 216.549 192.099 218.065 193.116 220.124 193.209 222.279 193.29 224.17 192.673 226.145 191.032 227.907 185.627 233.711 178.621 237.964 171.042 240.159ZM170.814 144.367C178.366 148.957 189.872 159.66 181.748 171.04 172.186 181.073 158.419 169.569 151.634 164.366 145.343 160.334 138.275 170.705 144.112 175.413 193.136 211.708 213.031 145.567 174.634 138.97 170.406 138.243 168.836 142.947 170.814 144.367ZM100.175 124.17C97.7479 122.618 94.8929 122.085 91.7287 123.525 89.256 124.649 84.9192 128.398 81.9011 133.325 79.8363 136.697 78.3721 140.651 78.6769 144.771 78.7477 145.728 78.3942 146.433 77.8366 146.955 77.3963 147.367 76.7601 147.669 76.013 147.764 75.3787 147.844 74.6687 147.772 74.0914 147.592 72.9932 147.249 72.4119 146.536 72.1929 145.955 70.0797 140.343 70.9901 134.08 73.3585 128.43 76.5548 120.805 82.3593 114.418 86.1622 112.359 92.6698 108.833 100.347 108.671 106.864 112.262 112.411 115.319 115.88 120.253 119.33 125.283 120.064 126.353 120.791 127.414 121.544 128.457 123.051 130.546 123.201 132.619 122.618 134.396 121.971 136.364 120.322 138.026 118.259 138.895 116.353 139.699 114.141 139.812 112.183 138.986 110.529 138.288 109.012 136.929 108.051 134.622 106.434 130.736 103.739 126.45 100.175 124.17L100.175 124.17ZM223.441 132.814C221.779 133.68 220.478 133.942 218.634 133.389 217.615 133.083 216.607 132.496 215.818 131.707 215.036 130.925 214.472 129.953 214.252 128.874 213.713 126.211 212.256 123.719 210.181 122.095 208.406 120.706 206.167 119.97 203.683 120.385 201.002 120.833 198.449 122.552 196.69 124.579 196.102 125.257 195.641 126.027 195.178 126.792 194.311 128.223 193.469 129.553 192.274 130.603 191.821 131.003 191.138 131.28 190.477 131.28 190.208 131.28 189.935 131.236 189.676 131.155 187.008 128.478 186.495 126.446 186.581 124.431 186.671 122.319 187.504 120.179 188.85 118.184 192.008 113.502 198.003 109.663 202.048 108.793 207.589 107.603 213.091 109.032 217.503 112.126 222.042 115.311 225.406 120.254 226.454 125.825 226.706 127.167 226.599 128.615 226.088 129.871 225.589 131.098 224.719 132.149 223.441 132.814ZM112.394 74.2526C109.069 77.4921 105.134 77.9939 101.153 78.4402 98.9406 78.6906 97.1746 78.8923 95.4369 79.2844 90.6606 80.3626 85.9393 81.9865 81.6319 84.3251 77.1293 86.7699 72.2224 89.7182 68.6923 93.4954 67.8528 94.3942 67.0615 95.3373 66.2691 96.2825 65.5466 97.1444 64.8505 97.9741 64.117 98.7741 63.2745 99.6931 62.4745 100.656 61.6788 101.617 61.1867 102.427 61.0895 102.627 60.9905 102.834 60.8413 103.146 60.6679 103.495 60.4698 103.869 60.1985 104.382 59.8807 104.944 59.5479 105.452 58.9941 106.383 58.697 106.639 58.4403 106.753 58.0142 106.943 57.6102 107.037 57.2182 106.986 56.8507 106.939 56.5044 106.762 56.1625 106.473 54.4554 105.031 53.952 102.664 54.0036 100.151 54.0819 96.3385 55.4882 92.1171 56.7846 89.5221 59.7989 83.4924 63.9794 77.2241 69.0062 72.7238 74.7423 67.5869 81.0177 63.6979 88.2257 61.0182 92.705 59.3523 97.8913 57.8231 102.771 58.0163 106.284 58.1553 109.637 59.1995 112.407 61.8071 114.107 63.4078 114.924 65.6846 114.924 67.9598 114.924 70.2804 114.076 72.6146 112.394 74.2526ZM230.203 103.918C229.992 104.264 229.699 104.503 229.373 104.646 229.032 104.797 228.651 104.84 228.285 104.778 227.921 104.717 227.575 104.552 227.3 104.3 227.037 104.058 226.837 103.737 226.747 103.345 224.54 93.649 220.253 86.4354 211.104 81.7837 206.604 79.4953 201.429 78.0414 196.53 76.8821 195.106 76.5452 193.602 76.327 192.087 76.1058 187.339 75.4125 182.557 74.6186 179.462 70.7808 177.597 68.4691 176.814 65.5126 177.256 62.8088 177.673 60.2631 179.161 57.9287 181.865 56.5299 188.598 53.0489 196.964 56.4646 203.763 59.3744 204.267 59.5902 204.762 59.8021 205.246 60.0065 211.895 62.813 217.959 66.5174 222.944 71.8151 226.899 76.018 230.563 82.2312 232.039 88.6229 233.267 93.9405 232.978 99.3691 230.203 103.918Z" id="🖍-Ink" fill="#000000"/></g></svg>