<svg width="289" height="293" viewBox="0 0 289 293" xmlns="http://www.w3.org/2000/svg" xmlns:xlink="http://www.w3.org/1999/xlink" overflow="hidden"><g id="face/Tired" fill="none" fill-rule="evenodd"><path d="M189.059 229.111C195.379 227.638 200.343 232.99 199.101 239.153 197.786 245.677 190.771 247.913 184.889 247.708 178.22 247.477 171.556 246.1 164.854 245.823 157.969 245.539 151.058 245.487 144.169 245.673 137.797 245.845 131.257 246.968 124.935 245.96 122.473 245.567 122.706 242.317 124.308 241.162 129.064 237.732 135.228 236.334 140.834 234.895 146.55 233.427 152.393 232.303 158.255 231.617 164.198 230.922 170.19 230.575 176.172 230.507 178.895 230.476 182.234 231.081 184.889 230.591 186.242 230.34 187.62 229.447 189.059 229.111ZM170.814 144.367C178.366 148.957 189.872 159.66 181.748 171.04 172.186 181.073 158.419 169.569 151.634 164.366 145.343 160.334 138.275 170.705 144.112 175.413 193.136 211.708 213.031 145.567 174.634 138.97 170.406 138.243 168.836 142.947 170.814 144.367ZM116.059 110.091C126.16 108.411 127.927 122.812 117.916 123.817 115.815 124.029 113.726 124.213 111.641 124.396 111.844 125.048 111.979 125.718 112.053 126.409 112.148 126.994 112.219 127.617 112.282 128.327 112.599 131.87 110.087 135.555 107.152 137.273 104.102 139.057 99.7243 139.296 96.6953 137.273 95.1333 136.229 93.5733 135.051 92.7123 133.326 91.5573 131.553 90.9273 129.501 90.8633 127.395 86.2583 128.59 81.5693 130.208 76.9183 131.064 77.0893 131.232 77.2573 131.411 77.4203 131.609 77.5443 131.76 77.3743 132.042 77.1933 131.904L74.8603 131.387 74.8603 131.387C74.1423 131.48 73.4243 131.557 72.7083 131.602L72.7253 131.54 72.7253 131.54C71.5283 131.518 70.5483 130.104 71.6193 128.971 75.7284 124.628 82.1402 121.742 87.9859 119.328L93.6182 117.019C100.82 114.092 108.423 111.362 116.059 110.091ZM197.32 114.546C203.936 113.791 210.487 114.091 217.114 114.495 228.267 115.174 223.589 131.438 214.637 127.683 214.729 128.278 214.753 128.874 214.684 129.429 214.334 132.288 213.402 134.704 210.778 136.24 208.341 137.666 205.252 137.662 202.815 136.24 200.205 134.718 199.028 132.573 198.362 129.786 197.846 127.625 198.053 125.817 198.351 123.677 198.45 122.968 198.759 122.307 199.187 121.713 198.563 121.557 197.938 121.406 197.312 121.265 191.746 119.999 186.255 120.253 180.705 119.451 180.113 119.365 180.019 118.409 180.537 118.166 185.524 115.823 191.864 115.168 197.32 114.546ZM115.039 64.3154C118.857 62.8584 123.654 65.2814 125.603 68.6144 127.814 72.3964 126.869 76.7624 124.14 79.9494 119.952 84.8383 111.976 87.85 106.098 90.6397L105.627 90.8654C99.5905 93.7774 93.3895 96.4514 87.1045 98.7814 80.9235 101.074 74.4935 102.87 68.0855 104.412 64.7065 105.225 61.2555 105.897 57.8025 106.321 55.0765 106.655 52.9745 105.907 50.3665 105.907 49.9855 105.908 49.8665 105.403 50.1775 105.209 52.6145 103.677 54.4235 101.66 57.0815 100.241 59.8495 98.7644 62.6275 97.3124 65.4155 95.8744 71.0525 92.9684 76.4805 89.7344 81.9185 86.4794 87.6505 83.0484 93.2525 79.4354 98.7005 75.5674 104.032 71.7824 108.945 66.6404 115.039 64.3154ZM183.076 61.2035C187.844 60.2785 192.566 62.5345 193.977 67.3935 195.33 72.0485 193.915 73.0465 197.524 76.3775 200.401 79.0321 203.503 81.4015 206.633 83.7347L211.241 87.1599C219.586 93.3374 228.001 99.1782 237.596 103.346 238.407 103.699 237.938 104.904 237.169 104.92 221.915 105.214 207.288 103.148 193.519 96.3195 187.087 93.1295 180.625 89.0945 176.898 82.7265 172.581 75.3525 172.707 63.2135 183.076 61.2035Z" id="🖍-Ink" fill="#000000"/></g></svg>