<svg width="289" height="293" viewBox="0 0 289 293" xmlns="http://www.w3.org/2000/svg" xmlns:xlink="http://www.w3.org/1999/xlink" overflow="hidden"><g id="face/Eyes-Closed" fill="none" fill-rule="evenodd"><path d="M182.244 225.965 182.936 225.805C188.46 224.503 193.776 222.731 198.922 226.154 203.825 229.415 204.506 235.447 200.686 239.847 196.76 244.371 191.544 244.118 186.039 244.18L185.695 244.184C181.124 244.247 176.477 244.179 171.924 243.774 167.68 243.396 163.408 242.792 159.212 241.999L156.73 241.513C154.195 241 151.698 240.333 150.392 237.879 148.114 233.602 165.046 230.246 167.103 229.659 172.095 228.234 177.181 227.112 182.244 225.965ZM191.634 174.395C188.935 177.194 185.37 179.106 181.368 180.296 171.31 183.286 158.476 181.693 150.26 178.646 148.556 178.014 146.963 176.725 146.048 175.114 145.212 173.642 144.929 171.911 145.566 170.145 145.747 169.644 145.967 169.152 146.189 168.667 146.791 167.348 148.019 166.321 149.462 165.734 150.96 165.125 152.664 165.001 154.03 165.43 154.214 165.488 154.402 165.547 154.595 165.608 159.8 167.249 168.337 169.966 175.41 169.439 179.654 169.123 183.387 167.624 185.318 163.74 186.335 161.692 186.053 159.667 185.151 157.813 183.79 155.017 181.065 152.584 178.768 150.908 175.532 148.544 172.079 147.6 168.509 146.604 167.163 146.229 165.8 145.848 164.425 145.393 163.971 145.243 163.574 144.949 163.277 144.567 162.983 144.19 162.79 143.729 162.729 143.266 162.667 142.787 162.744 142.31 162.966 141.898 163.172 141.516 163.501 141.181 163.993 140.961 170.98 137.831 180.015 139.899 186.835 144.823 190.243 147.284 193.086 150.445 194.839 153.978 196.465 157.256 197.156 160.853 196.518 164.521 195.805 168.628 194.067 171.872 191.634 174.395ZM77.1362 104.555C79.0992 103.69 80.7122 107.739 81.1162 108.843L81.9517 111.133C83.3146 114.826 84.8793 118.581 87.7452 121.322 90.1442 123.617 93.9882 125.562 96.7712 122.877 99.4112 120.33 98.1242 117.461 98.5132 114.336 99.2152 108.684 106.922 103.035 111.556 108.933 122.024 122.259 105.828 140.791 90.9102 137.54 83.3233 135.886 77.216 129.803 74.7069 122.569L74.5782 122.187C73.0762 117.604 71.5572 107.016 77.1362 104.555ZM212.22 113.836 212.148 113.667C207.162 102.326 224.948 97.4517 226.456 107.635L226.551 108.322C228.018 119.626 224.927 134.828 211.082 135.955 195.54 137.221 189.068 119.88 190.456 107.155 190.705 104.877 193.469 104.562 194.323 106.632L194.504 107.083C197.014 113.479 199.397 125.777 208.239 125.765 214.146 125.756 213.864 117.782 212.22 113.836L212.22 113.836ZM223.496 81.0054C232.43 80.6884 232.418 94.6704 223.496 94.8804 193.694 95.5814 163.869 96.5134 134.058 96.6734L128.64 96.7065C100.638 96.8941 72.5399 97.2768 44.6202 94.9264 42.2372 94.7264 42.6802 91.3804 44.6712 91.5154 73.9422 87.3494 103.57 86.1314 133.064 84.5484 163.181 82.9314 193.356 82.0754 223.496 81.0054Z" id="🖍-Ink" fill="#000000"/></g></svg>