<svg width="289" height="293" viewBox="0 0 289 293" xmlns="http://www.w3.org/2000/svg" xmlns:xlink="http://www.w3.org/1999/xlink" overflow="hidden"><g id="face/Suspicious" fill="none" fill-rule="evenodd"><path d="M155.884 250.932C163.443 249.88 171.571 245.599 178.791 249.078 182.166 250.704 183.768 256.265 181.486 259.356 178.001 264.077 174.403 264.858 168.746 265.312 164.505 265.652 160.241 265.677 156.011 265.188L154.935 265.056C147.387 264.082 139.542 261.975 133.695 256.903 132.499 255.865 133.112 253.623 134.647 253.299 141.591 251.838 148.855 251.911 155.884 250.932ZM146.987 233.526C146.984 233.465 147.077 233.465 147.08 233.526 147.263 237.846 148.477 241.851 150.721 245.547 150.752 245.6 150.671 245.647 150.64 245.595 148.395 241.896 147.17 237.85 146.987 233.526ZM170.814 144.367C178.366 148.957 189.872 159.66 181.748 171.04 172.186 181.073 158.419 169.569 151.634 164.366 145.343 160.334 138.275 170.705 144.112 175.413 193.136 211.708 213.031 145.567 174.634 138.97 170.406 138.243 168.836 142.947 170.814 144.367ZM209.464 93.0002C211.237 93.0002 212.933 93.6021 214.478 94.7158 215.998 95.8119 217.374 97.4116 218.52 99.4068 220.689 103.183 222.045 108.396 222.045 114.16 222.045 119.925 220.689 125.138 218.52 128.914 217.374 130.909 215.998 132.509 214.478 133.605 212.933 134.718 211.237 135.32 209.464 135.32 207.691 135.32 205.995 134.718 204.45 133.605 202.93 132.509 201.554 130.909 200.408 128.914 198.239 125.138 196.883 119.925 196.883 114.16 196.883 108.396 198.239 103.183 200.408 99.4068 201.554 97.4116 202.93 95.8119 204.45 94.7158 205.995 93.6021 207.691 93.0002 209.464 93.0002ZM127.347 98.8798 128.014 98.7532C131.909 98.0448 133.877 98.2833 137.269 100.938 139.818 102.933 139.088 106.862 137.269 108.96 134.1 112.616 131.005 111.968 126.665 112.108L126.36 112.119C122.743 112.266 119.123 112.369 115.503 112.424 114.513 112.44 113.522 112.436 112.532 112.442 112.637 121.603 107.355 128.578 100.399 133.881 95.9027 137.31 90.2157 133.354 88.6117 129.086 87.2847 125.554 86.9997 121.211 87.6877 117.344 87.9425 115.918 88.4738 114.371 89.2862 113.052L89.5147 112.698 89.4777 112.192C89.4687 112.067 89.4777 111.946 89.4737 111.821 83.0162 111.428 76.596 110.781 70.178 109.967L68.0387 109.69C62.5607 108.965 54.5157 108.732 50.0827 105.169 49.9427 105.055 49.9927 104.806 50.1407 104.727 52.5777 103.414 55.0501 103.489 57.7756 103.368L58.1667 103.349C61.1307 103.196 64.088 103.068 67.0503 102.967L70.0147 102.874C77.5967 102.657 85.1857 102.289 92.7607 101.886 94.0777 101.816 95.3947 101.733 96.7137 101.652 98.0927 101.074 99.5587 100.728 101.007 100.664 102.207 100.61 103.361 100.776 104.446 101.121 107.212 100.907 109.978 100.674 112.74 100.424L115.503 100.168C119.401 99.7968 123.499 99.6348 127.347 98.8798ZM175.215 30.2196C183.548 26.1246 193.68 26.0246 202.262 29.4136L202.831 29.6439C211.499 33.2408 221.943 41.549 219.681 51.8976 217.612 61.3696 202.755 59.7646 202.002 50.8116 197.205 44.1656 186.448 42.7076 179.686 46.9336 175.585 49.4976 172.77 53.8146 170.846 58.1686 169.206 61.8766 168.897 66.4556 166.378 69.6856 166.296 69.7906 166.132 69.8096 166.013 69.7816 158.501 68.0436 158.327 56.1066 159.608 50.3166 161.469 41.8986 167.442 34.0416 175.215 30.2196Z" id="🖍-Ink" fill="#000000"/></g></svg>