<svg width="289" height="293" viewBox="0 0 289 293" xmlns="http://www.w3.org/2000/svg" xmlns:xlink="http://www.w3.org/1999/xlink" overflow="hidden"><g id="face/Monster" fill="none" fill-rule="evenodd"><path d="M101.162 210.672C108.415 209.272 117.438 212.322 124.671 213.658L125.21 213.755C133.981 215.287 142.733 217.139 151.601 218.043 160.067 218.908 168.713 219.063 177.18 218.09 181.246 217.622 185.277 216.826 189.227 215.758 190.917 215.301 192.593 214.791 194.249 214.225L194.437 214.153C195.653 213.651 198.943 211.758 198.904 212.813 199.829 211.746 201.103 210.989 202.502 210.621 204.476 210.102 207.01 210.589 208.662 211.985 210.811 210.283 214.035 211.504 215.476 213.542 217.948 217.037 217.143 221.134 216.824 225.188L216.797 225.546C216.526 229.368 216.111 233.164 215.599 236.957L215.373 238.583C214.576 244.194 214.357 253.448 207.558 255.287 202.181 256.743 197.26 251.21 193.794 246.819L191.896 244.387C189.649 241.536 187.609 238.601 185.965 235.36 185.216 233.885 184.492 232.374 183.865 230.843 183.786 230.65 183.728 230.477 183.668 230.303 173.696 231.645 163.488 231.453 153.49 230.135 147.16 229.3 140.924 228.094 134.782 226.474L132.011 231.483C128.769 237.324 125.48 243.147 122.022 248.856L121.754 249.291C118.518 254.44 113.099 259.596 106.692 255.74 100.959 252.288 100.715 244.436 100.111 238.577 99.7079 234.663 99.3811 230.723 99.224 226.787L99.1673 225.101C99.0643 221.285 98.4433 216.862 99.9103 213.293 100.123 212.773 100.87 212.373 101.32 212.92 104.385 216.646 105.312 222.421 106.636 226.994 108.11 232.082 110.245 237.639 111.011 242.917L111.225 242.545 111.225 242.545C111.98 241.112 112.75 239.686 113.523 238.262L115.843 233.991C117.924 230.135 120.043 226.303 122.181 222.48 119.74 221.563 117.321 220.577 114.912 219.576L109.445 217.29C106.322 215.971 103.138 214.482 100.79 212.082 100.374 211.657 100.519 210.795 101.162 210.672ZM204.88 224.76C199.493 226.95 193.921 228.53 188.248 229.578 188.614 229.953 188.979 230.328 189.319 230.722 190.654 232.267 192.071 233.751 193.495 235.218L194.35 236.097C196.532 238.336 199.81 242.023 203.155 244.166L203.336 243.199C203.366 243.032 203.389 242.887 203.401 242.775L203.758 239.594C203.815 239.064 203.871 238.533 203.924 238.002 204.212 235.133 204.441 232.258 204.681 229.385 204.807 227.871 204.837 226.316 204.88 224.76ZM141.13 39.8926C153.96 34.4126 169.187 36.9999 180.238 45.2776 191.546 53.7486 196.491 67.5206 197.145 81.2606 206.088 73.6246 218.967 79.4046 226.499 86.5596 235.191 94.8166 239.587 107.278 237.561 119.104 235.542 130.89 227.013 141.288 215.474 144.793 209.953 146.47 203.8 146.508 198.246 144.948 196.36 144.417 194.049 143.595 191.914 142.45 192.036 142.94 192.16 143.431 192.276 143.92 195.047 155.649 196.618 168.833 192.46 180.432 185.777 199.071 162.04 209.505 147.22 192.961 141.401 186.466 136.878 176.294 137.23 167.439 137.415 162.786 140.051 157.403 145.493 157.718 149.713 157.961 151.714 161.493 150.634 165.23L150.568 165.446C148.28 172.591 152.186 182.915 157.845 187.788 166.523 195.261 178.432 188.758 183.177 179.995 188.707 169.782 188.034 156.688 186.266 145.577 184.53 134.667 180.659 124.688 176.55 114.593 176.114 114.672 175.672 114.745 175.22 114.806 167.048 115.915 150.421 116.333 141.392 110.413 142.362 119.55 140.459 128.956 135.268 136.693 129.484 145.315 120.77 149.878 110.628 151.276 100.778 152.636 89.36 152.911 79.635 150.577 58.926 145.607 51.624 120.04 57.887 101.584 61.592 90.6666 71.93 80.8476 83.421 78.3676 89.341 74.4736 97.29 73.3206 104.122 73.8516 114.326 74.6466 124.376 79.0556 131.21 86.7986 133.821 89.7566 135.968 93.1056 137.623 96.6896 138.179 96.2516 138.827 95.9226 139.559 95.7506 140.702 95.4826 141.702 95.4226 142.82 95.8166 143.377 96.0136 144.18 96.7096 144.663 97.1616L145.767 98.4576C147.119 100.034 148.406 101.357 150.814 102.337 157.528 105.07 166.634 105.663 173.767 105.104 191.967 103.68 189.675 79.5726 185.192 67.1876 179.882 52.5156 164.662 43.3886 149.178 45.9946 142.525 47.1136 136.178 50.6546 131.308 55.2816 125.872 60.4476 123.544 66.6876 120.283 73.2266 120.09 73.6136 119.424 73.5296 119.341 73.1026 116.661 59.3146 129.369 44.9166 141.13 39.8926ZM44.1941 151.055C43.6411 150.406 44.3671 149.265 45.1591 149.803 50.9601 153.744 57.4111 156.588 64.4241 157.357 67.7181 157.717 71.0381 157.742 74.3191 157.237 77.1141 156.805 79.6331 155.953 82.4231 156.723 83.9081 157.133 84.1781 158.856 83.2711 159.936 79.0561 164.953 68.6791 163.613 63.0211 162.268 55.7041 160.53 49.0711 156.785 44.1941 151.055ZM239.406 141.895C242.253 140.13 245.643 143.625 243.96 146.448 239.635 153.691 227.102 154.281 219.831 152.547 219.262 152.413 219.393 151.52 219.969 151.536 224.148 151.639 227.924 150.836 231.525 148.656 234.6 146.793 236.436 143.735 239.406 141.895ZM100.443 83.9957 99.872 84.0006C93.224 84.1076 87.136 86.6426 80.73 87.9826 80.199 88.0946 79.666 88.0376 79.185 87.8616 71.383 93.0666 66.005 101.251 65.275 112.02 64.769 119.479 66.59 127.606 71.019 133.727 76.0601 140.693 84.1809 141.768 92.1783 141.976L92.991 141.995C108.109 142.29 124.741 141.397 130.13 124.495 134.118 111.986 129.859 96.7996 118.75 89.3066 113.355 85.6676 106.911 83.9896 100.443 83.9957ZM222.242 92.9666 221.798 92.4489C215.869 85.6457 206.467 79.4493 197.198 82.8756L197.225 84.0214C197.228 84.2125 197.23 84.4036 197.23 84.5946 197.202 97.7326 192.111 109.994 179.598 113.849 182.955 118.638 185.652 123.952 187.812 129.467 188.574 128.969 189.501 128.653 190.577 128.544 194.982 128.098 197.506 132.235 201.326 133.778 204.902 135.224 208.958 135.597 212.733 134.85 220.991 133.217 226.785 126.096 228.815 118.194 231.11 109.261 228.078 99.8956 222.242 92.9666ZM96.5345 104.024C99.2884 99.372 106.082 100.045 108.805 104.146L108.936 104.351 108.965 104.313C113.501 110.191 111.309 119.475 104.723 122.78 99.4395 125.429 92.7205 124.734 89.2085 119.577 88.4215 118.421 87.9165 117.061 87.7315 115.684 87.6055 114.747 87.6775 113.811 87.8875 112.88L87.8344 113.098C87.9385 112.628 88.1035 111.891 88.1465 111.716 88.6105 109.82 89.7235 107.786 91.1165 106.413 92.5515 104.999 94.5445 104.139 96.5345 104.024ZM209.703 99.1917C212.142 99.1917 214.306 100.212 216.068 101.829 218.574 104.13 218.923 107.442 218.382 110.585 218.216 111.544 217.988 112.471 217.749 113.415L217.543 114.268C217.507 114.41 217.468 114.551 217.425 114.69 217.275 115.275 217.036 115.812 216.752 116.326 215.709 120.209 211.486 122.137 207.763 121.29 206.011 120.891 204.264 119.437 203.372 117.913 203.078 117.411 202.872 116.911 202.726 116.409L202.001 114.69 202.001 114.69C201.865 114.278 201.78 113.836 201.671 113.415 201.428 112.472 201.194 111.543 201.025 110.585 200.45 107.337 200.908 104.259 203.339 101.829 204.971 100.196 207.396 99.1917 209.703 99.1917ZM155.98 65.5082C160.213 64.9402 164.524 66.9122 166.713 70.6512 168.615 73.9012 168.607 78.2742 166.713 81.5242L166.553 81.7992 166.553 81.7992C163.064 87.7852 154.927 88.5532 150.032 83.9282L149.795 83.7042 149.795 83.7042C146.647 80.7312 145.938 75.8002 147.568 71.9382 149.058 68.4062 152.182 66.0192 155.98 65.5082Z" id="🖍-Ink" fill="#000000"/></g></svg>