<svg width="473" height="567" viewBox="0 0 473 567" xmlns="http://www.w3.org/2000/svg" xmlns:xlink="http://www.w3.org/1999/xlink" overflow="hidden"><g id="head/mono/Turban" fill="none" fill-rule="evenodd"><path d="M463.871 255.553C454.72 205.654 432.156 158.175 397.503 121.026 393.504 116.615 389.911 109.657 383.809 108.545 377.684 96.064 366.009 87.241 356.676 77.162 336.305 56.851 316.815 34.154 290.54 21.328 168.671-28.794 51.3942 114.122 26.5072 221.603 1.7882 308.04 28.7862 427.278 135.908 430.776 151.063 450.82 171.975 464.694 193.456 477.085 222.791 495.867 254.791 503.491 288.729 493.039 322.528 501.871 357.565 473.529 377.877 448.673 393.932 429.42 404.936 405.923 419.621 385.994 436.958 385.561 451.94 370.881 454.261 353.674 470.454 323.917 469.718 288.259 463.871 255.553L463.871 255.553Z" id="🎨-Background" fill="#FFFFFF"/><path d="M198.415 4.3458C220.59-0.8352 243.845 0.2388 265.81 5.9328 309.345 17.2198 345.166 46.5708 374.867 79.2958 403.838 111.216 427.729 147.808 445.178 187.227L446.062 189.232C458.405 217.332 469.13 246.538 469.59 277.479 469.986 304.108 467.296 331.85 458.693 357.178 451.029 379.741 436.932 402.477 412.679 407.886 398.694 443.434 371.334 474.218 336.869 490.69 315.493 500.907 292.018 505.468 268.384 503.2 244.271 500.888 221.748 489.302 202.903 474.527 202.386 474.122 203.051 473.337 203.584 473.643 226.273 486.718 253.107 491.392 279.095 490.532 321.803 489.12 360.956 466.069 383.454 429.836 389.052 420.818 394.04 411.306 398.019 401.411 397.786 400.597 397.651 399.772 397.651 398.968 397.651 395.559 399.269 392.954 401.683 391.271 402.802 387.774 403.792 384.237 404.619 380.66 406.494 372.558 407.54 364.339 408.171 356.054 408.683 349.323 408.399 342.182 409.075 335.279 408.829 329.748 408.487 324.222 407.986 318.708 406.373 300.94 403.111 283.216 396.828 266.47 390.463 249.508 380.411 234.55 367.729 221.675 340.527 194.061 306.659 173.899 280.208 145.531L278.823 144.031 278.729 144.001C275.447 147.366 272.167 150.731 268.878 154.089L253.852 169.416C223.182 200.732 192.761 232.352 166.08 267.2 150.717 287.267 136.914 308.302 125.021 330.608 119.389 341.173 114.282 352 109.667 363.046L107.85 367.443C105.689 372.706 103.353 378.596 102.056 384.539 105.916 388.368 108.739 393.995 111.861 398.341 115.402 403.27 119.486 407.962 123.688 412.341 127.941 416.774 132.606 421.023 137.558 424.664L138.153 425.093C143.835 429.125 150.357 431.91 151.209 439.586 151.579 442.919 148.599 445.6 145.84 446.638 138.287 449.475 130.463 441.325 125.429 436.637 122.29 433.713 119.404 430.562 116.728 427.235 114.123 427.608 111.501 427.795 108.906 427.487 104.885 427.009 100.903 426.306 96.9861 425.276 64.4981 416.746 40.4511 389.776 27.4771 359.739 10.0591 319.413 10.4641 272.928 17.7051 230.284 30.9361 152.354 73.7581 79.5758 138.419 33.5008 156.528 20.5968 176.609 9.4398 198.415 4.3458ZM233.418 14.7708C191.646 12.5698 153.562 34.1098 123.007 60.9228 67.3731 109.743 33.1051 181.223 26.2111 254.626 22.5481 293.626 25.2891 335.663 45.6251 370.12 53.5151 383.489 63.6771 395.138 75.6721 404.96 86.9751 414.217 99.8591 419.552 113.633 423.182 113.006 422.318 112.387 421.448 111.785 420.565 108.581 415.874 106.036 410.888 103.904 405.664 103.716 405.852 103.362 405.89 103.153 405.603 94.4591 393.674 97.1801 379.44 101.324 366.322 105.669 352.563 111.176 339.175 117.461 326.188 140.37 278.86 174.444 237.629 209.814 199.154 227.878 179.505 246.541 160.425 265.135 141.28 274.421 131.72 283.682 122.132 292.826 112.434 297.377 107.606 301.9 102.753 306.382 97.8608 310.814 93.0238 314.802 87.9008 320.32 84.2778 324.719 81.3908 329.11 86.9088 327.054 91.0128 323.892 97.3251 318.454 102.329 313.642 107.462L313.146 107.994C308.455 113.058 303.72 118.081 298.957 123.077 293.479 128.823 287.958 134.53 282.42 140.222 287.143 139.675 291.922 139.36 296.617 138.647 302.993 137.679 309.283 136.253 315.541 134.702 322.136 133.069 328.646 130.984 334.929 128.392 340.832 125.958 346.411 122.058 352.906 121.676 358.404 121.352 360.121 128.159 357.075 131.741 352.877 136.677 345.329 138.62 339.192 140.452L338.325 140.714C331.536 142.786 324.589 144.341 317.567 145.38 308.328 146.748 297.65 147.374 287.765 145.974 307.505 157.548 325.67 171.892 343.783 185.881L346.979 188.345C364.676 201.961 381.948 216.639 394.566 235.268 406.344 252.659 413.456 272.906 417.447 293.421 419.416 303.542 420.715 313.77 421.587 324.041 424.836 333.147 424.314 343.974 423.496 353.989L423.204 357.446 423.226 358.46C423.348 364.724 425.865 378.671 419.937 383.401 419.836 383.905 419.742 384.412 419.636 384.916 420.374 384.46 421.103 383.991 421.826 383.509 422.123 383.31 422.411 383.091 422.702 382.876L423.521 382.203C423.552 382.177 423.579 382.154 423.601 382.135 425.441 380.52 427.196 378.834 428.832 377.011 431.855 373.642 434.729 369.361 437.451 364.429 443.432 353.589 447.253 341.805 450.208 329.621 455.61 307.346 457.839 283.421 455.375 260.577 455.031 257.388 454.325 253.39 453.23 249.288 450.63 239.548 447.639 229.911 444.29 220.404 437.591 201.385 429.379 182.934 419.804 165.19 400.358 129.15 375.338 95.8298 345.36 67.8688 315.001 39.5518 275.63 16.9948 233.418 14.7708ZM174.51 129.921C176.016 129.001 177.566 130.788 176.819 132.23 173.202 139.209 167.12 145.101 162.068 151.081 156.837 157.273 151.644 163.499 146.464 169.734 135.916 182.429 125.621 195.357 115.732 208.573L113.121 212.069C104.427 223.739 95.8388 235.595 88.2388 247.995 84.2628 254.482 80.7588 261.191 77.5768 268.1 74.5478 274.677 73.1508 282.616 69.5108 288.794 69.2818 289.184 68.5718 289.152 68.4838 288.659 67.2958 282.007 70.2308 273.995 72.3278 267.766 74.8208 260.358 78.3688 253.302 82.1668 246.487 90.0888 232.271 99.5808 218.946 109.117 205.782 118.802 192.415 128.857 179.321 139.406 166.623 144.36 160.658 149.427 154.813 154.644 149.083L156.608 146.94C162.073 141.012 167.581 134.151 174.51 129.921ZM149.185 109.254C151.662 107.419 153.776 111.169 152.196 113.157 142.757 125.031 132.017 135.7 121.687 146.774 111.767 157.409 102.285 168.442 93.3381 179.909 75.0951 203.292 60.4921 228.95 48.1241 255.841 47.8911 256.348 47.1571 255.97 47.2671 255.48 53.8182 226.393 69.134 199.975 86.5729 176.106L87.2361 175.201C104.875 151.198 125.151 127.069 149.185 109.254Z" id="🖍-Ink" fill="#000000"/></g></svg>