<svg width="289" height="293" viewBox="0 0 289 293" xmlns="http://www.w3.org/2000/svg" xmlns:xlink="http://www.w3.org/1999/xlink" overflow="hidden"><g id="face/Blank" fill="none" fill-rule="evenodd"><path d="M181.735 212.81C182.429 212.622 183.04 213.554 182.465 214.064 180.111 216.153 178.616 220.045 176.898 222.698 175.264 225.222 173.689 227.72 172.252 230.362 170.641 233.323 169.085 236.273 167.831 239.406L167.583 240.038 167.583 240.038C167.959 240.932 168.252 241.814 168.469 242.392L168.531 242.556C170.673 248.026 166.177 254.105 161.106 255.634 152.432 258.249 144.99 251.126 144.783 242.655 144.62 235.991 149.137 230.053 153.727 225.648 157.742 221.795 162.238 218.515 167.267 216.112 169.486 215.053 171.791 214.167 174.2 213.653 176.664 213.128 179.322 213.462 181.735 212.81ZM165.387 236.96C166.023 237.26 166.566 237.993 167.023 238.849 166.795 238.123 166.324 237.401 165.387 236.96ZM170.814 144.367C178.366 148.957 189.872 159.66 181.748 171.04 172.186 181.073 158.419 169.569 151.634 164.366 145.343 160.334 138.275 170.705 144.112 175.413 193.136 211.708 213.031 145.567 174.634 138.97 170.406 138.243 168.836 142.947 170.814 144.367ZM108.741 100.292 110.075 100.18C115.862 99.6704 121.722 98.893 127.429 100.202 135.096 101.962 134.534 113.116 127.429 115.167 121.167 116.974 114.228 116.192 107.764 116.254 106.747 116.264 105.732 116.29 104.716 116.307 104.516 118.724 103.723 120.808 102.509 122.89 101.639 124.384 100.529 125.803 99.4371 127.13 96.8411 130.284 90.7181 130.213 88.0981 127.13 86.1601 124.848 84.6171 122.223 84.5921 119.134 84.5861 118.343 84.6821 117.503 84.8711 116.677L81.343 116.739C72.708 116.871 64.0069 116.812 55.5281 115.44 52.5121 116.064 50.0441 110.622 54.2071 108.993 65.5241 104.567 78.1671 103.264 90.1761 101.935 96.3471 101.251 102.552 100.78 108.741 100.292ZM205.153 95.7185 205.46 95.6879C212.949 94.9209 221.204 93.5929 228.708 94.3569 239.913 95.4959 239.893 110.642 228.708 111.775 224.602 112.191 220.277 111.989 215.962 111.591 218.167 116.269 215.551 121.856 210.238 122.57 205.301 123.233 200.184 118.435 201.804 113.289L201.88 113.062C202.195 112.169 202.48 111.171 202.816 110.186L201.03 110.035C195.689 109.563 188.276 108.599 186.311 104.382 185.717 103.111 185.855 101.931 186.768 100.845 190.512 96.3886 199.741 96.2419 205.153 95.7185L205.153 95.7185ZM125.517 61.0405C130.937 59.0715 136.57 63.6795 137.273 68.8725 138.082 74.8568 133.766 78.7967 128.295 79.5115L128.021 79.5445C115.945 80.8745 103.96 83.3065 91.8679 84.6815 86.3761 85.3051 80.8429 85.7156 75.3143 85.8632L71.3633 85.9519C66.5217 86.0743 61.3287 86.1847 56.8589 84.5175L56.8759 84.4875 56.8759 84.4875C55.6889 84.1435 55.1429 82.4315 56.4639 81.4955 61.2229 78.1305 67.6379 76.8585 73.1779 75.2595 78.7479 73.6505 84.3589 72.1675 89.9849 70.7745 101.799 67.8525 114.071 65.1985 125.517 61.0405ZM175.503 62.4394C176.939 54.8684 187.664 54.0564 191.603 59.5654 194.149 60.4394 197.882 61.3514 200.195 62.0374 204.225 63.2324 208.258 64.4204 212.3 65.5714 220.67 67.9554 228.838 70.9774 237.067 73.7944 237.915 74.0854 237.682 75.1614 236.867 75.2684 225.382 76.7631 214.089 77.4588 202.534 76.9795L200.165 76.8728C189.983 76.4761 172.698 77.2329 175.503 62.4394Z" id="🖍-Ink" fill="#000000"/></g></svg>