<svg width="280" height="230" viewBox="0 0 280 230" xmlns="http://www.w3.org/2000/svg" xmlns:xlink="http://www.w3.org/1999/xlink" overflow="hidden"><g id="facial-hair/Moustache-1" fill="none" fill-rule="evenodd"><path d="M229.945 33.9998C241.659 34.8308 252.739 42.0988 262.816 47.7168 272.514 53.5108 279.692 62.0952 285.426 71.6662L285.798 72.2918C286.134 72.7906 285.535 73.3516 285.042 73.1612L284.965 73.1248C275.448 68.3498 265.406 64.4798 256.062 59.2708 246.938 53.6298 235.734 51.7018 226.541 46.5708 221.287 42.6758 222.864 34.3008 229.945 33.9998ZM199.476 39.6831C199.903 42.3551 198.824 46.5961 195.316 47.8351 189.153 50.0092 183.54 51.1813 177.35 52.8774L169.325 55.1249C153.91 59.4669 138.264 64.128 124.617 70.9681L124.189 70.7801C114.276 64.5781 169.04 38.7041 187.949 34.5821 191.423 33.8241 198.831 35.6511 199.476 39.6831Z" id="🖍-Ink" fill="#000000"/></g></svg>