<svg width="1645" height="2500" viewBox="0 0 1645 2500" xmlns="http://www.w3.org/2000/svg" xmlns:xlink="http://www.w3.org/1999/xlink" overflow="hidden"><g id="pose/standing/walking-2" fill="none" fill-rule="evenodd"><path d="M1212.24 2373.58C1219.27 2340.82 1187.09 2329.75 1166.8 2322.46 1152.26 2313.03 1098.41 2280.38 1056.74 2240.08 1022.64 2207.1 999.432 2164.83 989.77 2160.8 983.139 2156.96 979.48 2153.61 978.791 2150.75 972.739 2125.64 977.787 2102.23 978.791 2087 998.189 2081.91 1013.73 2075.56 1025.36 2066.67 1028.75 2067.8 1033.83 2069.25 1035.35 2064.29 1045.85 1994.2 1050.39 1924.93 1058.93 1854.78 1091.29 1587.6 1094.94 1275.46 1039.28 1031.43 1038.69 1019.34 1039.75 1008.41 1040.82 998.019 1048.35 997.206 1052.9 989.92 1059.05 985.565 1068.59 977.984 1079.88 972.158 1079.42 958.908 1081.68 957.192 1081.42 956.227 1080.3 954.041 1087.58 922.751 1055.12 889.779 1045.94 863.983 1062.63 700.789 1039.93 546.574 1052.59 383.341 1068.59 376.647 1057.83 334.809 1056.74 317.552 1047.88 206.378 990.087 96.4602 886.017 60.1412 880.068 58.9352 871.126 52.1352 866.203 56.7012 856.689 52.9322 844.031 60.3632 836.668 51.8082L836.742 51.7522C830.542 43.1552 827.763 32.2262 825.725 21.8922 826.066 24.8042 826.635 27.6922 827.336 30.5152 809.395-20.0488 804.875-33.5688 747.118-35.9498 721.101-36.2978 686.805-35.5168 671.635-10.7028 665.419 0.832225 667.318 14.0772 663.46 26.2192 656.378 48.5002 625.808 37.7332 609.759 49.3032 481.311 90.5012 375.952 174.593 341.321 309.566 334.241 325.834 326.211 342.025 320.292 358.814 319.376 361.306 316.856 369.739 322.908 373.62L325.835 375.497C287.281 555.698 284.723 707.542 414.25 827.675 423.97 879.296 398.965 949.791 408.577 999.911 403.1 1007.68 410.045 1013.94 417.047 1014.44 417.722 1014.82 420.45 1016.01 421.194 1016.35 410.051 1173.66 456.835 1385.67 477.457 1469.34 480.264 1519.58 463.117 1560.85 427.843 1588.23 388.87 1612.24 311.82 1720.65 326.104 1834.37 309.411 1837.65 292.839 1839.44 276.824 1845.72 206.75 1833.35 207.445 1968.44 202.98 2015.94 195.418 2095.47 190.718 2210.74 266.271 2261.65 286.175 2276.09 326.533 2292.99 347.214 2269.88 353.991 2261.74 355.688 2253.87 353.022 2245.56 387.172 2197.31 377.969 2134.2 381.106 2077.61 391.009 2077.01 401.37 2081.66 410.949 2079.97 420.781 2071.3 384.913 2073.66 381.193 2073.15 381.574 2064.43 382.276 2055.24 383.182 2046.44 388.808 2047.57 396.015 2050.27 401.425 2050.47 404.627 2051.25 406.89 2046.84 404.957 2044.56 400.735 2040.53 389.97 2041.16 383.912 2040.58 384.935 2033.22 386.186 2025.48 387.576 2018.35 394.987 2018.09 402.64 2022.81 409.657 2021.84 404.346 2018.3 394.377 2019.38 387.903 2017.04 392.113 1994.1 400.691 1972.32 408.666 1950.86 428.234 1958.93 445.115 1959.25 464.218 1956.83 472.032 1958.03 475.842 1956.43 477.107 1946.66L476.608 1946.04C491.749 1855.44 540.607 1769.07 631.36 1671.12 649.286 1651.06 669.543 1627.43 683.04 1601.02 710.161 1546.06 714.793 1485.41 735.69 1428.33 755.2 1370.96 781.877 1316.08 806.924 1261.7 810.597 1289.57 815.531 1318.16 820.66 1345.5 843.234 1442.35 841.046 1545.68 824.433 1643.07 799.853 1779.48 811.701 1916.53 806.234 2053.9 806.309 2061.82 807.291 2069.02 806.129 2077.26 805.975 2077.9 806.275 2078.65 807.027 2078.63L808.446 2078.67C820.26 2087.32 836.576 2088.88 850.458 2093.58 856.288 2098.19 854.646 2105.5 855.18 2111.2 856.705 2135.77 858.655 2160.44 856.235 2185.76 845.523 2206.29 832.22 2202.05 829.499 2230.98 827.117 2264.01 822.903 2299.14 838.989 2328.55L832.903 2329.6C823.871 2348.56 829.385 2360.86 850.613 2368.88 955.411 2409.97 1102.88 2447.27 1212.24 2416.26 1214.22 2418.23 1217.11 2416.18 1219.37 2413.09 1221.55 2410.11 1223.14 2406.16 1222.78 2403.87 1220.91 2393.81 1223.48 2375.44 1212.24 2373.58Z" id="🎨-Background" fill="#FFFFFF"/><path d="M1216.73 2406.49C1122.56 2448.77 951.558 2395.42 859.029 2364.55 834.08 2355.54 825.768 2353.78 832.758 2325.02 845.839 2350.26 873.969 2356.36 900.919 2361.42 992.208 2382.23 1085.28 2420.65 1182.91 2401.9 1197.24 2399.65 1211.42 2391.89 1215.59 2377.57 1218.16 2383.64 1216.57 2391.86 1217.6 2398.53 1217.79 2401.19 1217.85 2404.07 1216.73 2406.49M835.859 2249.2C837.558 2232.24 840.279 2214.33 849.929 2199.35 848.878 2223.58 863.429 2264.76 895.308 2251.04 904.339 2246.26 909.399 2236.62 915.208 2228.88 934.518 2203.42 959.279 2181.31 987.25 2165.25 1002.81 2167.93 1009.5 2196.38 1019.53 2208.29 1008.35 2213.27 988.089 2224.62 986.039 2236.37 1000 2231.67 1012.85 2222.92 1027.49 2219.85 1032.18 2226.32 1037.15 2232.6 1042.37 2238.66 1035.55 2241.67 1008.05 2255.57 1008.23 2262.51 1023.1 2260.09 1037.51 2252.81 1052.46 2249.82 1059.11 2256.42 1065.16 2263.51 1071.78 2270.13 1061.78 2274.25 1051.22 2278.85 1045.76 2288.45 1045.5 2288.88 1046.14 2289.37 1046.49 2288.95 1053.98 2279.92 1066.87 2278.26 1078.04 2276.23 1095.18 2292.37 1114.37 2306.6 1135.85 2317.25 1157.34 2329.01 1190 2331.69 1198.55 2357.18 1205.39 2382.67 1184.06 2385.39 1164.38 2387.19 1144.47 2390.02 1124.42 2390.45 1104.64 2388.8 1042.81 2386.22 984.359 2368.02 925.929 2352.11 854.49 2338.96 831.308 2328.32 835.859 2249.2M861.229 2100.81C899.08 2105.97 937.958 2102.79 974.929 2093.66 972.372 2104.26 970.633 2115.04 969.571 2125.89L969.656 2125.89C969.279 2129.34 968.331 2133.8 968.299 2138.04 968.539 2144.28 968.448 2151.89 972.229 2157.08 944.859 2177.33 918.138 2199.88 899.128 2228.11 886.549 2251.09 869.808 2237.1 865.649 2218.7 862.979 2186.15 864.235 2155.1 862.911 2123.89L862.792 2123.91C862.448 2116.2 861.964 2108.5 861.229 2100.81M856.808 2100.17C856.638 2101.29 856.49 2102.41 856.33 2103.54 856.128 2102.35 855.99 2101.15 855.698 2099.98 856.07 2100.04 856.438 2100.11 856.808 2100.17M837.74 2083.7C831.409 2081.77 825.12 2079.72 818.849 2077.61 817.308 2077.11 814.75 2076.96 813.929 2075.41 837.268 2026.77 823.58 1970.25 824.679 1918.26 816.529 1776.5 849.039 1637.24 853.688 1496.33 853.32 1416.47 825.57 1340.37 811.479 1262.37 825.888 1231.54 839.32 1200.36 852.349 1169 852.768 1168.05 851.159 1167.46 850.638 1168.31 835.279 1191.92 819.979 1215.53 805.74 1239.79 736.82 1342.49 705.83 1459.6 673.188 1576.38 662.609 1602.98 645.628 1626.42 626.768 1648.23 548.518 1732.76 475.479 1829.19 457.25 1943.41 384.629 1940.99 363.65 1896.43 338.289 1840.22 338.358 1840.01 338.428 1839.8 338.5 1839.59 337.589 1838 336.958 1836.3 336.458 1834.54 336.229 1834.72 336 1834.91 335.768 1835.1 318.829 1802.71 342.798 1735.17 355.629 1701.37 372.439 1663.8 395.069 1628.85 424.909 1599.81 446.888 1580.29 469.638 1559.01 479.059 1531.02 494.779 1487.24 480.9 1438.34 472.089 1394.35 450.798 1285.26 430.15 1117.44 433.418 1006.06 460.629 973.648 508.349 976.848 546.518 969.148 557.669 979.648 567.179 992.018 581.099 998.808 597.299 1013.93 613.089 1029.77 624.99 1048.29 638.25 1073.58 655.008 1095.55 678.518 1112.57 690.399 1121.96 707.529 1135.58 724.138 1129.83 735.929 1125.99 742.479 1114.13 754.089 1110.15 768.039 1107.31 776.399 1106.28 784.628 1093.75 794.558 1091.79 804.029 1086.92 801.128 1075.4 803.729 1076.28 806.33 1077.13 808.888 1078.02 814.08 1079.82 819.679 1074.23 817.948 1069.35 813.669 1059.27 808.708 1049.33 807.039 1038.43 805.289 989.878 792.768 976.508 748.169 957.048 766.018 956.158 783.508 960.528 800.448 965.368 885 996.298 940.448 1015.36 1028.55 976.528 1071.4 1333.21 1070.69 1696.9 1018.02 2052.36 967.768 2089.52 897.729 2088.53 837.74 2083.7M330.49 1877.94C330.659 1876.48 330.849 1875.03 331.048 1873.57 341.638 1902.34 359.779 1929.68 386.789 1946.34 376.448 1959.24 356.309 1963.08 342.719 1952.52 319.018 1934.75 328.9 1902.6 330.49 1877.94M375.559 2012.07C365.039 2011.26 320.048 2009.71 314.65 2016.77 320.729 2019.34 329.089 2017.92 335.629 2018.21 348.329 2018.73 361 2019.85 373.569 2021.63 372.629 2026.53 371.779 2031.42 371.079 2036.33 358.4 2037.54 333.708 2038.09 325.659 2046.96 340.018 2049.25 354.969 2047.19 369.379 2050.05 368.678 2056.77 368.168 2063.5 367.789 2070.23 362.048 2070.84 328.289 2076.43 328.319 2081.74 340.958 2083.42 354.349 2081.21 367.229 2082.46 364.439 2122.79 373.9 2244.58 318.779 2252.03 270.589 2249.49 249.449 2171.39 242.9 2133.92 228.378 2046.62 230.87 1953.54 259.65 1869.39 269.928 1845.99 297.909 1841.93 321.569 1840.72 322.469 1844.68 323.358 1848.57 324.358 1852.49 314.099 1875.75 310.829 1901.94 310.548 1927.11 312.719 1963.29 357.358 1990.19 389.779 1966.29 383.719 1981.09 379.039 1996.49 375.559 2012.07M311.789 2272.34C216.339 2251.82 200.678 2141.28 207.24 2060 212.589 2003.42 206.16 1884.13 258.388 1850.89 190.889 1912.51 196.749 2332.01 346.339 2258.79 342.608 2270.61 323.428 2274.02 311.789 2272.34M419.428 1019.77C420.039 1019.57 420.638 1019.3 421.189 1018.97 421.048 1032.93 421.268 1046.89 421.779 1060.83 420.798 1047.15 420.018 1033.46 419.428 1019.77M411.559 807.238C284.159 680.288 308.469 536.338 337.729 377.768 384.958 383.408 432.448 394.738 474.979 415.538 459.979 485.528 459.018 548.968 452.559 619.988 450.608 628.768 452.809 645.678 465.25 641.778 579.599 732.568 592.888 919.138 742.948 973.088 804.109 997.948 778.299 1018.13 798.508 1065.07 787.388 1063.03 777.469 1053.71 772.688 1044.79 770.32 1040.36 763.419 1044.26 765.729 1048.68 770.708 1058.19 779.07 1065.84 788.979 1070.62 787.758 1073.02 787.339 1075.72 787.208 1078.25 769.359 1081.9 774.378 1090.37 762.32 1094.41 754.429 1096.59 746.839 1097.52 740.018 1102.3 716.808 1123.92 711.049 1122.33 686.138 1103.31 686.479 1101.59 652.58 1068.48 642.08 1049.97 633.33 1034.53 624.169 1018.98 610.758 1007.04 545.089 939.798 475.129 876.338 411.559 807.238M1037.43 385.018C1030.92 474.778 1032.6 554.958 1034 644.858 1034.81 705.328 1035.19 765.818 1033.09 826.268 979.859 688.688 996.149 539.398 988.589 394.788 1004.32 389.548 1021.22 387.258 1037.43 385.018M655.849 39.9976C655.659 40.3276 655.458 40.6576 655.258 40.9776 653.938 41.0676 652.609 41.1876 651.258 41.3376 652.789 40.8776 654.32 40.4476 655.849 39.9976M837.24 50.5576C837.188 50.4076 837.138 50.2576 837.099 50.1176 837.219 50.1876 837.339 50.2676 837.469 50.3476 837.37 50.4076 837.308 50.4776 837.24 50.5576M1226 2388.98C1225.74 2381.82 1225.64 2372.58 1217.26 2370.04 1221.06 2339.2 1195.46 2321.64 1168.58 2313.1 1145.66 2299.08 1119.67 2289.28 1098.61 2272.38 1108.39 2270.54 1118.17 2268.32 1126.86 2264.07 1133.42 2260.86 1130.26 2250.17 1123.15 2251.16 1110.56 2252.82 1099.25 2259.22 1087.42 2263.67 1080.7 2258.15 1074.19 2252.39 1068.04 2246.29 1075.7 2244.81 1085.44 2245.35 1089.9 2237.75 1091.29 2235.37 1090.67 2232.9 1088.99 2231.07 1081.23 2223.21 1065.85 2231.06 1056.21 2233.34 1051.58 2228.01 1047.11 2222.56 1042.72 2217.06 1050 2216.39 1068.94 2217.72 1065.23 2205.7 1058.12 2196.3 1042.83 2201.94 1032.55 2203.87 1019.51 2187.84 1015.31 2163.24 994.929 2154.42 994.198 2150.53 989.12 2150.83 985.729 2151.98 983.588 2141.76 982.438 2133.69 981.935 2125.89L981.685 2125.87C981.461 2114.45 981.899 2103 982.58 2091.63 997.708 2087.44 1012.72 2081.94 1025.3 2072.92 1031.08 2074.62 1038.09 2072.66 1039.29 2065.87 1049.75 1996.33 1054.4 1925.93 1062.91 1856.14 1093.94 1599.13 1100.7 1285.43 1043.26 1031.52 1042.81 1021.9 1043.49 1012.27 1044.46 1002.72 1051.31 1000.89 1055.39 994.198 1061.06 990.328 1071.6 981.738 1082.32 976.928 1083.29 961.938 1085.42 959.908 1085.67 956.838 1084.5 954.178 1087.23 938.788 1083.21 923.508 1075.02 910.208 1066.04 895.058 1057.56 879.768 1050.07 863.868 1066.45 703.608 1044.23 548.288 1056.38 387.228 1071.96 378.978 1062.18 333.138 1060.73 317.858 1051.63 217.508 1004.78 106.708 905.169 64.9676 898.179 59.0676 888.419 57.0676 879.878 53.8176 874.109 50.9776 864.719 48.5176 860.768 55.1276 856.58 53.1776 843.089 51.6876 838.469 48.3076 837.609 47.6776 837.058 46.9876 836.929 46.2176 836.589 46.2276 836.188 46.1576 835.758 46.0676 831.5 40.0476 827.438-1.8824 822.188 1.1076 816.458 15.5076 820.429 31.7776 825.909 46.3176 829.688 59.1776 834.87 92.2576 854.948 83.7976 858.409 82.0776 856.268 77.6076 853.169 77.2476 843.649 74.5276 841.529 60.5376 837.849 52.3376 842.208 55.9576 862.07 61.3876 864.24 62.5376 907.32 161.418 646.849 156.228 626.37 88.0576 611.768 64.5076 624.37 51.7476 650.399 47.9676 631.268 69.2276 655.49 73.9476 664.698 53.0976 673.508 38.1676 677.518 20.0276 674.508 2.8476 676.058-3.1824 677.37-11.2424 668.349-9.6224 668.039-10.4224 667.549-9.7924 667.74-9.2224 664.448-3.9824 666.74 3.5476 665.57 9.5976 664.58 19.4976 661.768 29.1976 657 37.9576 648.149 39.6476 639.339 41.4576 630.57 43.4376 625.308 32.7476 591.188 54.0676 582.029 56.5776 460.339 92.5276 367.798 188.268 335.5 309.028 328.289 325.108 320.509 341.268 314.608 357.848 311.969 365.028 311.969 373.938 319.219 378.588 283.888 540.658 275.268 709.518 408.74 831.078 411.768 844.238 409.75 858.198 409.659 871.598 410.779 902.118 384.698 1006.72 414.99 1020.25 406.138 1155.75 439.329 1340.12 471.5 1470.84 473.879 1515.77 460.329 1556.64 423.858 1584.99 354.518 1636.83 325.309 1723.36 317.198 1805.82 316.048 1814.27 317.178 1822.87 319.079 1831.17 304.048 1833.97 289.979 1835.79 275.388 1841.3 194.919 1825.88 200.66 1998.77 194.499 2050.07 189.678 2125.91 192.689 2216.82 262.379 2266.48 285.809 2283.16 327.168 2299.18 350 2273.92 356.458 2266.19 359.979 2257.15 357.439 2247.27 390.168 2199.34 382.439 2138.08 384.888 2083.54 393.458 2083.84 402.798 2087.66 411.24 2085.56 417.74 2083.84 418.569 2075.5 413.069 2072.18 405.129 2067.68 394.339 2069.39 385.458 2069.09 385.729 2063.87 386.12 2058.65 386.62 2053.43 395.048 2055.49 407.129 2060.44 409.638 2048.66 410.65 2037.93 397.099 2037.11 388.659 2036.65 389.25 2032.6 389.909 2028.57 390.659 2024.55 397.12 2025.2 403.939 2029.32 410.289 2027.35 413.888 2025.93 415.138 2022.29 412.509 2019.34 407.62 2014.55 399.259 2015.51 392.789 2014.02 396.719 1994.77 403.819 1976.36 410.659 1957.95 423.039 1962.25 436.448 1965.09 449.659 1964.01 456.509 1962.57 463.99 1962.16 470.909 1963.09 478.608 1961.05 480.388 1952.82 481.4 1946.1 481.25 1945.86 481.099 1945.63 480.928 1945.42 498.719 1841.82 562.539 1752.32 634.099 1675.21 653.808 1653.15 673.138 1630.21 686.529 1604.01 713.729 1549.25 718.609 1487.64 739.419 1430.75 756.948 1379.09 780.378 1329.55 803.349 1279.94 812.558 1345.28 829.758 1409.55 831.729 1475.81 834.729 1559.64 816.258 1642.25 808.378 1725.41 794.208 1834.86 807.08 1944.99 800.24 2054.52 800.289 2062.27 801.289 2069.57 800.188 2077.32 799.58 2081.61 802.659 2084.3 805.899 2084.39 817.799 2092.2 832.75 2094.97 846.429 2098.31 850.219 2101.21 848.58 2108.35 849.25 2112.72 849.513 2117.12 849.791 2121.51 850.057 2125.89L850.088 2125.89C851.292 2144.38 852.214 2160.4 850.268 2180.55 836.888 2200.33 827.25 2197.17 823.529 2227.24 821.479 2258.64 816.969 2292.58 830.688 2321.08 824.549 2322.48 822.219 2341.22 823.138 2346.17 824.698 2360.16 837.029 2364.58 848.948 2369.41 936.058 2402.05 1121.15 2455.78 1210.66 2418.83 1217.07 2422.46 1224.22 2415.35 1226.29 2409.62 1229.03 2402.65 1226.51 2395.9 1226 2388.98" id="🖍-Ink" fill="#000000"/></g></svg>