<svg width="1534" height="1856" viewBox="0 0 1534 1856" xmlns="http://www.w3.org/2000/svg" xmlns:xlink="http://www.w3.org/1999/xlink" overflow="hidden"><defs><path d="M0 0.00167456 1304.94 0.00167456 1304.94 1579.99 0 1579.99Z" id="path-1"/></defs><g id="pose/sitting/one_leg_up-2" fill="none" fill-rule="evenodd"><path d="M822.162 829.317C824.401 852.677 819.823 874.985 808.918 893.845L805.37 899.981 812.123 902.342C824.413 906.641 838.08 908.73 853.906 908.73 870.193 908.73 887.13 906.462 900.739 904.639L909.452 903.472 905.172 895.904C901.73 889.821 901.093 882.45 900.418 874.646 900.236 872.55 900.049 870.382 899.803 868.238 886.908 752.977 870.608 636.212 854.845 523.293 850.696 493.579 846.407 462.853 842.246 432.629L830.31 433.089C827.099 489.033 823.983 545.922 820.97 600.938 819.645 625.131 818.319 649.324 816.983 673.514 812.22 734.671 813.865 784.191 822.162 829.317M827.033 1520.49C809.504 1520.49 791.941 1518.66 774.834 1515.06 721.301 1503.83 672.666 1477.32 631.282 1453.35 629.169 1452.15 627.025 1450.95 624.824 1449.72 608.622 1440.65 588.459 1429.38 575.823 1415.62 561.961 1400.52 559.575 1385.48 568.316 1368.28L569.699 1365.56 568.254 1362.87C559.203 1346.03 559.876 1325.18 569.89 1312.19L578.306 1301.27 564.469 1302.74C550.517 1304.22 536.455 1306.22 522.855 1308.16 507.766 1310.32 492.161 1312.54 476.793 1314.03L472.522 1314.45 471.54 1318.56C470.993 1320.85 470.318 1322.24 465.577 1322.24 461.466 1322.24 455.941 1321.04 450.094 1319.77 442.837 1318.18 434.611 1316.39 426.679 1316.39 423.19 1316.39 420.052 1316.72 417.084 1317.41L415.357 1317.81 414.128 1319.07C413.342 1319.87 412.004 1320.37 410.637 1320.37 409.603 1320.37 408.644 1320.08 408.003 1319.58L406.065 1318.07 403.606 1318.34C360.763 1323.04 323.82 1331.3 290.67 1343.57L290.52 1343.63 289.801 1343.94C277.814 1349.11 265.421 1354.46 254.134 1354.46 245.883 1354.46 239.183 1351.65 233.047 1345.63L231.313 1343.93 228.867 1343.9C204.049 1343.67 192.709 1314.73 191.141 1295.34L190.944 1292.9 189.052 1291.31C145.8 1255.01 120.266 1205.16 110.988 1138.91 102.538 1078.56 109.026 1014.93 116.487 960.647 133.746 819.971 151.747 693.86 197.505 574.253L199.643 568.662 193.946 566.615C174.183 559.514 159.079 551.041 147.77 540.712L146.987 539.995 146.001 539.59C129.793 532.931 121.855 508.35 119.808 500.976L119.644 500.381 119.358 499.833C116.051 493.49 115.288 484.665 117.266 475.622L117.478 474.648 117.355 473.658C116.287 465.072 119.832 456.095 123.585 446.591 125.3 442.249 127.072 437.762 128.367 433.292 132.819 420.518 137.266 407.518 141.568 394.944 151.22 366.734 161.199 337.563 171.83 309.186L173.284 305.306 170.081 302.631C164.613 298.064 166.439 292.687 174.324 279.832 176.187 276.796 177.949 273.923 179.289 271.093 189.396 253.628 200.228 236.863 211.49 221.257L211.722 220.937 211.907 220.59C269.696 112.662 372.203 53.2239 500.544 53.2239L503.16 53.2289 504.606 52.3589C528.66 37.8942 545.831 13.0751 557.1-23.5152L557.46-24.6816 557.321-25.8934C556.935-29.2658 556.512-33.6873 556.657-37.9779 557.024-48.8436 561.283-58.54 568.341-64.5812 581.732-76.043 602.061-77.0026 621.736-77.0026L624.561-77.0026C649.716-76.9258 667.475-72.5584 680.451-63.2512 695.527-52.4377 703.859-34.9819 705.924-9.88692 706.541-2.37773 706.52 5.4014 706.501 12.9244L706.496 15.0238 706.749 15.8573C708.557 21.8217 710.675 27.5526 713.043 32.8924L715.479 38.3859 721.019 35.9091C724.602 34.3081 729.144 33.4845 734.908 33.3919 736.57 33.3535 738.191 33.3357 739.826 33.3357 753.209 33.3357 767.525 34.5574 781.371 35.7386 791.803 36.6292 802.591 37.5504 813.033 37.9593L813.176 37.9652C813.176 37.9652 814.618 37.9563 815.265 37.9563 840.644 37.9563 859.042 41.9473 873.163 50.5176 888.368 59.744 899.301 74.5525 907.568 97.1205 951.91 226.48 970.14 365.818 986.22 488.748 995.341 553.034 998.115 618.938 1000.8 682.671 1003.63 749.943 1006.56 819.505 1016.93 887.503L1017.75 892.878 1023.25 892.523C1047.48 890.959 1073.67 887.591 1101.39 884.024 1143.51 878.607 1187.06 873.004 1229.17 873.004 1288.04 873.004 1332.67 884.588 1365.61 908.412 1388.56 930.046 1400.44 959.337 1399.95 993.141 1399.26 1040.9 1374 1093.71 1335.59 1127.67L1335.45 1127.8C1286.9 1173.66 1198.28 1213.44 1072.06 1246.03 955.992 1276 835.932 1292.28 774.695 1299.32L759.539 1301.07 771.841 1309.96C776.82 1313.56 781.363 1316.73 785.73 1319.65L788.547 1321.54 791.633 1320.12C800.433 1316.09 806.022 1315.24 809.163 1315.24 811.95 1315.24 815.312 1315.84 815.497 1318.73 815.618 1320.62 814.274 1323.42 811.437 1323.77L796.373 1325.65 808.673 1334.43C816.889 1340.29 829.147 1347.35 843.342 1355.53 889.781 1382.28 959.961 1422.72 947.891 1458.23L947.099 1460.56 948.221 1462.76C951.464 1469.12 951.741 1475.02 949.065 1480.8 943.335 1493.2 925.41 1502.6 910.187 1506.43L909.926 1506.49 909.671 1506.58C883.183 1515.81 855.379 1520.49 827.033 1520.49" id="Fill-1" fill="#FFFFFF"/><g id="Group-3" transform="translate(100 -54)"><mask id="mask-2" fill="#FFFFFF"><use width="100%" height="100%" xlink:href="#path-1"></use></mask><g id="Clip-2"></g><path d="M814.984 955.971C818.094 939.008 812.195 921.494 811.174 904.414 795.734 782.583 778.685 660.834 756.094 540.068 750.554 511.167 744.955 482.384 738.534 453.641 739.505 436.235 740.354 418.83 740.914 401.414 772.265 381.704 807.615 368.947 844.174 362.515 854.054 417.559 863.924 472.564 870.774 528.1 892.125 665.562 879.945 805.437 900.654 942.742 871.924 945.963 843.414 950.73 814.984 955.971M870.128 1063.06C848.523 1068.81 826.898 1074.3 805.12 1079.37 766.365 1088.4 727.622 1097.45 688.966 1106.88 669.672 1111.58 650.336 1116.15 631.081 1121 621.945 1123.31 612.867 1125.87 603.925 1128.84 599.464 1130.32 595.102 1132.02 590.742 1133.77 586.922 1135.29 583.318 1137.4 579.119 1137.1 578.869 1137.08 578.713 1136.84 578.836 1136.61 581.032 1132.58 585.56 1130.66 589.557 1128.62 593.964 1126.37 598.555 1124.43 603.151 1122.59 613.36 1118.49 623.994 1115.48 634.599 1112.56 673.143 1101.95 712.018 1092.45 750.852 1082.94 789.872 1073.39 828.894 1064.24 868.432 1057.01 872.416 1056.28 874.138 1062 870.128 1063.06M678.745 1389.68C680.474 1389.22 682.214 1388.8 683.945 1388.39 711.664 1411.47 842.214 1471.4 832.284 1507.2 828.774 1511.65 820.375 1512.66 815.063 1514.1 805.813 1516.6 796.474 1518.77 787.044 1520.49 756.563 1526.03 724.995 1527 694.554 1520.67 683.354 1518.97 673.245 1514.19 663.044 1509.57 630.084 1495.07 593.784 1479.05 560.984 1464.67 519.313 1448.15 446.224 1415.6 476.284 1360.66 504.764 1392.7 540.914 1389.9 559.125 1350.08 565.404 1338 570.883 1321.71 585.633 1316.82 593.414 1311.56 603.365 1310.47 609.865 1316.33 610.334 1315.6 610.755 1314.57 610.984 1313.67 618.313 1324.1 624.633 1335.08 633.224 1344.62 630.274 1344.77 599.575 1367.5 608.633 1367.51 619.534 1361.89 630.365 1357.22 642.133 1354.19 650.664 1362.77 660.044 1370.75 669.765 1378.13 660.325 1384.36 651.844 1392 645.024 1400.28 644.435 1401.01 645.154 1401.96 646.034 1401.56 656.625 1396.84 667.515 1392.7 678.745 1389.68M819.265 1544.47C713.234 1592.1 600.984 1539.06 510.564 1482.52 489.694 1470.87 462.245 1454.35 466.464 1426.92 481.835 1449.41 507.173 1462.21 531.495 1473.31 572.354 1491.78 613.484 1509.66 654.445 1527.9 658.313 1540.74 676.813 1541.23 687.995 1544.08 737.765 1553.73 791.265 1548.93 838.104 1529.69 835.393 1537.71 826.524 1541.4 819.265 1544.47M396.224 1359.02C393.604 1359.35 390.983 1359.66 388.365 1359.95 388.634 1356.49 386.544 1353.02 383.185 1351.95 384.694 1344.6 385.254 1337 384.444 1329.55 388.824 1340.86 402.964 1337.43 411.944 1334.16 424.775 1330.68 437.525 1326.93 450.204 1322.93 455.204 1332.22 460.504 1341.37 467.014 1349.78 443.314 1351.89 419.835 1356.07 396.224 1359.02M385.794 1323.42C385.164 1324.75 384.264 1326.16 384.245 1327.75 383.604 1322.25 382.354 1316.81 380.454 1311.6 382.233 1315.54 384.014 1319.48 385.794 1323.42M370.835 1293.9C359.173 1278.7 337.625 1266.28 317.704 1270.51 316.423 1270.79 316.393 1272.85 317.704 1273.1 344.464 1276.74 367.964 1297.96 368.893 1325.41 371.004 1337.83 362.365 1350.03 365.275 1361.94 364.694 1361.98 364.115 1362.01 363.544 1362.05 363.335 1362.85 363.143 1363.56 362.893 1364.18 365.784 1364.66 366.634 1369.31 363.224 1370.14 361.204 1370.63 359.094 1370.89 356.944 1371 346.034 1368.05 334.525 1367.37 324.094 1363.02 313.775 1358.46 316.354 1345.64 312.714 1336.77 310.044 1326.53 306.974 1316.34 303.104 1306.52 302.824 1305.73 301.754 1305.91 301.664 1306.7 298.935 1326.3 299.025 1346.22 299.685 1365.97 296.104 1366.34 292.544 1366.74 288.974 1367.18 289.204 1361.67 272.655 1294.46 263.935 1311.71 268.324 1330.67 268.854 1350.48 269.324 1369.99 243.434 1374.26 217.923 1380.61 193.105 1389.26 175.615 1394.56 154.814 1410.24 137.835 1396.06 124.685 1385.19 120.255 1366.22 121.494 1350.07 138.594 1254.56 273.655 1243.39 353.384 1250.46 360.914 1267.83 368.585 1285.15 376.354 1302.43 374.745 1299.45 372.905 1296.6 370.835 1293.9M98.9045 1348.21C97.4445 1326.52 101.093 1299.52 117.164 1283.36 153.945 1252.26 205.445 1242.48 251.404 1231.22 272.814 1226.99 294.514 1224.19 316.303 1222.79 324.034 1222.18 333.854 1223.93 339.314 1217.61 342.125 1224.27 344.974 1230.91 347.824 1237.56 256.324 1225.58 65.4235 1267.22 118.883 1392.57 107.563 1380.3 100.063 1365.37 98.9045 1348.21M35.0245 946.711C37.5845 928.094 40.3835 909.497 43.3435 890.929 55.4445 802.118 80.4545 715.681 95.3645 627.471 121.174 635.863 147.605 642.256 173.665 649.811 117.195 743.725 71.0045 843.45 35.0245 946.711M247.068 859.324C242.102 835.721 236.535 811.67 234.003 787.676 233.889 786.597 235.548 786.483 235.844 787.431 239.992 800.717 242.818 814.492 246.316 827.962 249.827 841.48 253.09 855.058 256.547 868.59 257.651 872.911 258.759 877.23 259.866 881.549 260.53 881.578 261.193 881.6 261.852 881.615 264.384 881.674 265.142 884.853 263.105 886.176 262.51 886.562 261.914 886.901 261.316 887.203 271.902 928.38 282.75 969.464 294.587 1010.33 308.382 1057.94 323.911 1104.98 336.323 1152.98 336.611 1154.1 336.096 1154.87 335.345 1155.21 341.801 1177.05 347.211 1199.18 353.112 1221.19 354.341 1225.77 347.573 1228.74 345.259 1224.45 341.697 1217.84 340.909 1208.81 339.165 1201.55 337.201 1193.37 335.333 1185.17 333.47 1176.97 330.504 1163.92 327.845 1150.71 325.651 1137.48 317.479 1116.95 310.161 1096.17 303.685 1075.01 289.182 1027.59 275.805 979.858 263.897 931.749 260.38 917.547 256.935 903.326 253.646 889.071 238.676 889.301 223.035 872.366 207.992 881.382 207.296 881.799 206.59 880.85 207.139 880.294 213.135 874.217 221.424 873.688 229.477 875.192 234.71 876.169 239.727 878.023 244.85 879.419 247.107 880.035 249.424 880.486 251.766 880.822 250.152 873.666 248.577 866.502 247.068 859.324M569.584 1306.21C561.935 1311.21 555.695 1318.61 551.294 1326.56 523.094 1400.34 492.935 1360.82 455.464 1321.23 487.173 1309.26 529.174 1300.3 553.495 1276.51 557.705 1287.03 562.854 1297.05 569.584 1306.21M559.495 1126.25C557.047 1114.11 555.029 1101.89 553.193 1089.65 551.43 1077.91 548.677 1065.33 549.127 1053.45 549.143 1052.98 549.812 1052.89 549.956 1053.34 553.768 1065.19 554.909 1078.29 557.328 1090.49 559.667 1102.29 562.237 1114.04 564.826 1125.78 570.141 1149.89 577.659 1173.63 582.208 1197.89 582.696 1200.49 579.185 1201.4 578.232 1198.97 569.12 1175.77 564.399 1150.56 559.495 1126.25M43.7335 579.302C31.4145 566.034 21.7335 549.091 23.6045 531.114 31.0045 521.244 33.4545 508.37 37.7645 496.963 54.6145 449.228 70.2545 401.128 88.5935 353.906 127.604 365.904 165.984 380.295 202.184 399.198 208.844 402.596 215.434 406.123 221.945 409.777 228.764 413.599 236.204 420.238 244.383 418.337 235.445 430.995 217.035 444.165 213.923 458.793 213.255 463.422 216.535 467.717 221.574 466.683 300.464 522.722 381.935 577.578 456.504 639.999 512.344 684.209 555.214 720.064 574.365 791.794 587.274 838.259 587.313 886.821 585.414 934.595 585.044 943.883 585.034 953.39 584.284 962.738 585.404 969.732 583.274 983.965 575.414 984.221 575.594 985.916 576.154 987.482 577.044 988.861 576.794 989.195 576.534 989.511 576.265 989.836 575.875 987.925 575.495 986.024 575.133 984.113 569.015 957.005 568.195 925.553 569.214 896.691 569.643 888.417 556.955 888.614 556.245 896.691 554.334 918.51 552.424 940.328 550.515 962.137 548.224 976.272 551.834 994.761 540.534 1005.51 529.044 994.889 532.844 973.948 533.404 960.246 534.304 937.895 535.274 915.555 536.104 893.204 536.365 886.122 524.633 884.299 523.304 891.5 519.534 912.028 515.455 932.497 511.064 952.907 508.414 960.797 506.594 996.2 493.354 990.053 485.464 984.665 491.155 953.075 490.115 942.614 490.604 921.908 490.893 901.232 492.414 880.576 493.034 872.242 479.464 870.469 477.604 878.606 474.585 891.776 471.694 904.946 469.074 918.204 463.324 940.555 465.414 970.855 444.655 985.709 436.525 927.651 448.224 869.997 449.865 812.145 448.884 793.4 445.664 774.842 442.824 756.323 439.685 735.844 437.854 713.553 445.204 693.803 443.194 684.957 435.294 708.884 434.553 710.874 428.604 699.152 414.115 698.245 402.655 694.591 377.185 686.346 351.094 680.131 325.324 672.802 256.983 653.82 188.564 635.134 120.124 616.487 92.7845 608.922 64.0045 599.968 43.7335 579.302M728.084 888.121C718.654 837.007 718.914 785.214 722.945 733.539 727.375 653.397 731.674 573.234 736.274 493.102 756.245 638.138 777.534 783.008 793.813 928.508 794.974 938.634 794.794 949.351 799.904 958.384 771.664 962.167 741.563 965.979 714.104 956.375 726.154 935.541 730.404 911.821 728.084 888.121M115.144 295.464C162.745 197.738 259.803 128.362 368.655 113.232 368.775 113.35 368.905 113.468 369.025 113.596 368.664 113.921 368.335 114.276 368.034 114.64 370.964 112.483 374.983 115.192 373.685 118.176 375.294 121.851 376.483 125.633 377.974 129.337 378.604 129.278 379.245 129.219 379.884 129.12 386.344 141.946 389.844 156.731 396.594 169.517 433.534 233.524 524.695 259.51 593.075 233.671 647.334 210.159 655.034 143.206 650.174 91.7382 649.924 88.2709 648.164 85.8181 645.813 84.3701 675.404 89.1082 704.995 93.8856 734.615 98.3872 748.883 100.554 763.544 103.687 774.563 113.488 817.935 158.12 825.674 278.225 840.265 340.667 805.354 344.322 766.334 364.219 741.313 388.343 742.495 360.919 740.804 333.634 737.643 306.407 737.594 305.078 735.375 304.624 735.164 306.082 728.914 333.683 724.104 361.52 722.125 389.8 713.893 503.602 709.005 617.63 701.955 731.51 699.544 773.424 696.534 815.701 702.505 857.467 721.724 943.451 687.834 985.65 596.875 971.357 607.924 862.392 599.914 737.716 508.664 662.163 505.884 659.681 502.544 659.849 500.014 661.326 425.824 598.284 347.525 539.891 264.185 489.042 264.784 478.533 238.495 469.244 231.133 461.994 258.464 433.684 279.275 399.267 297.423 364.653 299.025 360.89 319.893 323.025 313.254 325.409 293.423 354.792 273.704 384.363 250.355 411.255 251.624 398.853 219.495 390.538 209.605 384.875 171.393 368.78 131.445 356.181 90.2745 349.659 97.6845 331.211 105.785 313.037 115.144 295.464M623.625 96.1413C622.375 94.0038 621.185 91.817 620.044 89.6007 623.904 89.7484 627.664 89.8863 631.464 90.5168 631.294 96.6338 631.633 102.8 631.705 108.967 629.804 104.455 626.084 100.338 623.625 96.1413M1268.44 957.566C1177.25 891.254 1027.47 933.502 921.834 940.318 901.695 808.254 909.914 674.033 891.143 541.753 873.854 409.6 855.625 275.605 812.205 148.989 794.284 100.032 763.284 85.4931 712.245 85.8871 686.344 84.8725 658.955 80.7255 633.784 81.3165 628.265 81.4052 622.495 82.1341 617.515 84.3603 610.515 68.58 606.714 51.6373 604.794 34.5666 604.674 33.4831 603.294 33.2861 602.883 34.3204 596.964 49.1846 596.334 65.4082 599.554 80.9717 601.883 92.1224 615.755 136.006 631.865 118.837 633.143 154.84 625.234 197.837 589.964 216.523 528.334 243.395 443.143 218.926 407.444 161.893 400.544 150.496 394.594 138.369 386.954 127.426 440.185 112.355 470.064 48.5739 457.525 0.00167456 449.775 37.7779 435.643 79.9867 400.454 101.145 272.314 100.86 165.775 159.223 105.575 271.636 93.7945 287.958 82.9045 304.92 72.9235 322.178 67.5535 333.723 51.8245 349.779 65.1735 360.929 49.7545 402.084 36.0745 443.81 21.6145 485.29 17.6435 499.11 8.5635 513.61 10.3745 528.139 8.4145 537.093 8.5045 547.682 12.9945 556.292 17.2545 571.639 26.8135 592.285 42.6645 598.796 56.1145 611.079 73.1245 619.541 90.8645 625.914 43.5535 749.556 25.5445 882.901 9.5145 1013.54-6.1965 1127.82-14.3055 1266.84 84.1335 1349.43 86.0445 1373.07 100.063 1403.18 127.785 1403.43 146.984 1422.29 170.383 1411.94 191.755 1402.72 227.824 1389.37 265.655 1381.96 303.245 1377.83 307.275 1380.98 313.835 1380.46 317.423 1376.79 340.194 1371.54 371.754 1392.8 376.354 1373.54 405.714 1370.69 434.754 1365.35 464.085 1362.24 451.724 1378.28 452.615 1401.93 461.923 1419.25 438.214 1465.89 493.444 1492.9 527.214 1512.04 572.804 1538.44 620.414 1563.49 672.554 1574.44 718.393 1584.08 766.414 1581.15 810.643 1565.75 833.883 1559.91 866.344 1540.73 852.554 1513.71 870.034 1462.29 747.274 1409.01 711.164 1383.26 725.924 1381.42 726.464 1350.78 688.075 1368.39 683.435 1365.28 678.875 1362.08 674.365 1358.82 829.643 1340.97 1126.19 1291.87 1238.57 1185.72 1300.31 1131.14 1335.93 1020.74 1268.44 957.566" id="Fill-1" fill="#000000" mask="url(#mask-2)"/></g></g></svg>