<svg width="289" height="293" viewBox="0 0 289 293" xmlns="http://www.w3.org/2000/svg" xmlns:xlink="http://www.w3.org/1999/xlink" overflow="hidden"><g id="face/Smile" fill="none" fill-rule="evenodd"><path d="M146.587 240.927C139.864 238.184 133.866 233.61 129.481 227.766 127.957 225.735 127.561 223.59 127.881 221.628 128.241 219.421 129.546 217.422 131.326 216.081 133.112 214.735 135.345 214.072 137.504 214.41 139.381 214.704 141.248 215.731 142.727 217.862L143.035 218.288C145.642 221.815 149.04 224.709 152.91 226.574 156.641 228.372 160.814 229.211 165.132 228.723 173.356 227.794 179.024 223.346 185.049 217.307 185.796 216.544 186.543 215.758 187.294 214.959 187.768 214.234 188.426 213.769 189.157 213.524 189.968 213.253 190.886 213.269 191.726 213.562 192.537 213.845 193.262 214.381 193.748 215.095 194.209 215.773 194.471 216.61 194.386 217.574 193.835 223.833 190.562 229.419 185.914 233.805 180.752 238.677 173.909 242.047 167.466 243.229 160.368 244.531 153.136 243.598 146.587 240.927L146.587 240.927ZM170.814 144.367C178.366 148.957 189.872 159.66 181.748 171.04 172.186 181.073 158.419 169.569 151.634 164.366 145.343 160.334 138.275 170.705 144.112 175.413 193.136 211.708 213.031 145.567 174.634 138.97 170.406 138.243 168.836 142.947 170.814 144.367ZM82.9633 102.146C83.7976 91.7901 99.5703 89.4384 101.139 99.6864 102.544 108.866 100.89 117.299 96.7553 125.564 92.8043 133.46 82.8738 129.777 82.1228 122.587 81.1161 112.949 82.4443 108.589 82.9633 102.146ZM203.027 97.5615C205.226 94.6815 208.401 92.7155 212.205 93.8265 224.09 97.2995 220.587 114.173 216.413 122.385 214.145 126.845 206.814 127.977 203.501 124.049 198.101 117.646 195.515 104.856 202.38 98.5485 202.566 98.2225 202.773 97.8935 203.027 97.5615ZM96.5879 56.8305 98.4653 56.5019C104.273 55.4975 111.494 54.5323 115.603 59.2015 117.782 61.6775 118.532 66.2795 115.603 68.6495 110.451 72.8195 104.755 71.2035 98.5809 71.5565 93.4929 71.8485 88.6029 72.6905 83.7019 74.0915 72.9499 77.1645 64.1889 82.7745 55.0059 88.9345 53.8009 89.7425 52.5709 88.2015 53.1459 87.0745 58.4469 76.6915 68.7199 68.1625 79.0099 62.9635 84.5019 60.1885 90.5119 57.8865 96.5879 56.8305ZM192.193 52.1794 193.63 52.4735C209.267 55.7421 229.583 62.2714 236.988 77.6308 237.271 79.8027 236.972 80.2682 236.73 80.5723L236.649 80.6735C236.45 80.9332 236.29 81.2912 235.349 81.5868 235.088 81.5246 234.824 81.4586 234.557 81.3888 231.163 80.4992 228.477 79.2738 225.877 78.0023L223.058 76.6134C219.788 75.0098 216.488 73.4646 212.992 72.3238 205.53 69.8899 197.854 68.1753 190.06 67.2598 188.37 67.0615 186.744 66.4913 185.46 65.5142 184.242 64.5867 183.311 63.3025 182.887 61.5955 182.337 59.3865 182.495 57.714 183.681 55.7211 184.572 54.2245 185.847 53.1871 187.311 52.5914 188.804 51.9841 190.504 51.841 192.193 52.1794Z" id="🖍-Ink" fill="#000000"/></g></svg>