<svg width="473" height="567" viewBox="0 0 473 567" xmlns="http://www.w3.org/2000/svg" xmlns:xlink="http://www.w3.org/1999/xlink" overflow="hidden"><g id="head/mono/Medium-Bangs-2" fill="none" fill-rule="evenodd"><path d="M407.868 144.463C405.647 138.858 401.719 131.813 395.154 131.532 390.076 116.007 377.45 100.196 359.888 100.616 308.34 47.9022 243.444 50.3872 175.594 61.5462 139.798 68.1852 103.451 81.1852 76.753 106.839 44.777 137.041 32.326 189.74 57.366 227.931 35.725 239.528 35.305 267.048 44.56 286.907 33.435 294.6 32.759 313.272 45.286 319.14 44.62 321.868 45.091 324.688 46.361 327.112 40.15 332.282 32.066 336.101 25.383 339.384 22.429 340.835 20.725 343.205 20.017 345.876-1.927 360.272-56.645 395.454-55.993 423.455-56.315 438.063-45.479 447.677-32.311 451.505-40.146 467.168-46.093 485.463-38.593 502.359-36.52 507.464-20.9878 522.467-20.2058 522.744-18.8388 523.916 3.444 513.686 14.274 508.468 16.374 522.128 30.981 529.285 43.572 524.604 55.511 521.005 62.85 510.898 70.38 501.704 80.375 523.507 109.782 523.758 128.788 514.358 145.857 506.473 158.832 492.021 166.06 474.606 204.442 493.395 249.348 498.872 291.048 491.367 293.724 496.103 299.648 499.284 304.925 497.452 327.099 490.786 351.616 490.412 370.412 475.139 409.591 447.018 412.89 395.174 410.158 350.981 407.735 306.918 409.856 262.488 401.846 218.901 405.322 206.068 411.104 194.723 416.454 182.667 422.266 170.025 422.144 151.232 407.868 144.463Z" id="🎨-Background" fill="#FFFFFF"/><path d="M43.6094 331.496C45.9184 330.916 47.1584 334.019 45.1984 335.266 32.7544 343.181 19.8994 350.25 7.8784 358.862-3.55514 367.049-14.1155 376.374-23.9633 386.401L-25.0546 387.518C-33.9576 396.677-43.8176 408.329-43.9176 421.84-43.9946 432.342-35.8976 443.805-24.6006 442.425-20.3446 441.905-16.4326 447.305-17.9176 451.198L-19.4801 455.301C-25.7657 471.906-32.1609 490.72-27.1958 508.189L-27.0136 508.813C-25.8126 512.813-24.5466 516.348-19.9036 516.268-15.5946 516.192-11.1106 514.739-7.0766 513.352 1.2944 510.473 8.8804 505.672 15.3194 499.634 21.0148 494.294 28.2914 499.719 27.5246 506.506L27.4974 506.723C26.4484 514.339 38.5814 517.875 44.0974 516.786 54.9884 514.632 62.7534 503.72 68.9384 495.401 71.9114 491.404 79.1324 489.83 81.7444 495.401 86.9204 506.436 97.5894 514.684 110.07 515.03 116.553 515.209 122.773 513.364 128.264 509.942 130.506 508.544 132.51 506.883 134.348 504.999L134.804 504.524C137.524 501.641 139.401 500.108 142.875 498.225 146.298 496.37 150.726 498.67 150.706 502.717 150.677 507.959 149.141 511.444 145.526 515.246 142.535 518.395 138.981 521.159 135.245 523.368 127.737 527.804 118.811 530.3 110.07 530.011 96.2924 529.555 83.1414 522.688 74.6164 512.008 65.9124 522.415 55.1154 531.977 41.0844 531.72 30.5804 531.528 20.7914 526.06 16.1014 517.588 9.4804 522.153 2.2134 525.722-5.5606 528.053L-6.25331 528.258C-17.2573 531.46-29.9207 532.733-37.0036 521.809-43.6536 511.553-44.1496 497.35-42.6256 485.627-41.2646 475.155-38.0426 465.21-34.3426 455.401-44.8746 452.256-53.0496 442.363-55.8576 431.699-60.1056 415.573-51.8646 399.934-41.6766 387.952-30.6096 374.936-16.6806 363.927-2.6476 354.291 11.3484 344.682 27.0274 335.652 43.6094 331.496ZM403.479 205.363C403.505 204.915 404.239 204.758 404.307 205.251 409.141 240.329 411.94 275.336 414.257 310.655 415.432 328.547 416.766 346.422 418.226 364.293 419.627 381.431 421.959 399.023 421.432 416.23 420.607 443.174 407.523 465.082 386.069 480.849 365.512 495.957 340.01 503.427 314.989 506.583 300.458 508.417 285.725 508.504 271.178 506.783 263.623 505.888 256.077 504.698 248.677 502.91L245.478 502.11C239.65 500.621 233.143 498.601 232.312 491.698 231.909 488.355 233.685 485.889 236.553 484.211 240.292 482.023 244.579 483.311 248.432 484.309 254.925 485.988 261.487 487.431 268.123 488.427 282.376 490.572 297.028 490.698 311.354 489.215 335.452 486.716 360.872 478.901 379.452 462.759 387.527 455.745 394.548 447.198 398.241 437.043 402.989 423.99 402.286 409.749 402.127 396.078 401.758 364.293 402.083 332.509 401.641 300.72 401.197 268.836 401.584 237.202 403.479 205.363ZM161.145 56.8189C189.303 49.5569 217.88 47.6699 246.804 49.8559 274.081 51.9159 305.154 58.0189 327.432 74.7959 328.513 75.6099 327.866 77.1509 326.528 76.9379 311.634 74.5639 297.116 70.2459 282.286 67.3889 268.022 64.6409 253.501 62.5779 238.977 62.0999 189.855 60.4809 135.196 71.6119 95.5863 102.237 77.0133 116.596 62.8393 135.904 57.1983 158.877 51.4133 182.44 54.5433 207.922 66.1603 229.237 67.8333 232.306 67.1433 237.161 63.6533 238.795 53.0633 243.753 45.5203 254.737 45.6843 266.59 45.7633 272.339 47.7453 277.852 50.9303 282.604 54.2983 287.629 59.4253 291.145 63.1923 295.838 64.6753 297.686 64.7323 300.231 63.5573 301.933 65.7603 302.898 68.1363 303.416 70.3043 304.556 72.1423 305.523 72.1943 308.542 70.3043 309.494 65.5243 311.901 60.3563 309.346 57.1303 305.465 56.5543 304.772 56.0563 304.051 55.6023 303.315 51.7383 302.496 48.2763 300.557 45.2533 297.905 39.4933 301.354 38.7043 309.032 43.6523 314.899 46.1792 317.894 49.7694 319.743 53.3978 321.072L53.8333 321.229C57.3643 322.483 60.5983 323.183 62.8923 326.008 64.4053 322.854 66.1423 319.881 68.0783 317.172 75.1173 307.325 85.9373 298.589 98.7763 299.698 108.833 300.565 117.546 307.765 119.607 317.699 119.759 318.434 118.651 319.008 118.321 318.241 113.496 306.99 98.2293 306.577 89.1353 312.44 78.4403 319.336 72.5953 332.331 70.2503 344.434 67.9423 356.356 69.2763 370.856 78.1993 379.924 81.8503 383.635 86.8173 386.201 92.0013 386.877 94.5354 387.209 96.7706 386.882 99.194 386.394L100.8 386.059C101.914 385.829 103.022 385.642 104.19 385.746L105.931 385.98 105.931 385.98 106.921 386.443C107.779 386.828 107.701 386.723 106.688 386.125 109.646 385.883 111.175 388.069 111.337 390.466 111.431 390.526 111.522 390.591 111.598 390.684 122.824 404.422 131.159 420.213 143.072 433.501L146.56 437.394C155.525 447.366 165.76 458.178 177.939 463.352L179.388 463.952C182.931 465.448 186.49 467.497 186.941 471.768 187.346 475.594 184.33 478.473 180.853 479.366 172.935 481.397 163.909 474.36 158.11 469.743 145.64 459.818 135.16 447.166 126.505 433.854L125.65 432.528C118.535 421.417 111.848 408.744 109.77 395.557L109.396 396.165C109.367 396.208 109.346 396.24 109.331 396.26 108.907 396.836 108.44 397.322 107.898 397.788 106.442 399.045 104.666 399.779 102.821 400.277 99.3583 401.212 95.5613 401.396 92.0013 401.032 84.7703 400.293 78.0113 397.541 72.2953 393.059 54.8913 379.41 52.8363 354.012 59.8753 333.407 54.0993 334.786 47.5203 330.899 43.0103 327.568 37.8383 323.746 33.5733 318.229 32.5543 311.739 31.5423 305.299 35.6483 296.771 41.7383 294.286 35.4193 286.699 31.7403 275.932 31.3603 267.311 30.7003 252.315 38.6673 238.141 50.8993 229.959 39.3963 205.308 37.1803 176.709 44.9253 150.535 60.2943 98.5959 111.778 69.5509 161.145 56.8189ZM117.325 451.442 117.468 450.986C118.693 446.969 120.275 438.979 126.276 442.021 132.01 444.926 128.35 453.525 126.344 457.711 123.946 462.72 119.802 466.736 114.239 467.812 109.713 468.687 104.743 467.563 101.576 464.066 100.654 463.047 100.132 461.929 99.5855 460.695 99.3725 460.215 99.2765 459.886 99.2365 459.672 99.1845 459.907 99.0365 460.257 98.6585 460.669 96.1325 463.429 93.7465 466.642 91.9135 469.907 91.4795 470.679 90.1115 470.138 90.4575 469.293 92.5925 464.071 92.2335 455.996 96.9925 452.219 101.187 448.89 105.129 451.51 107.347 455.388L107.461 455.589C110.703 461.477 115.871 455.885 117.325 451.442ZM71.6954 432.574 72.1335 431.966C76.6187 425.836 84.1827 418.462 91.7514 424.163 94.1584 425.976 94.2474 429.002 91.7514 430.801L90.807 431.476C87.5005 433.82 84.2081 436.033 81.7794 439.395 79.1404 443.05 76.7704 446.92 73.2224 449.787 66.9474 454.857 56.8064 455.857 51.3614 449.022L50.8258 448.344C50.3703 447.758 49.8476 447.051 49.4234 446.346L49.0928 446.804C49.0606 446.85 49.0303 446.894 49.0024 446.935L48.9264 447.051C46.6884 450.627 43.8614 453.572 40.3404 455.896 33.6484 460.311 26.1074 460.925 18.5364 458.588 17.7954 458.358 17.9944 457.365 18.7114 457.299 27.6824 456.461 36.4234 450.088 40.0724 441.881L40.4845 440.96C41.9611 437.696 43.6154 434.593 47.2634 433.311 50.8144 432.063 54.5424 433.381 56.9774 436.067 59.0134 438.312 59.5374 442.775 63.2104 441.791 67.2324 440.713 69.4964 435.676 71.6954 432.574ZM46.0004 378.051C47.9874 376.541 51.0994 378.161 51.6464 380.349 54.1254 390.255 43.8294 401.928 33.9354 402.235 31.3884 402.313 28.9384 401.697 26.6824 400.518 24.9324 399.604 22.8614 397.268 20.9404 396.881 18.4594 396.382 16.2614 399.686 14.5144 401.382 12.3474 403.487 10.2034 405.441 7.7754 407.235 6.8054 407.952 5.3004 406.748 5.7104 405.647L6.53169 403.458C9.5046 395.666 14.6251 384.292 24.2074 387.525 28.9024 389.109 32.4364 394.451 37.3804 390.221 41.3394 386.834 41.7084 381.312 46.0004 378.051ZM88.2791 338.172C97.2121 327.918 118.211 333.334 122.193 345.809 123.073 348.564 122.155 352.145 120.003 354.095 117.168 356.664 113.124 357.442 109.682 355.427 106.72 353.694 105.504 350.858 103.327 348.425 100.134 344.86 95.7911 342.881 91.3161 341.463 90.1971 342.051 89.1561 342.824 88.2221 343.756 87.7441 344.233 86.8411 343.579 87.2651 343.017 87.8411 342.253 88.5451 341.534 89.3461 340.871L88.9611 340.758 88.9611 340.758C87.7831 340.43 87.5281 339.036 88.2791 338.172ZM146.336 224.957C148.338 224.96 150.67 226.84 150.414 229.036L150.337 229.645C149.761 233.824 148.418 236.19 144.235 238.132 140.686 239.777 136.958 240.686 133.068 241.046 131.596 241.182 130.038 241.189 128.459 241.072L128.127 242.991C127.466 246.827 126.855 250.666 126.74 254.577 126.526 261.826 129.231 267.799 132.132 274.272 137.701 286.703 138.327 299.113 132.264 311.527 131.377 313.342 128.866 314.823 126.84 314.638 124.213 314.401 122.944 313.641 121.416 311.527 120.133 309.753 120.426 307.245 121.315 305.39L121.416 305.186C124.471 299.267 125.434 292.581 123.874 286.074 122.408 279.96 119.087 274.464 117.604 268.367 115.188 258.438 117.761 248.587 122.789 240.068 118.994 238.975 115.484 237.027 113.142 234.057L113.152 234.053 113.152 234.053C112.258 233.098 112.746 231.102 114.315 231.223L116.09 231.366C121.165 231.79 125.838 232.231 130.97 230.816 133.601 230.09 135.873 228.88 138.131 227.414L138.615 227.096C141.441 225.219 143.008 224.954 146.336 224.957ZM158.484 151.565C171.208 150.842 182.071 159.239 187.352 170.417 193.088 182.552 190.681 196.477 185.618 208.416L184.18 211.758C181.662 217.548 178.356 224.433 173.2 227.54 167.408 231.03 162.401 226.983 164.109 220.55 165.127 216.719 167.882 213.764 170.111 210.602 172.191 207.649 174.132 204.593 175.834 201.405 179.168 195.153 181.657 188.187 181.63 181.024 181.583 167.95 172.945 152.967 158.484 153.159 157.451 153.171 157.468 151.622 158.484 151.565ZM222.837 130.469C222.044 129.867 222.753 128.528 223.64 129.093 238.395 138.477 249.412 156.104 251.63 173.421 252.861 183.029 251.921 193.297 247.829 202.164 245.482 207.252 241.454 212.109 235.822 213.504 230.644 214.785 225.307 211.828 223.7 206.774 223.077 204.813 224.149 202.762 225.768 201.691 231.018 198.22 235.245 193.84 237.718 187.948 240.291 181.822 241.317 175.321 241.348 168.713 241.424 153.238 235.248 139.901 222.837 130.469ZM403.077 137.176C402.394 136.419 403.253 135.303 404.157 135.777 414.824 141.387 421.602 152.133 423.544 163.902 425.447 175.424 422.887 191.11 413.968 199.443 408.935 204.147 399.919 197.891 404.103 191.832 407.053 187.559 410.242 184.04 411.931 178.991 413.437 174.486 413.97 169.943 413.888 165.209 413.709 154.881 410.019 144.876 403.077 137.176ZM272.66 122.748C290.885 121.88 301.93 142.685 304.46 158.192 306.022 167.773 304.848 177.641 299.558 185.951L299.245 186.435C294.88 193.073 286.944 200.716 278.394 197.573 274.775 196.244 273.812 192.367 276.243 189.426 279.963 184.924 285.713 183.089 289.211 178.282 293.135 172.891 294.421 166.137 294.194 159.581L294.163 158.857C293.555 146.797 287.803 123.651 272.66 124.061 271.811 124.083 271.821 122.787 272.66 122.748ZM329.666 119.291C347.294 117.038 358.029 137.776 361.34 152.062 363.408 160.993 363.86 170.956 361.215 179.82L361.018 180.452C358.865 187.067 352.513 198.402 344.22 195.021 341.948 194.095 339.629 191.572 340.717 188.852 342.106 185.375 344.111 184.473 346.783 182.248 348.841 180.535 350.278 178.076 351.336 175.654 354.154 169.199 354.782 161.658 354.397 154.702L354.344 153.879C353.348 140.292 345.981 120.044 329.666 120.416 328.921 120.433 328.972 119.379 329.666 119.291ZM361.939 99.795C371.75 96.059 379.788 105.44 385.428 112.135 392.493 120.524 398.902 129.561 402.525 140.004 405.752 149.309 406.32 159.655 403.413 169.127 401.974 173.817 399.732 178.166 396.672 181.994L396.282 182.477C393.097 186.36 390.022 188.746 384.805 187.356 382.682 186.789 381.785 184.69 382.152 182.684 382.938 178.398 385.147 177.285 388.008 174.293 390.531 171.654 392.403 168.404 393.662 164.987 396.258 157.938 396.393 150.301 394.65 143.039 392.701 134.909 388.862 127.402 384.422 120.367L383.464 118.86C378.759 111.423 372.051 99.9691 362.126 101.176 361.276 101.28 361.265 100.051 361.939 99.795Z" id="🖍-Ink" fill="#000000"/></g></svg>