<svg width="392" height="138" viewBox="0 0 392 138" xmlns="http://www.w3.org/2000/svg" xmlns:xlink="http://www.w3.org/1999/xlink" overflow="hidden"><g id="accessories/Glasses-2" fill="none" fill-rule="evenodd"><path d="M372.311 95.4577C360.17 108.003 339.902 111.603 323.749 104.875 282.273 87.5457 302.574 33.4957 334.561 18.9807 338.557 17.9847 343.894 15.6217 348.761 15.0857 349.201 14.8697 350.159 15.4947 351.32 14.9037 386.591 18.8417 394.623 73.5937 372.311 95.4577M238.533 98.6687C224.916 116.73 199.6 122.302 178.916 113.906 138.054 97.8137 152.547 49.8847 180.504 31.0947 239.561 8.9037 263.948 65.3677 238.533 98.6687M149.953 58.6507C149.915 58.6327 149.877 58.6237 149.838 58.6057 150.054 58.5107 150.27 58.4157 150.485 58.3187 150.415 58.5017 150.339 58.6827 150.271 58.8657 150.165 58.7927 150.072 58.7077 149.953 58.6507M400.423 39.1277C397.089 39.1347 392.273 39.6827 389.513 41.9957 382.707 19.0427 357.585-2.2003 335.737 13.2897 318.532 18.8227 305.765 31.0937 298.509 47.4077 285.426 39.6257 264.854 42.9487 253.509 53.2397 246.079 28.6887 227.793 20.0917 206.028 18.8227 182.272 14.9317 158.594 38.0027 151.206 56.5107 145.063 55.8117 135.884 53.8567 130.105 57.6477 92.5981 47.8117 27.0231 42.3887 19.3981 47.8537 13.9641 49.9387 10.9821 62.7647 18.5721 63.4567 25.1861 62.5177 17.8001 54.0587 24.4671 53.1357 59.9901 50.9337 94.4751 58.0877 129.622 61.0897 132.76 65.3107 142.899 66.7227 148.308 65.0267 139.789 96.4227 158.179 117.783 185.734 124.181 228.401 133.982 265.522 95.8137 254.365 56.1137 267.29 49.6837 282.157 49.9597 296.237 53.3467 272.709 139.937 412.166 136.052 390.385 44.9627 404.88 52.1727 408.028 40.5827 400.423 39.1277" id="🖍-Ink" fill="#000000"/></g></svg>