<svg width="336" height="504" viewBox="0 0 336 504" xmlns="http://www.w3.org/2000/svg" xmlns:xlink="http://www.w3.org/1999/xlink" overflow="hidden"><g id="Introduction" fill="none" fill-rule="evenodd"><g id="variations-sitting" transform="translate(-2248 -247)"><g id="a-person/sitting" transform="translate(2243 200)"><g id="pose/sitting/one_leg_up-1" transform="translate(-20.3115 159.505)"><path d="M210.868 212.36C211.443 218.342 210.268 224.054 207.472 228.884L206.562 230.455 208.294 231.059C211.446 232.16 214.951 232.695 219.01 232.695 223.187 232.695 227.531 232.115 231.022 231.648L233.257 231.349 232.159 229.411C231.276 227.853 231.113 225.966 230.939 223.967 230.893 223.431 230.845 222.876 230.782 222.326 227.474 192.812 223.294 162.913 219.251 133.998 218.187 126.389 217.087 118.521 216.019 110.782L212.958 110.9C212.135 125.225 211.335 139.792 210.563 153.88 210.223 160.075 209.883 166.27 209.54 172.464 208.318 188.125 208.74 200.805 210.868 212.36M212.118 389.346C207.622 389.346 203.117 388.879 198.73 387.957 184.999 385.08 172.526 378.291 161.911 372.153 161.369 371.847 160.82 371.54 160.255 371.224 156.1 368.903 150.928 366.015 147.687 362.492 144.132 358.627 143.52 354.776 145.762 350.372L146.117 349.675 145.746 348.986C143.425 344.672 143.597 339.335 146.166 336.007L148.324 333.211 144.775 333.587C141.197 333.966 137.59 334.48 134.102 334.977 130.232 335.528 126.23 336.098 122.288 336.479L121.193 336.585 120.941 337.639C120.8 338.226 120.627 338.582 119.411 338.582 118.357 338.582 116.94 338.274 115.44 337.947 113.579 337.543 111.469 337.084 109.435 337.084 108.54 337.084 107.735 337.169 106.974 337.345L106.531 337.446 106.216 337.769C106.014 337.975 105.671 338.103 105.32 338.103 105.055 338.103 104.809 338.029 104.645 337.901L104.148 337.512 103.517 337.581C92.5286 338.786 83.0534 340.9 74.5511 344.044L74.5126 344.058 74.3282 344.138C71.2538 345.462 68.0752 346.832 65.1803 346.832 63.0641 346.832 61.3457 346.113 59.7719 344.57L59.3272 344.135 58.6999 344.128C52.3345 344.07 49.426 336.659 49.0239 331.693L48.9734 331.067 48.4881 330.66C37.3948 321.366 30.8458 308.601 28.4662 291.636 26.299 276.183 27.963 259.89 29.8766 245.989 34.3032 209.967 38.9201 177.674 50.6561 147.047L51.2045 145.615 49.7433 145.091C44.6745 143.273 40.8006 141.103 37.9001 138.458L37.6992 138.275 37.4464 138.171C33.2893 136.466 31.2534 130.171 30.7284 128.283L30.6863 128.131 30.613 127.991C29.7648 126.366 29.5691 124.106 30.0764 121.791L30.1308 121.541 30.0992 121.288C29.8253 119.089 30.7345 116.791 31.6971 114.357 32.137 113.245 32.5914 112.096 32.9236 110.952 34.0654 107.68 35.206 104.352 36.3094 101.132 38.7849 93.9082 41.3443 86.4386 44.071 79.1723L44.4439 78.1785 43.6224 77.4936C42.22 76.3241 42.6883 74.9474 44.7106 71.6557 45.1885 70.8782 45.6404 70.1425 45.9841 69.4177 48.5763 64.9456 51.3545 60.6527 54.243 56.6566L54.3025 56.5746 54.3499 56.4858C69.1717 28.8489 95.4627 13.6289 128.38 13.6289L129.051 13.6301 129.421 13.4074C135.591 9.70344 139.995 3.3481 142.885-6.02144L142.977-6.32014 142.942-6.63044C142.843-7.49398 142.734-8.6262 142.772-9.72486 142.866-12.5072 143.958-14.9901 145.768-16.5371 149.203-19.4721 154.417-19.7178 159.463-19.7178L160.188-19.7178C166.639-19.6981 171.194-18.5798 174.522-16.1965 178.389-13.4275 180.526-8.95769 181.056-2.53171 181.214-0.608857 181.208 1.38312 181.204 3.3095L181.202 3.8471 181.267 4.06053C181.731 5.58781 182.274 7.0553 182.881 8.42264L183.506 9.82933 184.927 9.1951C185.846 8.78516 187.011 8.57425 188.489 8.55054 188.916 8.5407 189.331 8.53616 189.751 8.53616 193.183 8.53616 196.855 8.84898 200.406 9.15146 203.082 9.37952 205.849 9.6154 208.527 9.72009L208.564 9.72161C208.564 9.72161 208.933 9.71933 209.099 9.71933 215.609 9.71933 220.327 10.7413 223.949 12.9359 227.849 15.2984 230.653 19.0904 232.773 24.8693 244.146 57.9939 248.822 93.6736 252.946 125.152 255.285 141.613 255.997 158.489 256.685 174.809 257.412 192.035 258.163 209.848 260.822 227.26L261.032 228.636 262.444 228.545C268.659 228.145 275.375 227.282 282.485 226.369 293.288 224.982 304.459 223.547 315.258 223.547 330.357 223.547 341.805 226.513 350.251 232.614 356.139 238.154 359.186 245.654 359.06 254.31 358.883 266.54 352.404 280.062 342.553 288.758L342.516 288.792C330.065 300.536 307.336 310.722 274.963 319.067 245.193 326.74 214.4 330.911 198.694 332.713L194.807 333.16 197.962 335.437C199.239 336.359 200.404 337.171 201.524 337.919L202.247 338.401 203.038 338.039C205.295 337.005 206.729 336.788 207.534 336.788 208.249 336.788 209.111 336.943 209.159 337.682 209.19 338.165 208.845 338.883 208.118 338.974L204.254 339.456 207.409 341.702C209.516 343.202 212.66 345.011 216.301 347.105 228.211 353.957 246.211 364.311 243.115 373.404L242.912 374.001 243.2 374.565C244.032 376.192 244.103 377.703 243.416 379.184 241.947 382.357 237.349 384.766 233.445 385.746L233.378 385.763 233.313 385.785C226.519 388.148 219.388 389.346 212.118 389.346" id="Fill-1" fill="#FFFFFF"/><path d="M199.048 330.933C199.517 330.456 199.715 329.83 199.276 329.096 197.581 326.934 194.064 328.413 191.877 328.912 191.05 328.226 190.23 327.538 189.44 326.811 189.714 325.111 187.668 323.981 186.826 322.669 186.001 321.703 185.223 320.606 184.233 319.796 181.82 317.917 178.475 319.188 175.675 319.103 173.518 316.363 171.297 313.71 169.245 310.88 171.61 306.912 171.776 302.264 170.991 297.842 207.265 284.1 238.664 258.082 277.895 252.069 279.244 251.844 280.001 250.207 279.664 249.007 276.928 242.486 237.602 259.311 231.723 262.358 214.385 270.646 198.145 280.978 181.294 290.093 177.78 291.957 173.915 292.959 170.073 293.927 164.169 274.581 154.181 256.846 146.523 238.193 147.02 237.333 147.444 236.43 147.803 235.502 147.549 245.76 157.542 245.617 158.921 235.885 158.352 240.958 162.194 251.822 167.739 244.693 169.04 242.903 169.501 240.61 169.722 238.297 170.007 239.896 170.33 241.488 170.689 243.074 172.112 246.217 175.998 242.396 176.9 240.756 177.421 240.663 177.909 240.426 178.265 240.136 188.07 241.495 199.619 241.417 206.814 233.688 219.017 238.362 232.524 234.175 244.865 232.309 269.98 229.426 295.195 225.032 320.535 225.367 331.848 226.023 345.195 227.847 352.351 237.485 361.531 251.378 356.342 270.141 346.216 282.168 321.858 312.958 238.248 326.347 199.048 330.933M199.733 342.023C200.176 341.905 200.623 341.796 201.066 341.693 208.176 347.603 241.659 362.949 239.113 372.115 238.212 373.255 236.058 373.515 234.696 373.883 232.323 374.524 229.928 375.079 227.509 375.518 219.692 376.938 211.595 377.185 203.787 375.565 200.915 375.129 198.322 373.906 195.706 372.723 187.252 369.01 177.942 364.908 169.529 361.226 158.842 356.996 140.096 348.659 147.806 334.593 155.11 342.795 164.382 342.079 169.052 331.884 170.663 328.789 172.069 324.617 175.852 323.366 177.847 322.019 180.399 321.739 182.066 323.239 182.187 323.053 182.294 322.79 182.353 322.558 184.233 325.23 185.854 328.042 188.057 330.484 187.301 330.524 179.427 336.343 181.751 336.346 184.546 334.908 187.324 333.71 190.343 332.935 192.531 335.132 194.936 337.175 197.429 339.064 195.008 340.661 192.833 342.616 191.084 344.737 190.933 344.924 191.117 345.166 191.343 345.065 194.059 343.857 196.852 342.795 199.733 342.023M235.773 381.659C208.578 393.855 179.788 380.275 156.597 365.797 151.245 362.813 144.205 358.583 145.287 351.558 149.229 357.316 155.728 360.595 161.966 363.438 172.446 368.168 182.994 372.746 193.5 377.417 194.492 380.703 199.237 380.829 202.105 381.559 214.87 384.031 228.592 382.802 240.605 377.874 239.91 379.929 237.635 380.872 235.773 381.659M127.272 334.171C126.6 334.257 125.928 334.335 125.256 334.411 125.325 333.523 124.789 332.635 123.927 332.36 124.315 330.478 124.458 328.534 124.25 326.624 125.374 329.523 129 328.642 131.304 327.807 134.594 326.914 137.864 325.954 141.117 324.929 142.399 327.308 143.758 329.651 145.428 331.805 139.349 332.345 133.327 333.417 127.272 334.171M124.597 325.055C124.435 325.396 124.204 325.757 124.199 326.165 124.035 324.755 123.714 323.363 123.227 322.028 123.683 323.037 124.14 324.046 124.597 325.055M120.76 317.496C117.769 313.604 112.242 310.423 107.133 311.508 106.805 311.579 106.797 312.106 107.133 312.171 113.996 313.102 120.024 318.538 120.262 325.565 120.803 328.746 118.587 331.868 119.334 334.92 119.185 334.931 119.036 334.938 118.89 334.948 118.836 335.152 118.787 335.334 118.723 335.493 119.465 335.616 119.683 336.807 118.808 337.019 118.29 337.145 117.749 337.211 117.197 337.238 114.399 336.484 111.447 336.31 108.772 335.195 106.125 334.028 106.787 330.746 105.853 328.473 105.168 325.852 104.381 323.242 103.388 320.727 103.317 320.525 103.042 320.571 103.019 320.775 102.319 325.792 102.342 330.895 102.511 335.952 101.593 336.045 100.68 336.149 99.764 336.262 99.8232 334.85 95.5785 317.64 93.342 322.056 94.4679 326.912 94.6039 331.984 94.7244 336.981 88.0841 338.073 81.5413 339.7 75.1755 341.915 70.6896 343.272 65.3546 347.288 60.9998 343.658 57.6271 340.873 56.4909 336.015 56.8089 331.881 61.1947 307.422 95.835 304.564 116.284 306.372 118.215 310.822 120.183 315.256 122.175 319.68 121.763 318.919 121.291 318.187 120.76 317.496M51.015 331.404C50.6406 325.85 51.5767 318.936 55.6984 314.797 65.1317 306.834 78.3404 304.329 90.1283 301.446 95.6193 300.364 101.185 299.645 106.774 299.287 108.756 299.131 111.275 299.58 112.675 297.96 113.396 299.666 114.127 301.368 114.858 303.071 91.3902 300.001 42.4281 310.665 56.1395 342.762 53.2359 339.622 51.3123 335.798 51.015 331.404M167.608 313.044C168.688 315.738 170.009 318.303 171.735 320.649 169.773 321.93 168.173 323.824 167.044 325.86 159.811 344.753 152.076 334.633 142.466 324.495 150.599 321.431 161.371 319.135 167.608 313.044M47.2191 327.56C28.4114 309.011 24.7617 278.11 31.7098 253.819 32.3279 244.812 35.4826 236.229 38.309 227.7 47.3089 201.831 59.1455 176.943 73.3417 153.445 90.9542 158.275 108.536 163.234 126.189 167.906 128.621 168.433 131.055 169.475 133.55 169.626 134.443 170.193 135.338 170.819 136.267 171.369 134.915 177.98 136.161 184.73 136.477 191.381 136.764 196.618 136.197 201.745 135.502 206.926 134.725 214.463 131.527 238.978 137.936 243.465 140.109 244.512 142.05 241.412 142.986 242.264 143.83 241.677 144.618 240.913 145.259 240.07 147.734 248.061 151.778 255.474 154.277 263.472 157.6 275.226 168.516 294.253 166.093 305.464 164.218 312.388 156.016 313.881 150.096 316.144 143.256 318.52 136.338 320.702 129.308 322.473 125.877 315.201 122.596 307.86 119.377 300.493 104.666 266.499 91.6364 231.797 79.9922 196.681 79.7742 195.901 77.0965 187.456 76.6066 189.812 76.5656 189.57 76.2604 188.945 76.145 189.479 78.1199 197.725 80.1227 205.968 82.2902 214.168 76.9657 213.424 71.2411 213.134 66.368 215.739 66.1166 215.873 66.3013 216.203 66.5498 216.163 72.3206 215.164 77.8865 217.051 83.429 218.406 91.2132 244.86 101.257 270.643 111.888 296.104 108.6 295.057 104.784 296.215 101.352 296.298 90.5438 297.413 79.8588 299.774 69.6483 303.446 56.8141 307.601 47.7398 313.019 47.2191 327.56M36.8648 134.512C33.7052 131.115 31.2222 126.776 31.7021 122.173 33.6 119.646 34.2284 116.349 35.3338 113.428 39.6555 101.204 43.6669 88.8877 48.3707 76.7958 58.376 79.8681 68.2195 83.5532 77.5043 88.3934 79.2125 89.2638 80.9027 90.1668 82.5724 91.1026 84.3216 92.0813 86.2298 93.7813 88.3278 93.2945 86.0349 96.5358 81.3131 99.9081 80.5154 103.654 80.3436 104.839 81.1848 105.939 82.4775 105.674 102.711 120.024 123.607 134.071 142.732 150.055 157.054 161.375 168.05 170.557 172.961 188.924 176.272 200.822 176.282 213.257 175.795 225.491 175.7 227.869 175.698 230.303 175.505 232.697 175.793 234.488 175.246 238.133 173.23 238.198 173.277 238.632 173.42 239.033 173.649 239.386 173.584 239.472 173.518 239.553 173.448 239.636 173.348 239.147 173.251 238.66 173.159 238.171 171.589 231.229 171.379 223.175 171.64 215.785 171.75 213.666 168.496 213.717 168.314 215.785 167.824 221.372 167.334 226.959 166.844 232.543 166.257 236.163 167.183 240.897 164.284 243.649 161.337 240.93 162.312 235.568 162.456 232.059 162.686 226.336 162.935 220.615 163.148 214.892 163.215 213.078 160.206 212.612 159.865 214.456 158.898 219.712 157.852 224.954 156.726 230.18 156.046 232.2 155.579 241.266 152.184 239.692 150.16 238.312 151.619 230.223 151.353 227.544 151.478 222.242 151.553 216.948 151.943 211.658 152.102 209.524 148.621 209.07 148.144 211.154 147.37 214.526 146.628 217.899 145.956 221.294 144.482 227.017 145.018 234.776 139.693 238.579 137.608 223.713 140.608 208.949 141.029 194.136 140.778 189.336 139.952 184.583 139.224 179.841 138.418 174.597 137.949 168.889 139.834 163.832 139.319 161.567 137.292 167.694 137.103 168.203 135.577 165.202 131.86 164.97 128.921 164.034 122.388 161.923 115.697 160.331 109.087 158.454 91.5592 153.594 74.0108 148.809 56.4576 144.034 49.4454 142.097 42.0639 139.804 36.8648 134.512M212.387 213.59C209.969 200.502 210.035 187.239 211.069 174.007 212.205 153.485 213.308 132.958 214.488 112.439 219.61 149.578 225.07 186.674 229.246 223.932 229.543 226.525 229.497 229.269 230.808 231.582 223.565 232.551 215.844 233.527 208.802 231.068 211.892 225.733 212.982 219.659 212.387 213.59M248.984 121.401C254.46 156.6 251.336 192.418 256.648 227.577 249.279 228.402 241.967 229.622 234.675 230.964 235.473 226.621 233.96 222.136 233.698 217.762 229.738 186.566 225.365 155.39 219.571 124.466 218.15 117.065 216.714 109.695 215.068 102.335 215.316 97.8776 215.534 93.4206 215.678 88.9609 223.719 83.9139 232.785 80.6472 242.162 79.0004 244.696 93.0953 247.228 107.18 248.984 121.401M185.595 10.791C185.275 10.2437 184.97 9.68369 184.677 9.11617 185.667 9.154 186.632 9.18931 187.606 9.35074 187.563 10.9171 187.65 12.4961 187.668 14.0751 187.18 12.9199 186.226 11.8655 185.595 10.791M350.979 231.373C327.591 214.393 289.175 225.211 262.08 226.956 256.915 193.139 259.023 158.77 254.209 124.897 249.774 91.0572 245.099 56.7457 233.962 24.3234 229.366 11.7871 221.415 8.06435 208.325 8.16524 201.682 7.90544 194.657 6.84353 188.201 6.99462 186.785 7.01757 185.306 7.20423 184.028 7.77428 182.233 3.73347 181.258-0.604968 180.766-4.9762 180.735-5.25366 180.381-5.30411 180.276-5.03926 178.758-1.23303 178.596 2.92128 179.422 6.90659 180.02 9.76189 183.577 20.999 187.709 16.6025 188.037 25.8217 186.008 36.8317 176.962 41.6166 161.155 48.4976 139.306 42.2321 130.149 27.6277 128.38 24.7093 126.854 21.6041 124.894 18.802 138.547 14.9428 146.21-1.38942 142.994-13.8271 141.006-4.15391 137.382 6.65435 128.357 12.0724 95.491 11.9992 68.1659 26.9441 52.7258 55.7289 49.7044 59.9087 46.9114 64.2519 44.3517 68.6714 42.9741 71.6275 38.9399 75.739 42.364 78.5943 38.409 89.1327 34.9004 99.8171 31.1917 110.439 30.1732 113.978 27.8443 117.691 28.3088 121.411 27.8061 123.704 27.8292 126.415 28.9808 128.62 30.0734 132.55 32.5251 137.837 36.5906 139.504 40.0402 142.649 44.403 144.816 48.9529 146.448 36.8186 178.109 32.1996 212.254 28.0883 245.705 24.0587 274.969 21.9789 310.567 47.2268 331.717 47.7167 337.768 51.3123 345.479 58.4222 345.545 63.3464 350.372 69.3483 347.724 74.8292 345.363 84.0805 341.942 93.7831 340.046 103.424 338.989 104.458 339.796 106.14 339.662 107.061 338.722 112.901 337.377 120.996 342.82 122.175 337.889 129.706 337.16 137.154 335.793 144.677 334.996 141.506 339.103 141.735 345.158 144.123 349.595 138.041 361.539 152.207 368.455 160.868 373.356 172.561 380.116 184.772 386.53 198.145 389.332 209.902 391.802 222.218 391.053 233.562 387.108 239.523 385.612 247.848 380.701 244.311 373.782 248.795 360.616 217.309 346.972 208.048 340.379 211.833 339.907 211.972 332.062 202.126 336.57 200.935 335.775 199.766 334.956 198.609 334.121 238.435 329.55 314.495 316.976 343.318 289.796 359.153 275.819 368.289 247.549 350.979 231.373" id="🖍-Ink" fill="#000000"/></g><g id="Head" transform="translate(86.5118 45.072)"><g id="head/Afro"><path d="M48.9972 20.7011C87.0047 18.8347 104.156 45.5568 105.265 57.4924 106.035 65.7775 101.133 75.327 101.133 82.7305 101.133 86.5095 105.767 94.6226 103.61 100.13 98.8084 112.39 88.6426 125.995 75.6884 125.995 62.7341 125.995 45.8749 129.573 31.561 109.107 30.2179 107.187 13.2306 96.2729 11.5803 85.9022 7.46941 60.0698 21.8772 22.0329 48.9972 20.7011Z" id="🎨-Background" fill="#FFFFFF"/><path d="M47.2053 4.0708C48.5645 2.51832 50.8589 1.89733 52.8976 2.01752 55.859 2.1928 58.4346 4.01822 61.381 4.15343 64.4701 4.29616 67.4516 3.22695 70.5485 3.72275 72.4467 4.02823 74.3274 4.90714 75.5436 6.38951 79.7564 5.18508 84.3302 6.78013 87.0133 10.2632 90.3233 9.74988 93.9242 11.9386 94.9373 15.1235 99.1425 15.2587 103.112 18.6316 103.581 22.8583 105.261 23.3015 106.72 24.4586 107.616 25.9883 108.656 27.7611 108.829 29.7944 108.641 31.7926 110.62 32.8017 111.625 34.9702 111.889 37.2638 113.697 38.611 114.481 41.0323 114.113 43.3185 115.497 44.0972 116.212 45.9101 116.204 47.5277 116.197 49.0376 115.796 50.375 116.36 51.8321 116.863 53.1299 117.043 54.2115 116.766 55.5708L116.738 55.7033C116.689 55.9249 116.648 56.1375 116.611 56.3471 116.986 56.6751 117.303 57.0862 117.54 57.5645 118.407 59.3123 118.278 61.3057 117.617 63.0783 117.907 64.2071 117.87 65.3995 117.442 66.4845 118.243 67.6376 118.665 69.0519 118.541 70.5192 118.402 72.1621 117.651 73.6332 116.512 74.7209 116.815 76.965 115.901 79.3896 114.249 80.9696 114.483 82.313 114.281 83.721 113.545 84.9946 113.021 85.9023 112.314 86.5784 111.5 87.0496 111.527 87.7991 111.425 88.5655 111.175 89.3335 110.828 90.3992 110.241 91.381 109.468 92.1718 109.929 95.116 108.164 98.383 105.057 99.209 104.796 99.2784 104.547 99.3102 104.308 99.3152 104 102.147 103.326 104.939 102.282 107.591 99.629 114.344 94.8044 120.249 88.5129 123.932 85.401 125.753 81.9054 127 78.3371 127.521 75.7693 127.896 73.2993 127.803 70.7218 127.548 67.4867 127.225 64.2369 126.742 61.0924 125.91L60.5866 125.776C59.283 125.427 57.9086 125.025 56.7793 124.323 55.5155 123.537 54.8588 122.325 54.5679 120.897 54.4056 120.103 54.9095 119.249 55.7804 119.232L55.8365 119.232C56.0271 119.236 56.216 119.229 56.4074 119.217L56.5514 119.207 56.5587 119.207C56.5687 119.205 56.574 119.205 56.5837 119.205 56.669 119.192 56.7517 119.167 56.8345 119.155 57.7926 118.994 58.6305 119.153 59.5302 119.452L59.643 119.49C61.1576 120.011 62.6596 120.494 64.2244 120.852 65.8418 121.22 67.4792 121.513 69.1217 121.744L69.2847 121.764 69.3348 121.771 69.3599 121.774 69.3599 121.774C69.3649 121.774 69.3699 121.774 69.3749 121.776L69.8589 121.836 69.8589 121.836C70.2403 121.882 70.6212 121.922 71.0024 121.962 71.7045 122.032 72.4066 122.087 73.1087 122.127 85.2279 122.808 95.4062 113.28 98.478 101.857 99.5914 97.7229 99.6641 93.5988 99.3356 89.4722 99.2303 89.1717 99.1676 88.8387 99.1701 88.4731 99.1701 88.2828 99.1804 88.095 99.1927 87.9047 98.7842 83.9133 98.0746 79.9195 97.6305 75.9131 97.1116 71.2331 96.823 66.5258 96.9283 61.8155 96.981 59.4893 97.2293 57.1856 97.5552 54.8822L97.6731 54.0546 97.6731 54.0546C96.1999 53.7674 94.8302 53.0698 93.7397 52.06 91.373 53.4246 88.31 53.5456 85.9739 52.1045 83.356 53.7439 79.6984 53.8926 77.0622 52.2898 75.4689 53.4256 73.4613 53.9157 71.4906 53.4845 70.6042 53.2907 69.7227 52.8713 68.968 52.2906 68.4291 52.3855 67.8832 52.4223 67.3403 52.394L67.2282 52.4566 67.2282 52.4566C65.9769 53.1151 64.5907 53.5486 63.1642 53.5003 62.108 53.4647 61.0199 53.2566 60.0126 52.863 58.9366 53.5115 57.759 53.9542 56.4992 54.113 54.6594 54.3446 52.6739 53.9382 51.1438 52.896 48.3476 54.4866 44.9081 54.7315 41.89 53.6628 41.2719 54.7082 40.4165 55.6096 39.415 56.3045 39.5943 56.946 39.6515 57.6301 39.5898 58.2879 39.4885 59.3706 39.2167 60.3414 38.7721 61.2133 39.2407 62.1869 39.3817 63.3823 39.1194 64.5822 38.7455 66.2934 37.7485 67.7821 36.4576 68.9414 36.3437 71.6723 34.8439 74.2329 32.403 75.6554 32.2794 75.7273 32.1566 75.7859 32.0339 75.8387 31.9261 75.9859 31.7972 76.1154 31.65 76.2246 30.0978 77.6566 27.6414 77.5427 25.6957 76.7336 25.6581 76.7354 25.6208 76.7386 25.5827 76.7394 24.8878 76.7569 24.4141 76.4865 24.133 76.0883 23.8499 76.1036 23.5688 76.1334 23.2857 76.186 22.2523 76.3788 21.1189 76.7494 20.1836 77.2304 17.7562 78.4772 16.6328 80.6807 16.2968 83.3299 15.9309 86.2195 16.7632 89.1642 19.0027 91.1199 20.0908 92.0714 21.4825 92.6673 22.8968 92.9177 24.459 93.1957 26.1291 92.5121 27.2825 93.8517 27.5132 94.1171 27.6712 94.4877 27.5458 94.8458 27.1547 95.9626 26.5102 96.3908 25.5022 96.546 26.9591 98.2713 28.4536 99.9389 30.1086 101.489 31.899 103.169 33.7496 104.797 35.3648 106.65 37.0722 108.61 38.6143 110.689 39.6851 113.067 40.2969 114.435 40.7884 115.844 41.3178 117.244L41.4123 117.488C42.0025 118.975 42.7876 120.409 41.8792 121.962 41.5181 122.573 40.7007 123.164 39.9484 123.066 37.8297 122.795 37.1201 121.366 36.4678 119.503 35.9764 118.095 35.6002 116.648 35.0714 115.253 34.9723 114.995 34.8645 114.74 34.7514 114.485 33.5297 114.825 32.1864 114.556 31.0961 113.86 29.9311 114.376 28.6404 114.633 27.3939 114.611 25.7248 114.582 24.2 114.119 22.889 113.284 22.7847 113.256 22.6799 113.229 22.5758 113.2 20.5815 113.962 18.2459 113.826 16.4402 112.59 15.2709 111.789 14.4715 110.721 14.0171 109.531 12.5063 109.502 11.0118 108.968 9.92928 107.897 8.93527 106.915 8.35426 105.647 8.18174 104.33 6.8813 104.073 5.66211 103.445 4.70597 102.387 3.90755 101.504 3.42233 100.379 3.25834 99.2115 1.67454 98.7603 0.24622 97.7277-0.533891 96.2879-1.25984 94.9475-1.36466 93.4934-1.00958 92.1708L-1.10161 92.0386-1.10161 92.0386C-2.73305 91.186-3.97807 89.7902-4.10595 87.7965-4.14206 87.2289-4.08088 86.661-3.92666 86.1236-3.98233 85.5229-3.94672 84.9225-3.78899 84.3415-5.98313 82.2106-6.77804 78.7877-5.58693 75.9581-7.73092 73.6545-8.29764 70.0111-6.72538 67.277-7.80364 65.9747-8.35782 64.3145-8.26504 62.5417-8.14969 60.3284-7.13412 58.3951-5.91794 56.6047-6.82067 55.6081-7.30213 54.2184-7.26677 52.8763-7.21687 50.9307-6.18123 49.2555-4.88456 47.8683-6.01573 44.4428-4.75191 40.7269-1.97601 38.5584-2.53771 37.6344-2.74584 36.4901-2.56253 35.3307-2.24181 33.305-0.719703 31.9253 0.922768 30.8336 0.579228 29.717 0.669501 28.5123 1.21616 27.358 1.94586 25.818 3.32253 24.8415 4.75938 24.0152 5.1305 20.5997 8.95207 17.6825 12.1568 19.4454 11.3619 16.9038 13.6515 14.1594 16.2845 13.869 17.5732 9.96772 22.0191 7.50879 26.0162 8.47784 28.0599 5.68839 31.8639 4.61442 35.0937 5.81108 38.6447 3.09424 43.0503 2.6911 47.2053 4.0708ZM21.9113 80.6708C24.4063 80.5356 26.277 82.5688 27.5912 84.4293 28.8247 86.1746 25.6601 88.0175 24.7373 86.0945 24.4063 85.4084 24.0302 84.6822 23.5262 84.0812 23.4415 84.1996 23.3668 84.3221 23.2924 84.4478L23.2177 84.5745C23.1626 84.6672 23.1049 84.7623 23.0573 84.86 23.0623 84.8775 22.987 85.1079 22.9845 85.1179 22.7789 85.7414 22.3301 86.142 21.7185 86.3574 20.9283 86.6328 20.1811 86.0394 19.9278 85.3433 19.5243 84.2315 20.4619 83.2624 21.4374 82.8217 20.4795 82.6665 19.5366 82.992 18.8445 83.7282 18.7495 83.8308 18.5887 83.7482 18.584 83.6205 18.5035 81.8752 20.3315 80.7559 21.9113 80.6708Z" id="🖍-Ink" fill="#000000"/></g><g id="face/Calm" fill="#000000" transform="translate(39.8707 46.5744)"><path d="M42.8903 60.1358C41.043 60.67 39.0602 60.7178 37.1772 60.1661 35.4694 59.6656 33.7158 58.5642 32.4588 57.1067 31.3422 55.812 30.619 54.2387 30.6474 52.5592 30.6507 52.3674 30.7194 52.2073 30.825 52.083 30.9388 51.9492 31.0976 51.8574 31.2678 51.8175 31.4428 51.7765 31.6279 51.791 31.7854 51.8625 31.928 51.9272 32.0502 52.0371 32.1266 52.1977 32.3198 52.4511 32.5122 52.7007 32.7054 52.9434 34.2586 54.8586 35.7627 56.2898 38.0983 56.8031 39.3655 57.0817 40.6311 56.9582 41.7923 56.5331 43.0354 56.0782 44.159 55.2782 45.0396 54.2545 45.4375 53.7919 45.9073 53.6031 46.3667 53.5999 46.8873 53.5963 47.4019 53.8378 47.7895 54.2239 48.1705 54.6034 48.4257 55.1191 48.4488 55.6586 48.4691 56.132 48.3144 56.6266 47.9029 57.0679 46.5475 58.5213 44.7909 59.5861 42.8903 60.1358ZM42.8332 36.1495C44.7268 37.2989 47.612 39.9789 45.575 42.8283 43.1772 45.3407 39.7249 42.4601 38.0236 41.1573 36.4462 40.1476 34.6738 42.7444 36.1374 43.9234 48.4305 53.0117 53.4193 36.4501 43.791 34.7982 42.7308 34.6162 42.3371 35.794 42.8332 36.1495ZM25.1198 31.0922C24.5112 30.7035 23.7952 30.5701 23.0018 30.9306 22.3817 31.2121 21.2943 32.1508 20.5374 33.3847 20.0197 34.2288 19.6525 35.2191 19.7289 36.2506 19.7467 36.4902 19.6581 36.6668 19.5182 36.7974 19.4078 36.9006 19.2483 36.9764 19.0609 37.0001 18.9019 37.0202 18.7238 37.0021 18.5791 36.9569 18.3037 36.8711 18.1579 36.6927 18.103 36.5471 17.5731 35.1418 17.8014 33.5736 18.3953 32.1589 19.1968 30.2495 20.6523 28.6502 21.6059 28.1346 23.2378 27.2519 25.1629 27.2113 26.7971 28.1105 28.1882 28.8758 29.058 30.1115 29.9231 31.371 30.107 31.6387 30.2895 31.9045 30.4782 32.1656 30.8562 32.6888 30.8939 33.2077 30.7474 33.6526 30.5853 34.1456 30.1717 34.5616 29.6546 34.7793 29.1766 34.9805 28.6218 35.0088 28.1309 34.8021 27.7162 34.6274 27.3357 34.287 27.0949 33.7093 26.6893 32.7364 26.0136 31.663 25.1198 31.0922L25.1198 31.0922ZM56.0298 33.2567C55.613 33.4736 55.2869 33.539 54.8245 33.4006 54.5688 33.324 54.3161 33.177 54.1183 32.9794 53.9222 32.7836 53.7807 32.5401 53.7257 32.27 53.5905 31.6034 53.2252 30.9793 52.7047 30.5725 52.2598 30.2248 51.6982 30.0405 51.0753 30.1445 50.4032 30.2565 49.7628 30.687 49.3217 31.1945 49.1743 31.3643 49.0588 31.5572 48.9426 31.7488 48.7253 32.107 48.5141 32.44 48.2144 32.7031 48.1008 32.8032 47.9296 32.8725 47.7638 32.8725 47.6964 32.8725 47.628 32.8616 47.5628 32.8413 46.8938 32.1708 46.7652 31.6621 46.7868 31.1576 46.8094 30.6286 47.0183 30.0929 47.3558 29.5932 48.1476 28.4208 49.651 27.4596 50.6654 27.2419 52.0548 26.9437 53.4345 27.3016 54.5408 28.0765 55.679 28.8738 56.5224 30.1116 56.7854 31.5066 56.8487 31.8426 56.8218 32.2052 56.6936 32.5197 56.5684 32.8269 56.3502 33.0901 56.0298 33.2567ZM28.1839 18.5929C27.3501 19.404 26.3633 19.5297 25.3649 19.6414 24.8102 19.7041 24.3674 19.7546 23.9317 19.8528 22.7339 20.1228 21.5501 20.5294 20.4699 21.115 19.3409 21.7272 18.1104 22.4654 17.2252 23.4112 17.0147 23.6363 16.8163 23.8725 16.6176 24.1091 16.4364 24.3249 16.2619 24.5327 16.0779 24.733 15.8667 24.9632 15.666 25.2043 15.4665 25.4449 15.3431 25.6478 15.3187 25.6977 15.2939 25.7497 15.2565 25.8278 15.213 25.9152 15.1633 26.0089 15.0953 26.1373 15.0156 26.2779 14.9322 26.4053 14.7933 26.6382 14.7188 26.7024 14.6544 26.7311 14.5476 26.7786 14.4463 26.802 14.348 26.7893 14.2558 26.7774 14.169 26.7332 14.0832 26.6608 13.6552 26.2997 13.5289 25.707 13.5419 25.0779 13.5615 24.1232 13.9142 23.0661 14.2392 22.4163 14.9951 20.9065 16.0434 19.3369 17.3039 18.21 18.7423 16.9238 20.3159 15.95 22.1234 15.279 23.2466 14.8618 24.5471 14.4789 25.7708 14.5273 26.6517 14.5621 27.4925 14.8236 28.187 15.4765 28.6134 15.8773 28.8181 16.4474 28.8181 17.0171 28.8181 17.5982 28.6055 18.1827 28.1839 18.5929ZM57.7255 26.021C57.6724 26.1077 57.599 26.1675 57.5174 26.2035 57.4318 26.2411 57.3362 26.252 57.2445 26.2365 57.1532 26.2212 57.0664 26.1798 56.9976 26.1167 56.9316 26.0561 56.8813 25.9758 56.8589 25.8775 56.3053 23.4497 55.2305 21.6434 52.9363 20.4786 51.8078 19.9056 50.5101 19.5416 49.2816 19.2513 48.9246 19.1669 48.5474 19.1123 48.1675 19.0569 46.9769 18.8833 45.7778 18.6845 45.0016 17.7235 44.5339 17.1447 44.3377 16.4044 44.4486 15.7273 44.5531 15.0899 44.9262 14.5054 45.6043 14.1551 47.2925 13.2835 49.3905 14.1387 51.0953 14.8673 51.2218 14.9214 51.3459 14.9744 51.4674 15.0256 53.1346 15.7284 54.6552 16.656 55.9051 17.9825 56.8969 19.0349 57.8158 20.5907 58.1858 22.1912 58.4937 23.5227 58.4213 24.882 57.7255 26.021Z" id="🖍-Ink"/></g><g id="facial-hair/*-None" transform="translate(30.8434 84.6352)"></g><g id="accessories/*-None" transform="translate(11.7857 60.3464)"></g></g></g></g></g></svg>