<svg width="324" height="484" viewBox="0 0 324 484" xmlns="http://www.w3.org/2000/svg" xmlns:xlink="http://www.w3.org/1999/xlink" overflow="hidden"><g id="Introduction" fill="none" fill-rule="evenodd"><g id="variations-sitting" transform="translate(-1741 -236)"><g id="a-person/sitting" transform="translate(1743 200)"><g id="pose/sitting/hands_back-1" transform="translate(-20.3115 159.505)"><path d="M90.9082 211.97C85.8179 224.665 79.7247 239.075 74.119 251.441 74.5679 255.359 76.2527 259.366 74.9344 263.29 80.7444 259.517 87.2767 257.148 93.9445 255.357L94.3194 257.864C95.0617 257.84 96.399 257.828 97.1507 257.817 97.0335 256.82 96.875 255.042 96.8032 254.037L96.8009 254.038C95.8709 243.233 97.6083 232.17 99.7301 221.611 100.248 217.801 98.9846 211.882 94.1748 211.784 93.4597 211.893 92.2822 209.962 91.8485 209.588L90.9082 211.97ZM158.176 358.009C133.943 359.366 120.086 339.569 108.37 321.048 107.137 321.864 105.771 322.776 104.525 323.514 102.609 326.588 98.7078 327.52 95.3402 327.861 83.3375 328.474 80.7665 317.713 77.7867 308.455 77.2191 308.853 75.9498 310.877 74.9952 310.433 69.6052 309.24 64.3577 307.814 58.6433 308.17 52.0848 306.772 18.0986 321.717 21.2354 308.684 22.7673 303.016 31.1991 300.33 35.5418 296.417 41.8569 289.244 40.319 280.015 43.3358 271.473 45.8439 262.904 48.7744 254.831 54.1977 246.954 54.6873 217.511 55.7917 181.475 63.4259 155.29 68.2934 136.913 74.3235 117.914 72.0056 98.6311L70.6891 98.596C70.1133 98.2701 69.2282 98.0242 68.5216 98.1325 67.9256 97.4747 66.8206 97.6747 66.0107 97.4084 64.5508 83.7885 63.9878 72.1313 65.8404 59.7753 67.5611 39.3735 80.4564 31.0283 99.291 26.5848 119.99 19.8065 134.034 12.898 144.758-3.95702 146.786-7.37755 148.019-11.4275 150.721-14.3116 157.432-22.791 176.73-21.3931 181.714-12.4648 183.89-7.24184 184.078-1.14592 185.733 4.28397 192.242 27.3463 222.177 24.63 238.026 37.2397 245.002 42.4051 247.25 50.38 248.155 58.4976 249.295 68.7057 251.472 78.535 251.192 88.6809 251.92 88.8186 253.587 88.3009 253.869 89.3428 253.206 91.5345 244.708 91.5268 242.338 91.9145 245.455 108.396 242.628 124.947 245.134 141.481 248.996 160.057 256.596 177.31 262.564 195.256 264.861 201.187 266.399 207.545 269.816 212.946L269.754 212.993C270.295 213.889 270.887 214.76 271.502 215.6 272.135 215.828 272.796 216.199 273.421 216.427L273.56 216.193 273.897 216.645 274.889 216.227C276.345 216.954 277.927 217.796 279.481 218.681 298.578 230.252 311.074 241.992 326.047 256.53L324.06 258.139C324.783 259.143 325.659 260.473 326.362 261.532 326.948 261.015 328.199 260.145 328.921 259.847 341.687 274.998 343.248 301.262 337.03 317.228 335.052 322.012 331.924 325.94 328.145 329.249 326.584 331.591 323.78 334.825 320.196 336.379 320.196 336.379 319.744 337.017 319.729 337.039 319.538 337.065 318.364 337.334 318.295 337.607 308.756 339.212 299.19 343.404 289.304 343.465 273.182 343.325 259.328 330.255 246.396 321.624 238.216 315.8 228.685 311.799 219.851 307.905 220.51 311.262 220.323 312.414 216.667 313.683 213.41 314.977 209.493 313.965 206.463 312.543 206.542 318.108 206.987 323.664 206.833 329.599 206.832 336.782 207.072 345.615 199.319 348.931 186.117 354.124 171.199 357.853 158.176 358.009L158.176 358.009Z" id="🎨-Background" fill="#FFFFFF"/><path d="M146.315-11.0799C147.351-13.0593 150.483-11.6663 149.875-9.58188 148.326-4.27592 144.607 0.74016 141.019 4.87051 137.41 9.02416 133.176 12.6296 128.618 15.7124 128.118 17.4024 128.226 19.0284 128.903 20.6775 129.162 21.3074 128.892 21.7863 128.446 22.0298 128.903 23.7196 129.185 25.4816 129.662 27.1585 130.906 31.5321 132.901 35.7191 135.51 39.4474 140.203 46.1589 146.849 51.2802 154.884 53.2545 162.763 55.1904 171.445 54.0788 178.29 49.613 184.456 45.5902 188.86 39.2756 189.583 31.865 189.919 28.4081 189.606 24.941 188.804 21.5686 188.378 19.7813 187.829 18.0246 187.183 16.3067 186.5 14.496 185.587 12.7702 185.085 10.9034 185.038 10.7321 185.026 10.5606 185.038 10.3913 184.041 8.77552 183.72 6.75004 184.307 4.88075 184.336 4.78883 184.372 4.70407 184.415 4.6275 184.377 4.30973 184.338 3.98964 184.307 3.66956 184.179 2.39691 184.22 1.15012 184.159-0.114846 184.097-1.32886 183.877-2.39921 183.956-3.61809 183.966-3.77685 184.159-3.82269 184.249-3.69465 185.048-2.55489 185.191-1.49152 185.594-0.214131L185.639-0.0764358C186.085 1.29352 186.434 2.65554 186.806 4.04854 187.38 6.20743 188.188 8.2406 189.394 10.1278 191.504 13.4259 194.426 16.0965 197.691 18.2323 210.315 26.4825 226.557 26.7181 238.566 36.1951 241.454 38.4741 243.96 41.3292 245.647 44.6095 247.749 48.693 248.494 53.1849 249.152 57.6747L249.264 58.437C250.023 63.6608 250.705 68.8973 251.298 74.1416 251.593 76.7435 251.864 79.35 252.116 81.9567 252.282 83.6829 252.711 85.5778 252.506 87.3239 252.736 87.3267 252.965 87.3521 253.19 87.4161 254.16 87.6824 254.96 88.4099 254.993 89.4544 255.076 92.1698 251.184 92.4602 249.201 92.7887L249.082 92.8088C247.317 93.1135 245.537 93.3517 243.749 93.4825 244.383 96.9008 244.614 100.378 244.793 103.866 244.966 107.21 245.028 110.566 245.071 113.919L245.122 118.032C245.211 125.798 244.947 133.702 246.237 141.387 247.351 148.032 249.463 154.442 251.653 160.803L252.572 163.463C255.235 171.168 257.874 178.88 260.621 186.555 261.995 190.393 263.362 194.237 264.732 198.078 265.417 199.998 266.094 201.921 266.786 203.839 267.04 204.538 267.328 205.235 267.584 205.936 267.705 206.067 267.807 206.221 267.871 206.41 268.525 208.349 269.382 210.19 270.405 211.939 271.642 212.881 272.837 213.828 273.973 214.891 273.983 214.899 273.988 214.912 273.996 214.922 274.312 214.789 274.683 214.776 275.071 214.968 276.661 215.759 278.225 216.599 279.767 217.47 279.785 217.477 279.8 217.482 279.816 217.49 279.821 217.495 279.823 217.5 279.826 217.506 289.308 222.873 297.921 229.658 306.177 236.746 310.37 240.347 314.525 244.001 318.624 247.708 322.509 251.224 326.305 254.866 329.616 258.935 332.907 262.978 335.669 267.39 337.516 272.278 339.483 277.486 340.412 283.027 341.025 288.542L341.063 288.887C342.117 298.586 341.902 308.883 338.032 317.989 336.095 322.544 333.212 326.598 329.483 329.865 329.327 330.003 329.165 330.134 329.006 330.27 326.898 333.386 324.12 336.195 320.804 337.757L320.43 338.286 320.43 338.286 320.242 338.548 318.942 338.881 318.819 339.004 318.819 339.004C318.393 339.421 317.882 339.449 317.462 339.263L312.938 340.426 312.938 340.426 308.413 341.588C302.376 343.142 296.264 344.911 289.993 345.142 284.117 345.359 278.479 343.813 273.175 341.383 268.007 339.017 263.257 335.829 258.597 332.6 254.065 329.46 249.607 326.214 245.096 323.041 243.501 321.919 241.898 320.818 240.279 319.74 239.924 319.556 239.573 319.373 239.223 319.202L238.961 319.077C237.335 318.311 235.763 317.413 234.162 316.595 230.961 314.959 227.709 313.418 224.447 311.907 223.405 311.423 222.349 310.962 221.287 310.514 221.325 310.829 221.323 311.149 221.274 311.451 220.956 313.523 218.545 314.616 216.801 315.28 215.339 315.838 213.718 316.035 212.159 315.955 210.607 315.876 209.035 315.566 207.588 314.982 207.588 314.995 207.588 315.005 207.591 315.018 207.871 319.149 207.983 323.298 207.969 327.439L207.962 328.857C207.943 332.927 207.997 337.168 207.134 341.147 206.211 345.408 203.49 348.645 199.558 350.483 196.112 352.096 192.362 353.148 188.713 354.237L187.96 354.463C180.011 356.864 171.866 358.747 163.576 359.453 155.72 360.122 147.528 359.556 140.124 356.688 132.18 353.61 125.807 348.215 120.529 341.619 116.324 336.364 112.537 330.767 108.771 325.173L107.533 323.333C106.794 323.822 106.045 324.298 105.286 324.759 105.035 325.256 104.673 325.704 104.155 326.119 103.311 326.797 102.431 327.409 101.457 327.883 99.4202 328.872 97.276 329.422 95.0164 329.555 90.8281 329.799 86.4885 328.321 83.4364 325.427 79.4686 321.661 78.476 316.337 76.7448 311.451 76.1421 312.066 75.2367 312.258 74.3313 312.109 71.61 311.674 68.9888 310.763 66.2547 310.335 63.6232 309.92 60.9328 309.795 58.2705 309.866 53.1777 310.004 48.3369 311.218 43.4659 312.588L42.199 312.946C37.7761 314.195 33.2852 315.395 28.6752 315.61L28.1031 315.635C25.9142 315.72 23.2707 315.709 21.3604 314.721 18.9444 313.472 18.5494 310.734 19.365 308.348 20.5371 304.906 23.202 302.553 26.1771 300.627 28.7855 298.94 31.8633 297.539 34.0716 295.46 36.9554 292.742 37.7883 288.627 38.4849 284.886L38.5138 284.731C39.3551 280.193 40.2297 275.691 41.4351 271.233 42.638 266.783 44.1949 262.435 46.0261 258.205 47.8164 254.064 49.8605 249.855 52.5433 246.206 52.5459 246.198 52.5484 246.193 52.551 246.187 52.5228 246.039 52.4997 245.888 52.4894 245.724 52.4458 245.066 52.492 244.39 52.4997 243.729L52.5382 239.486 52.5382 239.486C52.5664 236.739 52.5997 233.994 52.6459 231.246 52.7382 225.589 52.8613 219.928 53.1204 214.276 54.036 194.278 56.4033 174.445 61.5227 155.059 64.0028 145.658 66.719 136.281 68.5887 126.735 69.5967 121.591 70.2353 116.454 70.52 111.294 70.6149 107.63 70.5021 103.956 70.1789 100.291 69.9917 100.286 69.7942 100.24 69.5941 100.135 69.3274 99.994 69.0452 99.8942 68.7554 99.8122L67.9962 99.8327 67.9962 99.8327C67.5525 99.8455 67.2294 99.6688 67.0242 99.4053 66.8959 99.3692 66.7677 99.3311 66.642 99.2876 65.9059 99.2389 65.1775 99.0825 64.4491 98.8213 64.2593 98.7521 64.1619 98.6164 64.1413 98.4167 64.0541 97.6283 63.9695 96.8368 63.8874 96.0455 63.7181 95.3339 63.6617 94.5836 63.6643 93.8229 62.9744 86.6427 62.5589 79.4012 62.7871 72.1904 62.623 71.8526 62.6614 71.4913 62.823 71.1843 62.9769 67.3405 63.318 63.5097 63.9054 59.702L63.99 59.1614C65.3965 50.3252 67.9823 41.2023 75.2187 35.3578 81.9154 29.9497 90.3536 27.7731 98.4199 25.2764L99.138 25.0527C109.307 21.8618 119.312 17.7824 127.995 11.5129 131.98 8.63494 135.63 5.25973 138.769 1.48045 140.347-0.41726 141.77-2.43993 143.014-4.57066 144.253-6.68577 145.181-8.91585 146.315-11.0799ZM238.707 201.379C238.076 202.369 237.327 203.268 236.463 204.036 235.809 204.359 235.165 204.705 234.526 205.056 234.057 205.22 233.593 205.391 233.131 205.57 232.231 205.883 231.338 206.223 230.446 206.569 230.233 206.546 230.02 206.51 229.817 206.449 227.563 207.429 225.201 208.154 222.769 208.605L222.728 208.61 222.728 208.61C220.743 209.475 218.735 210.282 216.734 211.05 211.456 213.078 206.039 214.732 200.548 216.079 190.75 218.481 180.73 219.928 170.691 220.868 161.142 221.759 151.514 222.348 141.922 222.284 128.705 222.197 114.481 220.584 103.049 213.803 103.017 214.184 102.962 214.567 102.918 214.939L102.875 215.337C103.162 217.915 103.203 220.507 103.019 223.139 102.726 227.326 101.906 231.453 101.539 235.633 101.464 236.485 101.11 237.087 100.626 237.468 99.7895 246.126 99.9511 254.981 101.608 263.5 101.867 263.641 102.085 263.838 102.252 264.066 102.329 264.586 102.429 265.096 102.56 265.598 102.557 265.613 102.554 265.631 102.549 265.646 102.477 265.925 102.37 266.181 102.239 266.42 103.685 272.493 105.93 278.365 109.166 283.829 113.057 290.39 118.166 296.068 123.275 301.698L124.719 303.29C127.551 306.412 130.365 309.554 132.978 312.862 134.366 314.619 135.717 316.406 136.977 318.257L137.422 318.912C138.531 320.548 139.58 322.197 140.08 324.132 140.698 326.526 137.605 328.503 135.82 326.608 134.148 324.831 133.037 322.652 131.657 320.647 130.39 318.808 129.039 317.033 127.625 315.302 124.866 311.923 121.925 308.695 119.004 305.455L117.901 304.229C112.533 298.252 107.23 292.087 103.362 285.012 100.872 280.457 98.9611 275.622 97.5761 270.634 97.2273 270.965 96.8836 271.3 96.5553 271.651 94.6984 273.633 93.1852 275.896 92.0669 278.372 90.9692 280.808 90.251 283.548 90.0125 286.208 89.892 287.545 89.815 288.884 89.8022 290.223 91.082 289.906 92.4106 290.513 93.1775 291.632L97.2094 297.511 97.2094 297.511 105.202 309.165 105.202 309.165 113.193 320.818C117.866 327.629 122.285 334.802 127.89 340.907 132.983 346.456 139.136 350.491 146.482 352.335 153.576 354.115 161.15 353.917 168.375 352.814 175.931 351.661 183.353 349.643 190.669 347.46L191.204 347.3C194.22 346.396 198.193 345.669 200.237 343.027 202.367 340.274 202.11 335.977 202.211 332.678L202.215 332.541C202.792 315.694 201.099 298.814 197.373 282.377 195.511 274.168 193.271 266.017 190.496 258.069L189.796 256.063C188.628 252.72 187.451 249.376 186.188 246.065 184.41 242.36 182.453 238.738 180.322 235.215 179.465 233.799 181.684 232.514 182.535 233.922 185.71 239.174 188.498 244.638 190.891 250.279 191.13 250.761 191.366 251.245 191.599 251.729 192.217 249.519 193.112 247.396 194.159 245.345 195.446 242.82 197.073 240.485 198.876 238.298L199.056 238.08C200.898 235.874 202.966 233.885 205.926 233.394 207.552 233.126 208.714 234.572 208.004 236.093 206.842 238.577 204.862 240.208 203.028 242.165 201.361 243.944 199.922 245.888 198.642 247.962 197.311 250.113 196.195 252.418 195.2 254.74 194.839 255.585 194.508 256.443 194.131 257.278 198.499 267.421 201.743 278.071 204.015 288.81 204.049 288.961 204.077 289.114 204.108 289.266 205.521 290.087 206.873 291.125 208.224 291.964L209.27 292.613C210.665 293.476 212.066 294.332 213.503 295.124 215.301 296.116 217.137 297.047 219.009 297.895 221.02 298.807 223.057 299.393 224.78 300.796 225.716 301.56 224.916 303.127 223.818 303.111 221.944 303.084 220.258 302.351 218.591 301.545L217.45 300.988C215.47 300.031 213.544 298.97 211.684 297.795 209.776 296.589 207.945 295.298 206.221 293.847L205.743 293.444C205.42 293.171 205.092 292.89 204.767 292.599L204.97 293.681C205.004 293.861 205.037 294.042 205.07 294.223 205.39 294.4 205.713 294.566 206.034 294.725 206.098 294.935 206.165 295.145 206.234 295.352 205.983 295.521 205.813 295.824 205.898 296.177 206.201 297.472 206.362 298.789 206.54 300.102L206.585 300.43 205.998 299.984C206.124 300.84 206.239 301.698 206.352 302.555 213.062 303.05 219.709 305.439 225.96 307.726 229.469 309.008 232.898 310.466 236.283 312.04L237.1 312.42C238.462 313.057 239.821 313.712 241.131 314.442 241.276 314.524 241.42 314.607 241.563 314.691L241.777 314.819 242.285 314.683C243 314.906 243.713 315.133 244.426 315.364 247.289 317.333 250.113 319.358 252.924 321.389L256.04 323.642C259.418 326.08 262.811 328.5 266.286 330.794L266.81 331.139C271.098 333.947 275.597 336.565 280.511 338.098 285.838 339.762 291.196 339.667 296.633 338.584 302.555 337.401 308.4 335.762 314.258 334.305 316.279 333.803 318.301 333.304 320.324 332.805 321.001 332.313 321.655 331.788 322.281 331.232 328.167 323.573 332.091 314.486 333.8 304.947 335.751 294.044 334.572 282.8 330.406 272.539 326.298 262.42 319.496 253.608 311.663 246.083 303.568 238.303 294.345 231.787 284.809 225.894 277.99 221.682 271.006 217.718 263.932 213.926 262.962 213.562 262.024 213.119 261.098 212.648 259.231 211.841 257.374 211.019 255.53 210.172 253.747 209.381 251.964 208.582 250.19 207.775 248.772 207.132 247.357 206.482 245.944 205.829L244.532 205.173C243.077 204.497 241.562 203.875 240.302 202.858 239.838 202.482 239.461 202.078 239.158 201.647 239.01 201.558 238.856 201.471 238.707 201.379ZM152.896 311.664C153.012 311.459 153.304 311.638 153.207 311.845 152.106 314.224 151.44 316.923 150.827 319.466 150.273 321.76 149.857 324.065 149.658 326.416L149.598 327.176C149.425 329.31 149.166 331.728 150.198 333.67 150.899 334.99 152.276 336.568 153.755 336.995L153.845 337.019C155.607 337.467 155.369 339.803 153.845 340.354 150.934 341.401 147.854 340.039 146.261 337.496 144.586 334.827 144.602 331.478 145.248 328.5 145.902 325.486 147.22 322.524 148.48 319.717 149.749 316.893 151.391 314.352 152.896 311.664ZM95.0677 256.876 93.9254 257.172C86.669 259.059 79.0655 261.232 74.7699 267.904 71.1689 273.502 70.738 280.585 71.1971 287.043 71.3033 288.536 71.4593 290.028 71.669 291.511L71.7409 292.005C71.9871 293.647 72.0563 295.762 72.8848 297.221 73.6875 298.638 75.5881 299.414 76.7679 300.481 78.0092 301.605 79.0505 303.011 79.8713 304.466 81.5025 307.362 82.413 310.601 83.4723 313.733L83.5838 314.06C84.5192 316.786 85.6035 319.446 87.717 321.389 88.5429 322.15 89.7535 322.805 90.864 323.158 92.3901 323.643 93.3519 323.758 95.0164 323.658 96.0167 323.596 97.6659 323.195 98.62 322.71 100.244 321.888 100.995 320.795 102.888 320.419 103.462 320.304 104.114 320.403 104.655 320.682 104.901 320.508 105.147 320.339 105.399 320.18 105.142 319.804 104.886 319.428 104.629 319.054L87.9248 294.697 87.9248 294.697C87.3015 293.788 87.4015 292.587 87.9376 291.657 87.7657 291.214 87.6221 290.774 87.5016 290.367 87.0681 288.892 86.8322 287.394 86.786 285.857 86.6962 282.767 87.1938 279.668 88.2043 276.747 89.2533 273.715 90.7743 270.885 92.8133 268.404L93.0056 268.172C93.8311 267.18 94.9561 265.911 96.2219 264.901 95.9372 263.439 95.691 261.969 95.4884 260.494 95.3217 259.29 95.1832 258.084 95.0677 256.876ZM206.565 304.24C206.885 306.858 207.152 309.482 207.37 312.107 208.83 312.255 210.297 312.125 211.746 311.615 212.813 311.244 213.841 310.673 214.777 310.043 215.454 309.584 216.039 309.055 216.719 308.647L215.175 308.026C212.26 306.851 209.358 305.646 206.565 304.24ZM97.4402 100.982C89.22 100.084 80.9562 99.6688 72.6898 99.7408 73.4028 107.323 73.2207 114.961 72.1615 122.487 71.9691 124.94 71.7075 127.375 71.4074 129.782 68.9734 149.356 63.3257 168.346 61.1021 187.953 59.9684 197.939 59.4221 207.975 59.081 218.015 58.9117 223.008 58.8091 228.002 58.7399 232.995 58.704 235.574 58.6757 238.155 58.6527 240.733L58.6219 244.477 58.6219 244.477C58.6168 245.14 58.6757 245.888 58.4962 246.536 58.3298 247.141 57.9364 247.641 57.57 248.143L57.4344 248.331C56.57 249.552 55.0465 249.727 54.0258 248.781 52.8049 250.978 51.5533 253.155 50.4222 255.403 48.9474 258.338 47.6497 261.354 46.6545 264.471 45.8056 268.009 45.1131 271.592 44.5103 275.174 43.7768 279.512 43.2844 283.891 42.5201 288.223 41.807 292.267 40.44 296.139 37.5546 299.158 35.3001 301.513 32.466 303.091 29.7448 304.832L29.3095 305.112C28.1875 305.838 27.3566 306.423 26.39 307.395 25.6077 308.181 25.0614 308.967 24.7562 309.902L24.9731 309.957C25.0666 309.979 25.1545 309.998 25.2307 310.007 26.2951 310.127 27.3749 310.156 28.4444 310.132 30.6707 310.081 32.8636 309.748 35.0308 309.264 39.4782 308.271 43.7948 306.778 48.237 305.779 52.8331 304.745 57.5729 304.294 62.2793 304.568L62.7641 304.598C66.6622 304.841 71.014 305.344 74.6827 306.881 74.5185 306.601 74.3467 306.327 74.1646 306.056 73.2746 304.745 71.7203 303.703 70.3533 302.625 68.4194 301.099 67.3653 299.109 66.9472 296.697 66.265 292.766 65.8572 288.741 65.8341 284.749 65.7879 277.115 67.3037 268.954 72.8771 263.326 72.8924 263.313 72.9078 263.298 72.9232 263.283 72.9361 263.019 72.9437 262.758 72.9463 262.494 71.8845 262.102 71.0817 261.098 71.0945 259.879 71.1176 257.836 71.2305 255.793 71.5741 253.777 70.7662 253.442 70.1455 252.686 70.1404 251.644 70.1329 249.948 70.975 248.462 71.6556 246.946L71.7152 246.812C72.3282 245.427 72.9412 244.039 73.5542 242.651L76.0019 237.104C76.4102 236.179 76.8192 235.255 77.2295 234.332 81.4999 224.737 86.0089 215.255 90.369 205.701 92.0977 201.914 93.7776 198.103 95.3217 194.237 96.3399 190.03 97.5812 185.879 98.7354 181.707 99.8844 177.546 100.964 173.36 101.675 169.099 102.411 164.689 102.716 160.211 102.767 155.742 102.87 146.86 101.93 137.984 100.813 129.181L100.739 128.594C99.5664 119.399 98.4328 110.203 97.4402 100.982ZM294.13 274.544C293.948 274.409 294.117 274.101 294.312 274.232 299.175 277.474 303.761 281.425 307.344 286.055 311.16 290.981 314.097 296.494 316.177 302.361 316.951 304.553 313.271 305.598 312.676 303.324 309.772 292.262 303.412 281.43 294.13 274.544ZM249.141 237.95C249.235 237.832 249.425 237.986 249.348 238.111 247.648 240.85 246.584 243.859 245.407 246.841L245.17 247.437C243.952 250.472 242.921 253.613 242.103 256.778 240.438 263.213 239.979 269.866 238.84 276.401 238.615 277.694 236.527 277.648 236.265 276.401 234.806 269.382 236.24 262.24 238.594 255.585 239.766 252.272 241.21 249.086 242.975 246.044 244.678 243.107 247.032 240.592 249.141 237.95ZM132.614 248.991 132.969 248.799C138.444 245.864 144.935 243.411 151.204 243.967 152.937 244.121 153.422 246.561 151.627 247.079 145.774 248.766 139.829 249.688 134.181 252.077 128.536 254.464 123.604 257.892 118.684 261.482 118.489 261.626 118.223 261.347 118.354 261.155 121.878 255.992 127.169 251.954 132.614 248.991ZM91.9258 212.694C90.5486 216.184 89.1174 219.654 87.6888 223.121 85.8148 227.664 83.8779 232.187 81.9269 236.699L77.9785 245.816 77.9785 245.816C77.4065 247.13 76.8371 248.446 76.2677 249.76 75.9548 250.485 75.6778 251.211 75.3085 251.88 75.3857 252.357 75.4334 252.775 75.473 253.004L75.4803 253.045C75.8574 255.076 76.1934 257.114 76.6448 259.129 76.7422 259.559 76.7448 259.987 76.6678 260.391 77.2167 260.066 77.7784 259.769 78.3555 259.495 80.3099 258.315 82.6156 257.511 84.57 256.763 87.9119 255.485 91.3565 254.515 94.8061 253.573 94.4163 247.263 94.6574 240.918 95.4961 234.641 95.7936 232.434 96.1373 230.235 96.5528 228.045 96.9606 225.902 97.5428 223.769 97.7864 221.6 98.1038 218.778 97.6017 213.721 93.8214 213.486L93.7058 213.48C92.9005 213.449 92.308 213.142 91.9258 212.694ZM324.9 257.409C325.382 258.084 325.851 258.768 326.31 259.459 326.392 259.395 326.482 259.336 326.577 259.288 326.031 258.653 325.469 258.025 324.9 257.409ZM95.0036 256.174 93.8648 256.489 93.8648 256.489C94.2547 256.479 94.642 256.469 95.0293 256.463 95.019 256.366 95.0113 256.271 95.0036 256.174ZM270.657 212.359C271.037 212.986 271.44 213.603 271.866 214.206L272.08 214.507 272.88 214.843C272.996 214.888 273.096 214.947 273.186 215.014 273.304 215.06 273.424 215.104 273.542 215.147 272.526 214.266 271.585 213.326 270.657 212.359ZM228.019 91.6181C227.917 94.8013 227.791 97.9814 227.663 101.162 227.235 111.83 226.616 122.502 226.396 133.178L226.382 133.899C226.208 143.274 226.478 152.743 229.176 161.798 230.521 166.315 232.581 170.4 234.938 174.458L235.77 175.884C237.923 179.589 240.054 183.452 240.967 187.653 241.39 189.597 241.482 191.753 241.236 193.896 241.382 194.147 241.431 194.467 241.315 194.836L241.113 195.486C240.702 196.826 240.3 198.37 240.9 199.65 240.969 199.799 241.051 199.937 241.141 200.07L242.543 200.697C243.244 201.011 243.945 201.329 244.642 201.658 246.553 202.561 248.443 203.514 250.323 204.479 250.633 204.354 251 204.349 251.377 204.538 255.75 206.735 260.113 208.976 264.442 211.278L265.132 211.578 265.132 211.578C265.086 211.488 265.045 211.401 265.001 211.311 264.745 211.216 264.506 211.081 264.293 210.904 262.404 209.33 262.004 206.701 261.271 204.436L259.151 198.032C257.71 193.684 256.271 189.333 254.837 184.982 252.295 177.272 249.602 169.608 246.986 161.921L246.715 161.121C244.28 153.915 242.084 146.658 241.236 139.07 240.336 131.019 240.731 122.861 240.879 114.782L240.893 113.959C241 107.223 240.971 100.207 242.282 93.5668 241.995 93.577 241.705 93.585 241.415 93.5901 239.056 93.6234 236.724 93.4774 234.385 93.1545 233.141 92.9832 231.9 92.7832 230.677 92.4967 230.064 92.3533 229.445 92.2071 228.84 92.0304 228.468 91.9205 228.268 91.7669 228.019 91.6181ZM83.5312 140.194C85.6139 140.165 87.701 140.255 89.7758 140.465L90.8556 140.58C92.9683 140.811 95.0174 141.09 96.6425 142.619 97.6018 143.525 97.1324 145.249 95.8628 145.569 93.6366 146.132 91.5565 145.351 89.3841 144.89 87.3733 144.46 85.342 144.15 83.2902 143.971 79.0788 143.602 74.8673 143.618 70.6431 143.566 70.0866 143.561 70.0763 142.86 70.5226 142.67 74.6134 140.952 79.1095 140.253 83.5312 140.194ZM125.735 17.5589C125.484 17.7099 125.238 17.8687 124.984 18.017 125.255 18.0144 125.502 18.0505 125.735 18.1145 125.73 17.9299 125.73 17.743 125.735 17.5589Z" id="🖍-Ink" fill="#000000"/></g><g id="Head" transform="translate(86.5118 45.072)"><g id="head/Bun"><path d="M37.4851 15.9924C75.4926 14.1259 101.281 44.0569 102.39 55.9924 103.16 64.2775 102.638 75.327 102.638 82.7305 102.638 86.5095 104.547 97.9962 102.39 103.504 97.589 115.763 92.1647 125.366 77.135 125.366 62.1052 125.366 39.1929 117.587 31.3253 107.554 29.8888 105.723 12.0385 92.3137 12.0385 81.7737 12.0385 59.2864 10.3651 17.3241 37.4851 15.9924Z" id="🎨-Background" fill="#FFFFFF"/><path d="M11.5564-8.29513C13.7225-8.97121 15.1049-7.9979 16.0912-6.48999 16.3086-6.53231 16.5189-6.52956 16.7532-6.47322 16.8111-6.45919 16.9513-6.40636 17.0573-6.36479 17.1393-6.33049 17.2133-6.28892 17.2845-6.24485L17.3269-6.26714 17.3269-6.26714C17.4894-6.44417 17.6602-6.60568 17.8445-6.73589 18.2587-7.02835 18.6855-7.11349 19.0905-7.05339L19.278-7.12225 19.278-7.12225C20.8814-7.68014 22.6197-7.42123 23.7067-6.04203 23.9171-5.7756 24.0871-5.47888 24.2323-5.16588 24.5583-5.05921 24.8642-4.90496 25.1278-4.71516 25.3128-4.80205 25.5084-4.87516 25.7178-4.929 26.9006-5.23198 28.1434-4.94603 29.1073-4.22187 29.5767-3.86956 29.922-3.42835 30.1838-2.92455 30.482-2.85469 30.7766-2.72898 31.0527-2.56021 31.2899-2.67815 31.5309-2.78883 31.7779-2.8647 32.6809-3.14164 33.6495-3.24356 34.5894-3.17369 36.6146-3.02372 38.5733-0.713825 37.2198 1.26974L37.1777 1.32975C37.006 1.56888 36.8565 1.81603 36.7181 2.06718 37.2028 2.27776 37.6697 2.55946 38.101 2.91253 40.2107 4.63909 40.4006 7.30079 40.006 9.81169L39.9892 9.91622 39.9942 9.91622C41.1152 10.0225 42.083 11.1915 41.4207 12.2911L41.3885 12.3426C40.492 13.7256 39.7237 15.2532 38.8673 16.7086 36.4974 17.5617 34.2122 18.6124 32.0605 19.8854 30.7202 21.0578 29.4441 22.2972 28.3214 23.6762 27.761 24.3648 27.2462 25.0937 26.773 25.8494 27.1514 26.031 27.6193 26.0217 28.0145 25.6561 31.5299 22.4032 35.777 20.1203 40.2992 18.5903 40.6249 18.4799 40.8386 18.2721 40.9584 18.0262 42.966 17.455 45.0089 17.0121 47.0722 16.6985 47.6409 16.1574 48.2367 15.6401 48.8029 15.1012 49.5258 14.4136 50.4313 14.4237 51.1079 14.8556 51.4439 14.7027 51.7876 14.5676 52.1365 14.4463L52.3529 14.3726C52.4432 14.343 52.5294 14.3087 52.6182 14.2817 55.0393 13.5427 57.2533 13.817 59.6347 14.4243L59.9396 14.5035C61.0497 14.7976 61.7483 14.7506 62.8234 14.4799L62.9445 14.449C64.0867 14.1515 65.3084 13.9311 66.4759 14.2444 67.6975 14.5722 68.5079 15.3013 69.34 16.1823L69.4233 16.2709C69.8116 16.6856 70.0359 16.7309 70.5443 16.7208L71.0886 16.7047C73.1434 16.6484 75.1555 16.735 76.6946 18.3219 77.2634 18.9088 77.8739 19.7394 78.2403 20.4974L78.2934 20.6105C78.3105 20.6474 78.3255 20.6782 78.3396 20.7057 78.5602 20.6701 78.9038 20.5307 79.0673 20.4989 81.3065 20.0652 83.1749 20.7335 84.613 22.4956 84.9275 22.8812 85.4027 23.6384 85.7319 24.0546 85.8473 24.1522 85.9561 24.2569 86.0592 24.3668 86.5991 24.7111 87.3641 24.6893 87.9695 24.81 89.6192 25.138 91.3825 25.7645 92.2213 27.3323 92.5719 27.9866 92.7015 28.7025 92.8495 29.4176 93.4042 29.7814 93.8387 30.3058 94.1762 30.8734 94.5865 31.5625 94.761 32.4066 95.2334 33.0574 95.5765 33.5302 96.1008 33.7826 96.5996 34.0716L96.79 34.1833C98.2681 35.0621 99.4254 36.0375 99.912 37.7594L99.9542 37.9126C100.033 38.1764 100.31 38.9292 100.069 38.8161 100.277 38.9306 100.63 38.9709 100.819 39.0335 101.845 39.3723 102.736 39.9196 103.282 40.8809 103.698 41.6126 103.773 42.3752 103.892 43.1818L103.943 43.5074C103.956 43.5862 103.971 43.6777 103.987 43.7664L104.003 43.8537 104.006 43.8557C104.192 43.9358 104.375 44.0227 104.554 44.1163 105.404 44.6159 105.985 45.483 105.985 46.4869 105.985 46.9742 105.832 47.3538 105.61 47.6926 105.79 47.964 105.929 48.2532 106.034 48.5755 106.24 49.2047 106.254 49.8928 106.185 50.5439 106.102 51.3251 105.901 52.0365 105.665 52.7827 105.573 53.0707 105.537 53.473 105.399 53.748 105.652 54.0702 105.803 54.4641 105.757 54.8527 105.69 55.4086 105.436 56.0584 104.931 56.3702 104.685 57.5846 104.154 58.8256 103.632 59.8184 103.572 59.9336 103.499 60.0363 103.419 60.1214 103.491 64.0853 103.201 68.0769 103.18 72.0354 103.158 76.3448 103.248 80.657 103.399 84.9611 103.652 92.095 104.557 99.4718 102.448 106.428 100.723 112.122 97.2673 117.01 92.6336 120.716 87.8892 124.507 82.1696 126.701 76.096 127.044 73.0067 127.216 69.8647 126.866 66.8756 126.067L66.5563 125.98C63.6643 125.187 60.3147 123.975 58.1868 121.853 57.0634 120.731 58.1993 118.355 59.8468 119.008 61.4793 119.657 62.944 120.616 64.5636 121.292 66.0105 121.895 67.5203 122.358 69.0497 122.699 72.1165 123.387 75.3688 123.538 78.4857 123.11 89.7398 121.572 98.5089 112.24 100.239 101.174 100.718 98.1101 100.709 94.9954 100.677 91.899L100.641 88.5062C100.614 85.6679 100.604 82.8279 100.708 79.9909 100.841 76.3401 101.099 72.6915 101.445 69.0559L101.626 67.1642C101.84 64.9506 102.08 62.7203 102.496 60.5371 102.156 60.5549 99.4708 55.9685 97.9808 53.4057 97.4369 52.975 96.9777 52.4399 96.8004 51.7475 96.7636 51.6031 96.7445 51.4573 96.733 51.3113 96.4095 50.8038 96.0682 50.3092 95.7081 49.8295L95.6295 49.7944C95.5691 49.7668 95.5221 49.7439 95.4945 49.7283 94.7086 49.2834 94.0524 48.6093 93.6033 47.828 93.4518 47.5646 93.3277 47.2897 93.2269 47.0085 92.5862 46.3807 91.9159 45.7818 91.2118 45.2201 91.1426 45.165 91.0711 45.1134 91.0014 45.0591 90.1049 44.7251 89.318 44.2218 88.7443 43.4969 88.5046 43.3486 88.2631 43.2034 88.0196 43.0612 87.2889 43.0544 86.5507 42.8844 85.8325 42.5897 84.5185 42.0508 83.4691 40.9858 82.1491 40.4923 80.7531 39.9707 79.2824 41.1561 77.7992 40.9423 77.4205 40.8877 77.0451 40.7728 76.6961 40.606 75.8608 41.4894 74.9744 42.3222 73.9972 43.0511 72.5786 44.1093 71.1282 44.5929 69.484 45.0709 68.6693 45.8429 67.757 46.5913 66.6569 46.7012 64.111 48.7335 61.388 50.4477 58.5228 52.0393 58.0619 52.2952 57.6038 52.4106 57.169 52.4136 56.2703 52.977 55.2893 53.4104 54.2529 53.7104 53.9282 53.8043 53.5934 53.8241 53.2642 53.7838L52.3649 54.5152 52.3649 54.5152C51.739 55.024 51.0715 55.2672 50.4328 55.2829 50.0442 55.5802 49.6414 55.8614 49.2269 56.1318 48.7828 56.422 48.2069 56.5422 47.6281 56.5071 46.7442 57.3705 45.598 57.4612 44.6381 57.0635 44.5062 57.1407 44.3705 57.2138 44.218 57.2856 44.0109 57.3835 43.7948 57.4662 43.5743 57.533 42.5733 58.6103 41.1081 59.1752 39.6399 59.0274 38.5436 59.698 37.2675 60.0468 36.02 59.9684 35.8296 60.9229 35.6722 61.881 35.539 62.8423L35.5254 63.5464C35.5239 63.6606 35.5237 63.7495 35.5252 63.8081L35.526 63.8313C35.6481 66.9185 35.7148 70.0072 35.8354 73.0949L35.8465 73.3386C35.9838 76.0361 36.6484 80.9544 32.6776 80.8473 31.1979 80.8074 29.7298 79.7193 28.5776 78.8247L28.4152 78.6983C28.3269 78.6297 28.2364 78.5594 28.1454 78.4878 27.2843 78.3761 26.4352 78.167 25.5656 78.1352 24.4923 78.0976 23.3639 78.2078 22.3182 78.4507 20.4727 78.8789 18.6873 79.718 17.4836 81.2376 17.3783 81.3704 17.2805 81.5106 17.1877 81.6508 17.1025 81.9388 16.957 82.2042 16.7639 82.4346 15.6255 84.9911 16.2827 88.3693 17.5413 90.7078 19.0409 93.4934 21.4139 95.4192 24.3978 96.3892L24.5475 96.4369C26.5862 97.0729 27.366 98.3049 28.4744 100.018 29.5125 101.625 30.7036 103.123 31.9825 104.545 34.4575 107.297 37.9308 109.568 39.3699 113.051 39.6607 113.752 38.8282 114.413 38.1838 114.233 35.6586 113.524 33.8883 111.729 32.0527 109.944 30.7824 108.707 29.5607 107.421 28.4144 106.07 28.174 106.181 27.9094 106.256 27.6338 106.289 26.4177 106.438 25.1634 106.376 24.0986 105.722 23.6079 105.766 23.0966 105.596 22.717 105.249 22.3687 104.929 22.0682 104.584 21.8145 104.216 21.4288 104.25 21.0502 104.26 20.6888 104.2 20.5145 104.184 20.3458 104.138 20.1911 104.063 19.9037 103.949 19.6311 103.775 19.3809 103.506 18.8738 102.963 18.6795 102.195 18.773 101.466 18.6727 101.445 18.5732 101.419 18.4749 101.386 17.7998 101.157 17.2803 100.704 16.9482 100.088 16.3542 99.7552 15.8193 99.304 15.4144 98.8247 14.9211 98.2416 14.549 97.5843 14.3303 96.8584 14.1044 96.7534 13.885 96.632 13.6748 96.4898 12.169 95.4724 11.3069 93.5623 11.8982 91.7963L11.9183 91.7408C11.9483 91.6612 12.0027 91.5258 12.0692 91.3728 12.0597 91.2484 12.0497 91.1239 12.0429 90.9992L12.0221 90.6231 12.0221 90.6231 11.7204 90.4952 11.7204 90.4952C10.2159 89.8977 9.19879 89.0912 9.01799 87.4007 8.98038 87.0512 9.11629 86.6946 9.33069 86.3966L9.32969 86.303 9.32969 86.303C9.23189 86.2524 9.13886 86.2006 9.05686 86.1485 8.23663 85.6254 7.7326 84.6879 7.78902 83.7184 7.84085 82.8346 8.33111 82.13 8.88236 81.4785L9.03984 81.2958C9.05291 81.281 9.06752 81.2644 9.08319 81.2467L8.71876 81.1321C8.48235 81.057 8.2658 80.9822 8.11 80.8951 7.50717 80.5578 6.99612 80.1018 6.68092 79.5224 6.63503 79.4505 6.58839 79.3799 6.54626 79.3033 6.13928 78.5619 6.08612 77.6119 6.34867 76.8158 6.37976 76.7219 6.41988 76.6335 6.46101 76.5457 5.35265 76.1555 4.49932 75.3492 4.39651 73.8634 4.35613 73.2789 4.48427 72.6968 4.76287 72.1982 4.70118 71.8624 4.68839 71.5144 4.72826 71.1701 4.33833 70.8022 4.03541 70.359 3.9 69.8184 3.64398 68.797 4.11265 67.8252 4.80926 66.9341 4.55148 66.2294 4.53819 65.4344 4.83258 64.725 4.71923 64.371 4.65479 63.9966 4.65128 63.6122 4.6435 62.7611 4.90605 62.0502 5.33008 61.4455 4.73403 60.7179 4.45092 59.7508 4.80299 58.8446 5.05349 58.2006 5.33986 57.6114 5.66986 57.0655 5.49659 56.6504 5.39578 56.1854 5.39578 55.6648 5.39578 54.7283 5.74734 53.9864 6.28522 53.3791 6.05177 52.2701 6.52645 50.9195 7.56108 50.4312 7.95101 50.2469 8.47309 50.0546 9.04834 49.9048 9.26424 49.2313 9.48967 48.5604 9.72764 47.8944 10.1025 46.846 10.5057 45.8121 10.933 44.7902 10.687 45.0053 10.429 45.2058 10.1622 45.3876 9.3184 46.4588 8.19977 47.3868 7.25967 47.942 5.39603 49.0427 3.26458 48.3897 2.34455 46.548 1.47993 47.1925 0.442289 47.5741-0.664812 47.4437-1.92011 47.2957-3.06784 46.4839-3.38128 45.2176-3.42667 45.0343-3.454 44.8363-3.45676 44.6369-4.17669 45.1487-4.92997 45.6198-5.75622 45.8894-6.80866 46.233-7.88291 45.4089-8.02183 44.3823-8.07675 43.9754-8.00051 43.6158-7.83827 43.3121L-7.94105 43.2717C-7.95811 43.2646-7.9751 43.2571-7.99199 43.2492-8.54391 42.9911-8.97246 42.5178-9.17607 41.9719-10.3712 42.4337-11.7393 41.8925-12.1185 40.5802-12.5698 39.0202-12.5972 37.4402-12.2439 35.9205-13.5102 35.0015-14.3352 33.4566-14.4756 31.8415-14.5782 30.6821-14.3011 29.6119-13.8129 28.6223-15.0105 28.1751-15.4222 26.6076-14.853 25.4783-15.609 25.0461-16.102 24.1299-16.1131 23.238-16.4508 22.7272-16.5589 22.0694-16.2788 21.3322-15.9095 20.3609-15.1572 19.5484-14.2958 18.9111-14.6715 18.258-14.9506 17.5459-15.1238 16.81-15.8375 16.6014-16.4135 16.025-16.5308 15.1593-16.6778 14.0741-15.9624 13.1541-14.9994 12.9113-14.8926 12.5807-14.7622 12.2575-14.601 11.947-15.0774 10.8202-15.0072 9.39538-14.3929 8.16342-13.8487 7.07418-12.9635 6.40811-11.8978 5.94738-12.1686 5.0209-11.81 4.09692-10.9073 3.40832-9.80523 2.56673-8.59657 1.92345-7.32647 1.46897-7.43932-0.0391876-6.80791-1.58365-5.31564-2.10949-4.91668-2.24997-4.50142-2.3018-4.0794-2.30005-3.77297-2.96536-3.26167-3.50623-2.5944-3.98499-1.58466-4.70914 0.302341-4.26675 0.862323-3.13112L0.889643-3.07278C0.918229-3.00843 0.949072-2.94959 0.978411-2.88724 1.09125-3.43862 1.35505-3.95945 1.77908-4.38638 2.83904-5.45384 3.95818-5.47387 5.03519-5.01739 5.23279-5.50667 5.47201-5.97191 5.76289-6.39734 6.81884-7.94081 8.56337-8.13737 9.84073-7.30154 10.3528-7.75101 10.9243-8.09756 11.5564-8.29513ZM19.1062 84.5204C21.2324 83.6891 23.8127 83.9347 25.9141 84.7333L26.0681 84.793C27.9241 85.5258 30.9395 87.1558 31.3029 89.2405 31.4909 90.3199 30.4631 91.2537 29.4197 90.6855 28.5119 90.192 28.0029 89.1979 27.2807 88.4767 26.5663 87.7633 25.7661 87.1899 24.8937 86.6864 23.0732 85.6372 21.1597 85.229 19.1062 84.9263 18.8755 84.8938 18.9382 84.5855 19.1062 84.5204Z" id="🖍-Ink" fill="#000000"/></g><g id="face/Smile-Teeth-Gap" fill="#000000" transform="translate(39.8707 46.5744)"><path d="M42.8332 36.1495C44.7268 37.2989 47.612 39.9789 45.575 42.8283 43.1772 45.3407 39.7249 42.4601 38.0236 41.1573 36.4462 40.1476 34.6738 42.7444 36.1374 43.9234 48.4305 53.0117 53.4193 36.4501 43.791 34.7982 42.7308 34.6162 42.3371 35.794 42.8332 36.1495ZM25.7248 14.2304 26.1956 14.1481 26.4369 14.1072C27.8472 13.8744 29.519 13.7187 30.493 14.8241 31.0394 15.444 31.2275 16.5964 30.493 17.1898 29.2011 18.234 27.7728 17.8294 26.2246 17.9177 24.9487 17.9909 23.7225 18.2017 22.4936 18.5525 19.7974 19.322 17.6005 20.7267 15.2978 22.2692 14.9956 22.4715 14.6872 22.0857 14.8314 21.8035 16.1606 19.2036 18.7367 17.0679 21.317 15.7661 22.6942 15.0712 24.2012 14.4948 25.7248 14.2304ZM38.1969 50.1478C42.3174 50.4466 51.2469 48.4824 54.9546 51.4286 68.9286 68.8532 13.5285 73.3331 19.5116 54.0556 23.3224 47.8224 32.0876 50.3276 38.1969 50.1478ZM37.4905 60.6669C36.4714 60.584 35.2347 61.39 34.9355 62.0128 34.6364 62.6358 34.752 63.9521 34.761 64.1803 36.5426 64.3595 38.3398 64.3868 40.1265 64.2699 39.6623 62.7367 39.6473 60.899 37.4905 60.6669ZM45.7169 63.239C45.4305 61.336 44.0674 60.8852 42.9641 61.1709 41.8354 61.4629 41.1729 62.7602 41.2446 63.9153 41.2494 63.995 41.2032 64.0626 41.1729 64.1267 42.707 63.9456 44.2269 63.6476 45.7169 63.239ZM33.0801 61.0114C32.4377 60.0354 30.9026 59.5644 29.9193 59.7364 28.3137 60.0739 28.1236 62.1112 28.1236 62.5264 29.6039 63.0898 31.1754 63.4639 32.6779 63.7618 32.9796 63.8214 33.282 63.8748 33.5849 63.9251L33.6046 63.6777C33.6412 63.1477 33.6683 61.9049 33.0801 61.0114ZM51.2424 60.8504C49.5961 58.3071 46.0574 60.128 46.3498 62.9065 46.6643 62.8076 46.9772 62.7041 47.2887 62.5957 48.5821 62.1455 50.0009 61.6104 51.2424 60.8504ZM38.2819 52.0874C36.0672 51.8884 34.2504 51.9555 32.8061 52.2229L32.7623 52.7047C32.6024 54.3751 32.3963 56.0175 33.2747 56.6895 33.9881 57.2354 36.3561 57.1833 37.9439 56.7882 38.3361 56.6895 38.8458 53.225 38.2819 52.0874ZM41.7065 51.8884C41.3515 53.5347 41.1846 55.5336 41.8973 56.1273 42.6499 56.7542 45.0726 56.6692 45.7061 56.2516 46.2606 55.8862 46.2465 54.205 46.0406 52.3176 44.8137 52.0288 42.6772 51.8884 41.7065 51.8884ZM31.8266 52.2394 31.1014 52.2459 30.6909 52.2514C29.653 52.2698 28.5332 52.3295 27.4747 52.5602 25.3717 57.0982 33.0514 57.8815 31.8653 52.4072L31.8266 52.2394ZM47.0176 52.3489 47.0042 52.6059C46.9412 53.8807 46.9829 55.5593 47.6901 56.0125 48.7308 56.6793 50.6849 56.5507 51.7435 53.4661 51.3932 52.5459 47.6778 52.4162 47.0176 52.3489ZM26.6366 25.2905C27.0812 25.2905 27.5065 25.4412 27.8938 25.72 28.275 25.9945 28.6201 26.3951 28.9075 26.8947 29.4514 27.8401 29.7914 29.1455 29.7914 30.5889 29.7914 32.0323 29.4514 33.3377 28.9075 34.2832 28.6201 34.7828 28.275 35.1833 27.8938 35.4578 27.5065 35.7367 27.0812 35.8874 26.6366 35.8874 26.1919 35.8874 25.7666 35.7367 25.3793 35.4578 24.9982 35.1833 24.6531 34.7828 24.3657 34.2832 23.8218 33.3377 23.4818 32.0323 23.4818 30.5889 23.4818 29.1455 23.8218 27.8401 24.3657 26.8947 24.6531 26.3951 24.9982 25.9945 25.3793 25.72 25.7666 25.4412 26.1919 25.2905 26.6366 25.2905ZM54.7818 25.2905C55.2264 25.2905 55.6517 25.4412 56.039 25.72 56.4202 25.9945 56.7653 26.3951 57.0527 26.8947 57.5966 27.8401 57.9366 29.1455 57.9366 30.5889 57.9366 32.0323 57.5966 33.3377 57.0527 34.2832 56.7653 34.7828 56.4202 35.1833 56.039 35.4578 55.6517 35.7367 55.2264 35.8874 54.7818 35.8874 54.3372 35.8874 53.9119 35.7367 53.5246 35.4578 53.1434 35.1833 52.7983 34.7828 52.5109 34.2832 51.967 33.3377 51.627 32.0323 51.627 30.5889 51.627 29.1455 51.967 27.8401 52.5109 26.8947 52.7983 26.3951 53.1434 25.9945 53.5246 25.72 53.9119 25.4412 54.3372 25.2905 54.7818 25.2905ZM50.9524 13.0657 51.3128 13.1394 51.5518 13.19C55.4384 14.0248 60.366 15.6705 62.1853 19.4388 62.2561 19.9826 62.1813 20.0992 62.1205 20.1753L62.1003 20.2006C62.0502 20.2657 62.0102 20.3553 61.7742 20.4293 61.7087 20.4138 61.6425 20.3972 61.5756 20.3797 60.7245 20.157 60.0511 19.8502 59.3991 19.5318L58.6922 19.184C57.8721 18.7825 57.0447 18.3955 56.1679 18.1099 54.2967 17.5004 52.372 17.0711 50.4175 16.8418 49.9939 16.7922 49.586 16.6494 49.2642 16.4047 48.9587 16.1725 48.7253 15.8509 48.6189 15.4235 48.481 14.8704 48.5207 14.4516 48.8179 13.9526 49.0414 13.5778 49.3611 13.3181 49.7283 13.1689 50.1027 13.0168 50.5288 12.981 50.9524 13.0657Z" id="🖍-Ink"/></g><g id="facial-hair/*-None" transform="translate(30.8434 84.6352)"></g><g id="accessories/*-None" transform="translate(11.7857 60.3464)"></g></g></g></g></g></svg>