<svg width="473" height="567" viewBox="0 0 473 567" xmlns="http://www.w3.org/2000/svg" xmlns:xlink="http://www.w3.org/1999/xlink" overflow="hidden"><g id="head/mono/Bun-2" fill="none" fill-rule="evenodd"><path d="M397.502 243.757C395.126 213.013 398.808 180.789 386.954 151.567 366.286 103.082 308.33 86.9156 263.399 68.4566 245.399 63.138 184.83 62.3946 163.754 55.3552 116.054 39.4234 104.657 20.4408 66.7547 50.7756 60.3567 55.9576 56.3537 61.5896 53.4337 69.2846L53.5537 69.3176C52.7197 72.5256 53.6137 75.7266 55.4927 78.1716 39.0587 94.9696 32.1817 120.154 40.6137 142.515 68.1307 200.704 66.8367 232.167 57.9707 294.723 46.3927 353.123 72.8497 374.456 116.666 406.232 114.882 409.691 114.512 414.288 116.838 417.34 167.505 488.539 263.038 522.533 344.891 486.395 378.116 471.607 392.949 436.224 401.414 404.297 411.275 368.548 414.305 330.878 406.277 294.462 403.039 277.62 398.821 260.9 397.502 243.757Z" id="🎨-Background" fill="#FFFFFF"/><path d="M105.244-96.8628C111.394-97.7863 116.039-93.9706 118.248-88.5924L118.364-88.3028C119.074-86.4728 119.864-84.6928 120.714-82.9428 136.104-90.4928 158.064-88.5528 167.804-73.2628 174.754-62.3428 170.514-49.3828 167.894-37.8028L166.174-30.1728C169.499-28.0571 172.006-24.2682 171.888-20.3448L171.874-20.0428 171.174-9.4028C173.394-11.6528 175.424-14.1028 177.234-16.7128 178.484-19.0028 179.834-21.2528 181.284-23.4328 189.814-36.2628 208.964-25.1128 201.924-11.3728 200.574-8.7228 199.054-6.2128 197.424-3.7928 195.584-0.2228 194.074 3.4472 192.914 7.2172 196.244 8.6672 198.804 11.8872 199.074 16.7472 199.704 28.0972 193.744 37.5672 184.264 43.5172 181.474 45.2672 178.594 45.6072 175.984 44.9572 175.524 45.5772 175.064 46.1972 174.624 46.8272 178.404 49.8972 181.814 53.3972 184.744 57.2772 193.564 55.9572 202.434 55.3372 211.304 55.3172 222.144 50.0072 235.124 50.1172 246.774 52.1072 254.274 53.3872 261.474 55.8772 268.854 57.6672 276.634 59.5472 284.534 59.6172 292.404 60.8972 302.324 62.5072 311.024 67.0872 316.494 74.3972 322.504 74.5772 328.824 77.0372 334.064 80.3772 346.264 88.1572 358.394 96.0472 370.564 103.877 375.235 106.883 376.981 111.682 376.122 117.035L376.064 117.377 375.654 119.597 376.617 120.964C380.341 126.223 384.394 131.732 386.804 137.537 391.264 143.967 395.294 150.707 398.864 157.657 403.674 166.997 407.644 176.897 410.334 187.057 411.004 189.627 411.674 192.217 412.114 194.837 412.744 198.537 411.774 201.407 411.244 204.957 410.584 209.457 410.344 214.017 409.644 218.527 409.174 221.517 406.634 222.987 403.974 223.067 404.974 230.677 405.694 238.337 406.384 245.937 407.354 256.797 408.014 267.687 408.584 278.577 411.524 282.847 417.534 286.227 421.874 287.397 427.884 289.007 434.184 287.257 439.864 285.207 443.434 283.917 446.364 288.407 444.624 291.407 439.154 300.827 427.454 300.787 418.594 296.617 414.844 294.857 411.554 292.307 409.114 288.987 409.264 292.147 409.424 295.307 409.584 298.477L409.733 301.348C411.535 334.88 415.424 369.566 409.124 402.767 398.214 460.277 350.622 504.067 292.484 507.467 261.976 509.252 236.571 500.241 223.937 495.214 211.304 490.187 216.214 479.938 224.984 482.868 240.092 487.915 267.846 495.434 292.684 492.187 351.224 484.534 400.864 455.275 395.764 329.257 395.041 311.387 392.814 293.507 392.334 275.637 391.874 258.167 392.044 240.687 391.274 223.227L391.017 217.27C390.717 210.309 390.395 203.316 389.874 196.347 389.244 193.647 388.724 190.907 387.954 188.257 385.864 181.047 383.134 174.037 379.744 167.347 378.994 167.917 378.154 168.327 377.244 168.487 370.334 169.727 363.854 169.377 357.384 166.497 354.364 165.167 351.704 163.397 349.224 161.207 348.044 160.177 347.254 159.177 346.634 158.137 343.504 158.187 340.374 157.247 338.414 154.997 336.179 152.433 335.807 149.784 336.682 147.332L336.774 147.087 336.554 147.007C333.914 153.837 328.654 159.847 322.884 163.907 313.764 170.347 302.354 172.207 291.414 172.377 279.334 172.557 266.594 170.697 254.674 168.797 251.524 168.297 248.394 167.727 245.324 166.957 245.204 167.077 245.084 167.217 244.954 167.337 234.724 177.127 220.334 179.647 207.354 174.057 199.854 170.827 193.564 165.627 188.004 159.667 187.924 162.787 187.764 165.907 187.494 168.997L187.382 170.224C186.829 175.979 185.763 182.084 181.414 186.237 174.384 192.967 164.184 190.267 156.074 185.887 156.084 186.097 156.084 186.317 156.084 186.537 158.274 193.977 160.474 201.427 162.674 208.877L163.148 210.464C164.748 215.754 166.502 221.051 166.984 226.587 167.904 237.167 160.864 247.617 149.104 244.067 142.935 242.212 137.994 237.025 133.252 232.871L130.264 230.287C137.994 255.557 143.354 281.727 143.854 308.097 143.884 309.527 142.654 310.607 141.294 310.657 138.114 310.787 134.694 310.157 131.494 308.887 131.314 308.877 131.134 308.867 130.944 308.837 125.484 308.047 120.414 306.077 115.944 303.167 116.974 306.437 117.434 309.947 117.164 313.617 117.094 314.507 115.704 314.817 115.504 313.837 112.924 301.147 98.074 291.557 85.274 293.987 71.534 296.597 61.414 308.417 58.934 321.867 56.274 336.317 61.364 353.027 70.794 364.177 75.134 369.317 80.844 373.607 87.624 374.687 90.724 375.177 93.944 375.007 96.954 374.127 98.234 373.747 99.434 373.217 100.654 372.717 102.434 371.997 104.514 371.887 106.194 371.127 110.004 369.417 113.834 372.927 111.904 376.837 110.224 380.247 108.714 382.547 105.924 384.307 108.184 387.067 110.234 390.907 110.994 391.937 114.874 397.177 118.814 402.127 123.234 406.917 127.734 411.777 132.644 416.217 137.834 420.327L140.016 422.051C145.015 426.016 149.368 429.69 152.894 435.377 155.674 439.867 152.074 445.957 146.864 445.887 130.564 445.657 118.714 431.337 110.274 418.827 109.074 417.037 107.944 415.147 106.894 413.207 106.514 413.817 106.094 414.387 105.624 414.907L106.554 417.407C109.314 424.767 97.424 429.577 93.974 422.707 91.464 417.727 88.554 412.987 85.314 408.507 83.404 408.237 81.534 407.077 80.494 405.577 77.864 401.767 74.914 397.917 72.424 393.857 71.044 392.547 69.624 391.287 68.174 390.057 67.754 390.427 67.324 390.797 66.914 391.187 65.094 395.337 62.844 399.127 60.054 402.697L59.4558 403.459C54.1109 410.195 47.1489 417.089 38.534 418.737 35.904 419.237 33.374 415.967 35.704 413.877 41.734 408.457 48.864 404.767 54.424 398.717 57.1633 395.736 59.6784 392.454 61.8412 389.014L62.334 388.217C62.694 387.627 63.064 387.037 63.444 386.437 60.934 384.727 58.424 383.007 55.914 381.287 49.0043 387.19 40.0062 389.891 32.3636 394.781L31.604 395.277C24.694 399.897 17.414 389.677 22.954 384.067 29.061 377.906 34.159 370.559 39.569 363.711 37.025 359.025 35.821 353.484 35.37 347.884 35.192 346.299 35.053 344.713 34.914 343.127 31.034 343.187 27.134 341.857 23.834 339.567L22.584 338.677C18.574 339.957 14.364 340.577 10.334 340.467 0.854 340.187-3.026 329.357 2.904 322.507 8.954 315.507 19.544 313.977 27.934 317.377 28.204 317.237 28.484 317.087 28.754 316.937 28.354 315.097 28.443 313.428 28.898 311.962L28.766 311.068C26.921 308.237 25.708 305.005 25.248 301.59 24.884 298.885 24.958 296.204 25.584 293.533 25.792 292.644 26.225 291.723 26.556 290.796 25.874 289.074 25.473 287.294 25.349 285.504 25.158 285.277 24.968 285.044 24.788 284.792 20.625 278.947 21.466 271.904 25.428 267.174 25.446 266.873 25.474 266.572 25.515 266.273 25.283 265.751 25.07 265.224 24.876 264.691 21.005 260.786 18.163 256.087 18.693 250.264 19.004 246.838 20.412 243.754 22.543 241.449 22.165 240.331 22.129 239.036 22.587 237.955 19.186 228.909 19.616 218.014 22.064 207.897 21.524 206.357 21.244 204.687 21.304 202.917 21.584 195.407 28.084 188.507 35.784 188.597 36.711 188.605 37.579 188.726 38.413 188.903L38.424 188.724C38.719 186.47 39.339 184.387 40.244 182.518 39.799 182.357 39.387 182.126 39.026 181.819 34.092 184.451 28.871 186.463 23.397 187.834 19.372 188.842 15.249 184.267 17.751 180.489 18.912 178.736 20.193 177.162 21.573 175.724 19.611 175.735 17.619 175.868 15.604 176.127 11.984 176.597 7.944 174.127 5.594 170.787 2.674 173.627-0.256 176.457-3.186 179.287-10.606 186.477-21.816 181.187-22.986 171.707-25.196 171.117-27.256 170.117-29.066 168.687-40.766 173.767-53.356 176.557-66.226 177.087-75.466 177.467-80.866 166.707-76.546 159.107-73.646 154.007-70.046 149.427-65.896 145.447-72.336 147.417-78.986 148.837-85.776 149.747-89.446 150.237-94.636 147.197-96.106 143.827-101.726 130.867-101.246 117.357-94.776 104.747-94.526 104.247-94.246 103.767-93.976 103.287-93.306 101.617-92.576 99.9672-91.786 98.3472-99.746 90.0472-100.436 77.7072-96.146 67.3772-97.866 64.5872-98.526 61.2272-97.356 58.1872-94.026 49.4372-89.226 41.3572-83.166 34.4172-83.746 33.2972-84.256 32.1072-84.686 30.8272-88.096 20.4772-84.146 7.9872-76.176 0.7772-71.166-3.7628-65.406-6.4828-59.256-8.2228-56.666-12.8028-53.336-16.9328-49.456-20.4128-49.306-20.7428-49.156-21.0728-48.986-21.4028-42.946-32.7828-31.946-38.8828-20.156-40.2928-19.696-44.7428-16.696-48.9928-12.336-50.3728-11.136-54.2228-9.346-57.9028-6.886-61.2428-3.016-66.5028 3.414-68.9828 9.474-65.5328 12.794-63.6428 15.974-61.4728 18.954-59.0728 20.2925-59.7005 21.8099-60.1066 23.5219-60.2362L23.954-60.2628 33.814-60.7628C37.944-62.5928 42.064-64.5128 46.194-66.3828 48.674-68.4328 51.444-70.1428 54.464-71.4128 57.884-72.8428 61.384-73.6528 64.894-73.9228 67.744-74.8528 70.614-75.6728 73.534-76.3128 80.394-77.8128 87.574-78.6528 94.694-78.5828 94.8397-80.4257 94.912-82.2906 94.8981-84.1775L94.884-85.1228C94.724-91.1728 99.554-96.0028 105.244-96.8628ZM98.334 387.187C97.354 387.397 96.364 387.567 95.374 387.687 95.674 388.427 95.974 389.167 96.264 389.907 97.064 390.357 97.874 390.787 98.684 391.187 98.444 389.827 98.304 388.457 98.334 387.187ZM46.957 371.92 46.2922 373.144C46.1844 373.345 46.0783 373.543 45.974 373.737 47.384 373.627 48.804 373.657 50.204 373.817L50.2 373.668C50.02 373.607 49.84 373.551 49.668 373.467 48.702 373.003 47.804 372.483 46.957 371.92ZM74.724 316.067C83.5712 316.583 91.0668 317.939 99.1129 321.809L99.804 322.147C106.914 325.677 118.674 332.197 117.684 341.547 117.404 344.207 115.474 347.007 112.434 346.797 104.104 346.227 99.344 337.827 93.704 332.587 88.014 327.307 81.024 321.877 74.134 318.247 73.1601 317.736 73.5437 316.119 74.6035 316.067L74.724 316.067ZM34.604 192.877C32.484 192.947 33.194 195.007 34.284 193.287 34.374 193.147 34.484 193.007 34.604 192.877ZM149.04 55.3552C128.962 55.8832 108.755 67.7382 93.714 79.7212 80.629 90.1462 69.33 102.546 59.325 115.911 56.751 122.567 54.541 129.362 52.674 136.207 51.444 140.727 50.674 145.297 49.644 149.857L49.324 151.255C48.515 152.767 47.914 154.394 47.476 156.075 49.299 157.903 51.664 159.212 54.268 159.833 55.107 160.033 55.804 160.466 56.355 161.04 58.451 157.542 60.283 153.85 61.349 149.936L61.388 149.755C65.417 143.156 69.793 136.762 74.484 130.587 87.424 113.537 101.674 97.9972 118.804 85.0672 131.794 75.2672 146.314 67.5872 161.754 62.5972 157.975 59.5482 153.683 57.1362 149.04 55.3552Z" id="🖍-Ink" fill="#000000"/></g></svg>