<svg width="289" height="293" viewBox="0 0 289 293" xmlns="http://www.w3.org/2000/svg" xmlns:xlink="http://www.w3.org/1999/xlink" overflow="hidden"><g id="face/Serious" fill="none" fill-rule="evenodd"><path d="M157.853 261.089 159.986 260.522C167.626 258.441 175.554 255.137 182.848 259.665 185.482 261.3 185.88 264.777 183.798 267.027 177.888 273.411 169.166 272.173 161.175 272.237L160.783 272.241C152.742 272.352 144.762 271.951 136.805 270.798 135.757 270.646 135.549 268.903 136.503 268.485 143.43 265.448 150.556 263.053 157.853 261.089L157.853 261.089ZM170.814 144.367C178.366 148.957 189.872 159.66 181.748 171.04 172.186 181.073 158.419 169.569 151.634 164.366 145.343 160.334 138.275 170.705 144.112 175.413 193.136 211.708 213.031 145.567 174.634 138.97 170.406 138.243 168.836 142.947 170.814 144.367ZM223.316 84.0053C235.498 83.6323 235.509 102.985 223.316 102.933 219.676 102.917 216.036 102.916 212.396 102.908 214.511 110.619 213.303 119.814 209.483 126.291 206.963 130.566 200.932 131.343 197.409 127.847 191.327 121.811 190.128 112.984 192.277 104.98L191.835 103.933 191.835 103.933C191.691 103.59 191.588 103.243 191.504 102.894 179.739 102.904 167.974 102.933 156.208 102.952L138.56 102.97C127.102 102.974 115.639 103.067 104.18 102.96 104.321 103.173 104.462 103.385 104.577 103.628 105.292 105.133 105.595 107.033 105.82 108.66 106.204 111.452 106.158 114.459 105.718 117.24 105.397 119.272 104.807 121.692 103.676 123.607L103.669 123.647 103.669 123.647C103.136 125.919 102.463 128.094 100.706 129.733 100.178 130.224 99.6633 130.574 99.1193 130.822 98.0923 131.897 96.7703 132.608 95.0333 132.631 94.1113 132.641 93.1003 132.372 92.1203 131.99 90.6133 132.116 89.0573 131.434 87.7243 130.83 86.6553 130.345 85.6743 129.701 84.8833 128.861 84.5123 128.773 84.1383 128.628 83.7643 128.397 81.4723 126.987 80.5963 124.161 80.4773 121.609 80.4693 121.454 80.4753 121.291 80.4703 121.134 80.3853 120.788 80.3093 120.44 80.2513 120.09 79.4893 115.555 80.4153 110.448 81.3853 106.041 81.6293 104.938 81.8303 103.657 82.1293 102.418 79.8423 102.329 77.5573 102.241 75.2703 102.147 69.5423 101.913 62.5513 102.68 57.2523 100.259 56.8663 100.084 56.9703 99.5703 57.2523 99.3693 62.1445 95.8722 69.7457 95.3063 75.6376 94.1545L76.1383 94.0543C83.1643 92.6133 90.1863 91.4013 97.2833 90.3663 110.944 88.3743 124.78 87.3023 138.56 86.5303 166.773 84.9503 195.074 84.8683 223.316 84.0053Z" id="🖍-Ink" fill="#000000"/></g></svg>